ISO-10303-21;
HEADER;
FILE_DESCRIPTION (( 'STEP AP214' ),
    '1' );
FILE_NAME ('ÖÐÐÄ°å.STEP',
    '2026-07-31T09:10:55',
    ( '' ),
    ( '' ),
    'SwSTEP 2.0',
    'SolidWorks 2024',
    '' );
FILE_SCHEMA (( 'AUTOMOTIVE_DESIGN' ));
ENDSEC;

DATA;
#1 = CARTESIAN_POINT ( 'NONE',  ( 98.42926394116740596, 0.000000000000000000, -92.48956697920040426 ) ) ;
#2 = EDGE_LOOP ( 'NONE', ( #620, #407, #219, #732 ) ) ;
#3 = DIRECTION ( 'NONE',  ( -0.000000000000000000, 1.000000000000000000, -0.000000000000000000 ) ) ;
#4 = VECTOR ( 'NONE', #82, 1000.000000000000114 ) ;
#5 = AXIS2_PLACEMENT_3D ( 'NONE', #477, #296, #590 ) ;
#6 = CARTESIAN_POINT ( 'NONE',  ( -109.6015510839150124, 0.000000000000000000, -109.6015510839147566 ) ) ;
#7 = VERTEX_POINT ( 'NONE', #433 ) ;
#8 = ORIENTED_EDGE ( 'NONE', *, *, #419, .T. ) ;
#9 = ORIENTED_EDGE ( 'NONE', *, *, #140, .T. ) ;
#10 = DIRECTION ( 'NONE',  ( -0.000000000000000000, -1.000000000000000000, -0.000000000000000000 ) ) ;
#11 = ORIENTED_EDGE ( 'NONE', *, *, #65, .F. ) ;
#12 = DIRECTION ( 'NONE',  ( -0.000000000000000000, -1.000000000000000000, -0.000000000000000000 ) ) ;
#13 = LINE ( 'NONE', #611, #441 ) ;
#14 = ORIENTED_EDGE ( 'NONE', *, *, #128, .F. ) ;
#15 = LINE ( 'NONE', #513, #665 ) ;
#16 = APPLICATION_PROTOCOL_DEFINITION ( 'draft international standard', 'automotive_design', 1998, #220 ) ;
#17 = VECTOR ( 'NONE', #234, 1000.000000000000000 ) ;
#18 = VECTOR ( 'NONE', #607, 1000.000000000000114 ) ;
#19 = ORIENTED_EDGE ( 'NONE', *, *, #243, .F. ) ;
#20 = DIRECTION ( 'NONE',  ( -1.000000000000000000, 0.000000000000000000, -0.000000000000000000 ) ) ;
#21 = EDGE_CURVE ( 'NONE', #228, #672, #496, .T. ) ;
#22 = CARTESIAN_POINT ( 'NONE',  ( -30.19999999999999929, 0.000000000000000000, -30.19999999999999929 ) ) ;
#23 = ADVANCED_FACE ( 'NONE', ( #62 ), #500, .F. ) ;
#24 = DIRECTION ( 'NONE',  ( -0.000000000000000000, 0.000000000000000000, 1.000000000000000000 ) ) ;
#25 = CARTESIAN_POINT ( 'NONE',  ( -30.19999999999999929, 8.000000000000000000, -9.999999999999992895 ) ) ;
#26 = DIRECTION ( 'NONE',  ( 1.000000000000000000, 0.000000000000000000, -2.312964634635741971E-16 ) ) ;
#27 = DIRECTION ( 'NONE',  ( -0.000000000000000000, -0.000000000000000000, 1.000000000000000000 ) ) ;
#28 = CARTESIAN_POINT ( 'NONE',  ( 5.656854249492371700, 8.000000000000000000, -5.656854249492369924 ) ) ;
#29 = VECTOR ( 'NONE', #738, 1000.000000000000000 ) ;
#30 = CARTESIAN_POINT ( 'NONE',  ( 98.42926394116740596, 8.000000000000000000, -92.48956697920040426 ) ) ;
#31 = VECTOR ( 'NONE', #125, 1000.000000000000000 ) ;
#32 = DIRECTION ( 'NONE',  ( -0.000000000000000000, -1.000000000000000000, -0.000000000000000000 ) ) ;
#33 = ORIENTED_EDGE ( 'NONE', *, *, #107, .F. ) ;
#34 = FACE_OUTER_BOUND ( 'NONE', #744, .T. ) ;
#35 = CARTESIAN_POINT ( 'NONE',  ( -98.42926394116740596, 0.000000000000000000, -92.48956697920040426 ) ) ;
#36 = ADVANCED_FACE ( 'NONE', ( #562 ), #54, .F. ) ;
#37 = DIRECTION ( 'NONE',  ( -0.7071067811865474617, 0.000000000000000000, 0.7071067811865474617 ) ) ;
#38 = ORIENTED_EDGE ( 'NONE', *, *, #670, .F. ) ;
#39 = LINE ( 'NONE', #154, #378 ) ;
#40 = LINE ( 'NONE', #286, #506 ) ;
#41 = EDGE_LOOP ( 'NONE', ( #305, #580, #466, #685 ) ) ;
#42 = CARTESIAN_POINT ( 'NONE',  ( -95.45941546018390511, 0.000000000000000000, -95.45941546018390511 ) ) ;
#43 = VECTOR ( 'NONE', #755, 1000.000000000000000 ) ;
#44 = VECTOR ( 'NONE', #458, 1000.000000000000114 ) ;
#45 = DIRECTION ( 'NONE',  ( 0.000000000000000000, 0.000000000000000000, -1.000000000000000000 ) ) ;
#46 = AXIS2_PLACEMENT_3D ( 'NONE', #636, #571, #24 ) ;
#47 = ORIENTED_EDGE ( 'NONE', *, *, #739, .F. ) ;
#48 = EDGE_LOOP ( 'NONE', ( #726, #14, #300, #608 ) ) ;
#49 = PLANE ( 'NONE',  #5 ) ;
#50 = LINE ( 'NONE', #105, #769 ) ;
#51 = EDGE_CURVE ( 'NONE', #326, #53, #489, .T. ) ;
#52 = CARTESIAN_POINT ( 'NONE',  ( -40.00000000000000000, 8.000000000000000000, -9.999999999999994671 ) ) ;
#53 = VERTEX_POINT ( 'NONE', #122 ) ;
#54 = PLANE ( 'NONE',  #80 ) ;
#55 = DIRECTION ( 'NONE',  ( -0.000000000000000000, -1.000000000000000000, -0.000000000000000000 ) ) ;
#56 = VERTEX_POINT ( 'NONE', #550 ) ;
#57 = ORIENTED_EDGE ( 'NONE', *, *, #279, .F. ) ;
#58 = PLANE ( 'NONE',  #605 ) ;
#59 = DIRECTION ( 'NONE',  ( -0.7071067811865466846, 0.000000000000000000, 0.7071067811865483499 ) ) ;
#60 = EDGE_CURVE ( 'NONE', #646, #374, #610, .T. ) ;
#61 = ORIENTED_EDGE ( 'NONE', *, *, #600, .F. ) ;
#62 = FACE_OUTER_BOUND ( 'NONE', #432, .T. ) ;
#63 = PLANE ( 'NONE',  #756 ) ;
#64 = ADVANCED_FACE ( 'NONE', ( #503 ), #58, .F. ) ;
#65 = EDGE_CURVE ( 'NONE', #200, #736, #437, .T. ) ;
#66 = ORIENTED_EDGE ( 'NONE', *, *, #614, .F. ) ;
#67 = VECTOR ( 'NONE', #460, 1000.000000000000000 ) ;
#68 = DIRECTION ( 'NONE',  ( 1.000000000000000000, 0.000000000000000000, 0.000000000000000000 ) ) ;
#69 = ADVANCED_FACE ( 'NONE', ( #789 ), #442, .F. ) ;
#70 = ORIENTED_EDGE ( 'NONE', *, *, #153, .T. ) ;
#71 = LINE ( 'NONE', #321, #212 ) ;
#72 = VERTEX_POINT ( 'NONE', #301 ) ;
#73 = CARTESIAN_POINT ( 'NONE',  ( 30.19999999999999929, 8.000000000000000000, -9.999999999999994671 ) ) ;
#74 = EDGE_CURVE ( 'NONE', #481, #241, #246, .T. ) ;
#75 = CARTESIAN_POINT ( 'NONE',  ( 115.2584053334072394, 8.000000000000000000, -103.9446968344224871 ) ) ;
#76 = ORIENTED_EDGE ( 'NONE', *, *, #103, .F. ) ;
#77 = DIRECTION ( 'NONE',  ( -1.000000000000000000, 0.000000000000000000, 2.312964634635743450E-16 ) ) ;
#78 = EDGE_CURVE ( 'NONE', #7, #672, #371, .T. ) ;
#79 = PLANE ( 'NONE',  #366 ) ;
#80 = AXIS2_PLACEMENT_3D ( 'NONE', #307, #613, #663 ) ;
#81 = AXIS2_PLACEMENT_3D ( 'NONE', #547, #240, #356 ) ;
#82 = DIRECTION ( 'NONE',  ( 0.7071067811865474617, 0.000000000000000000, 0.7071067811865474617 ) ) ;
#83 = LINE ( 'NONE', #579, #677 ) ;
#84 = EDGE_CURVE ( 'NONE', #546, #278, #250, .T. ) ;
#85 = CARTESIAN_POINT ( 'NONE',  ( -103.9446968344224729, 8.000000000000000000, -115.2584053334072678 ) ) ;
#86 = ADVANCED_BREP_SHAPE_REPRESENTATION ( '\X2\4e2d5fc3677f\X0\', ( #572, #632 ), #492 ) ;
#87 = LINE ( 'NONE', #266, #578 ) ;
#88 = FACE_OUTER_BOUND ( 'NONE', #2, .T. ) ;
#89 = LINE ( 'NONE', #336, #717 ) ;
#90 = EDGE_CURVE ( 'NONE', #561, #228, #699, .T. ) ;
#91 = CARTESIAN_POINT ( 'NONE',  ( -5.656854249492344167, 0.000000000000000000, 5.656854249492346831 ) ) ;
#92 = ORIENTED_EDGE ( 'NONE', *, *, #155, .F. ) ;
#93 =( NAMED_UNIT ( * ) PLANE_ANGLE_UNIT ( ) SI_UNIT ( $, .RADIAN. ) );
#94 = VECTOR ( 'NONE', #526, 1000.000000000000000 ) ;
#95 = CARTESIAN_POINT ( 'NONE',  ( 40.00000000000000000, 8.000000000000000000, -9.251858538542972222E-15 ) ) ;
#96 = FACE_OUTER_BOUND ( 'NONE', #431, .T. ) ;
#97 = ORIENTED_EDGE ( 'NONE', *, *, #194, .F. ) ;
#98 = APPLICATION_PROTOCOL_DEFINITION ( 'draft international standard', 'automotive_design', 1998, #654 ) ;
#99 = DIRECTION ( 'NONE',  ( -2.312964634635742957E-16, 0.000000000000000000, -1.000000000000000000 ) ) ;
#100 = DIRECTION ( 'NONE',  ( 0.7071067811865480168, 0.000000000000000000, 0.7071067811865470176 ) ) ;
#101 = EDGE_LOOP ( 'NONE', ( #367, #66, #183, #33 ) ) ;
#102 = ORIENTED_EDGE ( 'NONE', *, *, #421, .F. ) ;
#103 = EDGE_CURVE ( 'NONE', #232, #712, #635, .T. ) ;
#104 = CARTESIAN_POINT ( 'NONE',  ( -105.7831744655075283, 8.000000000000000000, -99.84347750354049822 ) ) ;
#105 = CARTESIAN_POINT ( 'NONE',  ( 5.656854249492384135, 0.000000000000000000, 5.656854249492384135 ) ) ;
#106 = EDGE_LOOP ( 'NONE', ( #338, #574, #57, #426 ) ) ;
#107 = EDGE_CURVE ( 'NONE', #56, #593, #637, .T. ) ;
#108 = CARTESIAN_POINT ( 'NONE',  ( 5.656854249492384135, 8.000000000000000000, 5.656854249492384135 ) ) ;
#109 = VECTOR ( 'NONE', #390, 999.9999999999998863 ) ;
#110 = AXIS2_PLACEMENT_3D ( 'NONE', #1, #195, #731 ) ;
#111 = CARTESIAN_POINT ( 'NONE',  ( -105.7831744655074999, 0.000000000000000000, -99.84347750354049822 ) ) ;
#112 = EDGE_LOOP ( 'NONE', ( #229, #510, #487, #528 ) ) ;
#113 = SURFACE_STYLE_FILL_AREA ( #659 ) ;
#114 = EDGE_CURVE ( 'NONE', #660, #527, #87, .T. ) ;
#115 = DIRECTION ( 'NONE',  ( -2.312964634635742957E-16, 0.000000000000000000, -1.000000000000000000 ) ) ;
#116 = EDGE_CURVE ( 'NONE', #56, #200, #633, .T. ) ;
#117 = ORIENTED_EDGE ( 'NONE', *, *, #350, .F. ) ;
#118 = FACE_OUTER_BOUND ( 'NONE', #609, .T. ) ;
#119 = ORIENTED_EDGE ( 'NONE', *, *, #78, .T. ) ;
#120 = VECTOR ( 'NONE', #164, 1000.000000000000000 ) ;
#121 = ORIENTED_EDGE ( 'NONE', *, *, #199, .T. ) ;
#122 = CARTESIAN_POINT ( 'NONE',  ( -28.68629150101525838, 0.000000000000000000, -40.00000000000000711 ) ) ;
#123 = MECHANICAL_DESIGN_GEOMETRIC_PRESENTATION_REPRESENTATION (  '', ( #606 ), #263 ) ;
#124 = EDGE_CURVE ( 'NONE', #708, #353, #15, .T. ) ;
#125 = DIRECTION ( 'NONE',  ( -0.000000000000000000, 1.000000000000000000, -0.000000000000000000 ) ) ;
#126 = EDGE_LOOP ( 'NONE', ( #292, #720, #420, #8 ) ) ;
#127 = DIRECTION ( 'NONE',  ( 1.000000000000000000, 0.000000000000000000, 1.734723475976807094E-16 ) ) ;
#128 = EDGE_CURVE ( 'NONE', #538, #668, #273, .T. ) ;
#129 = DIRECTION ( 'NONE',  ( 0.000000000000000000, 1.000000000000000000, -0.000000000000000000 ) ) ;
#130 = EDGE_LOOP ( 'NONE', ( #523, #783, #358, #584, #700, #131, #649, #9, #265, #461, #70, #645, #178, #465 ) ) ;
#131 = ORIENTED_EDGE ( 'NONE', *, *, #566, .F. ) ;
#132 = DIRECTION ( 'NONE',  ( 0.7071067811865477948, 0.000000000000000000, 0.7071067811865473507 ) ) ;
#133 = ADVANCED_FACE ( 'NONE', ( #749 ), #745, .F. ) ;
#134 = DIRECTION ( 'NONE',  ( 0.7071067811865475727, 0.000000000000000000, 0.7071067811865475727 ) ) ;
#135 = ORIENTED_EDGE ( 'NONE', *, *, #51, .T. ) ;
#136 = EDGE_LOOP ( 'NONE', ( #707, #552, #741, #761 ) ) ;
#137 = VECTOR ( 'NONE', #127, 1000.000000000000000 ) ;
#138 = PLANE ( 'NONE',  #110 ) ;
#139 = ORIENTED_EDGE ( 'NONE', *, *, #284, .T. ) ;
#140 = EDGE_CURVE ( 'NONE', #326, #179, #386, .T. ) ;
#141 = CARTESIAN_POINT ( 'NONE',  ( 40.00000000000000000, 8.000000000000000000, -9.999999999999994671 ) ) ;
#142 = CARTESIAN_POINT ( 'NONE',  ( 109.6015510839147851, 8.000000000000000000, -109.6015510839149414 ) ) ;
#143 = VERTEX_POINT ( 'NONE', #397 ) ;
#144 = EDGE_CURVE ( 'NONE', #549, #53, #261, .T. ) ;
#145 = DIRECTION ( 'NONE',  ( -0.7071067811865474617, 0.000000000000000000, 0.7071067811865474617 ) ) ;
#146 = DIRECTION ( 'NONE',  ( 0.7071067811865473507, 0.000000000000000000, -0.7071067811865477948 ) ) ;
#147 = CARTESIAN_POINT ( 'NONE',  ( 92.48956697920040426, 8.000000000000000000, -98.42926394116740596 ) ) ;
#148 = CARTESIAN_POINT ( 'NONE',  ( 6.938893903907228378E-15, 0.000000000000000000, -40.00000000000000000 ) ) ;
#149 = CLOSED_SHELL ( 'NONE', ( #762, #768, #368, #23, #184, #586, #616, #748, #69, #64, #36, #703, #343, #661, #459, #269, #518, #541, #727, #601, #133, #664, #474, #193 ) ) ;
#150 = AXIS2_PLACEMENT_3D ( 'NONE', #753, #146, #697 ) ;
#151 = PLANE ( 'NONE',  #716 ) ;
#152 = LINE ( 'NONE', #172, #440 ) ;
#153 = EDGE_CURVE ( 'NONE', #278, #658, #209, .T. ) ;
#154 = CARTESIAN_POINT ( 'NONE',  ( 99.84347750354049822, 8.000000000000000000, -105.7831744655074999 ) ) ;
#155 = EDGE_CURVE ( 'NONE', #527, #353, #83, .T. ) ;
#156 = DIRECTION ( 'NONE',  ( -0.000000000000000000, 1.000000000000000000, -0.000000000000000000 ) ) ;
#157 = PLANE ( 'NONE',  #150 ) ;
#158 = CARTESIAN_POINT ( 'NONE',  ( -2.969848480983415140, 0.000000000000000000, 2.969848480983420913 ) ) ;
#159 = LINE ( 'NONE', #705, #210 ) ;
#160 = ORIENTED_EDGE ( 'NONE', *, *, #463, .T. ) ;
#161 = LINE ( 'NONE', #629, #494 ) ;
#162 = VECTOR ( 'NONE', #27, 1000.000000000000000 ) ;
#163 = LINE ( 'NONE', #158, #43 ) ;
#164 = DIRECTION ( 'NONE',  ( -0.000000000000000000, -1.000000000000000000, -0.000000000000000000 ) ) ;
#165 = EDGE_CURVE ( 'NONE', #196, #708, #214, .T. ) ;
#166 = ORIENTED_EDGE ( 'NONE', *, *, #446, .T. ) ;
#167 = CARTESIAN_POINT ( 'NONE',  ( 39.99999999999999289, 0.000000000000000000, -28.68629150101524061 ) ) ;
#168 = LINE ( 'NONE', #777, #402 ) ;
#169 = EDGE_CURVE ( 'NONE', #546, #232, #507, .T. ) ;
#170 = ORIENTED_EDGE ( 'NONE', *, *, #90, .F. ) ;
#171 = EDGE_CURVE ( 'NONE', #53, #680, #447, .T. ) ;
#172 = CARTESIAN_POINT ( 'NONE',  ( 109.6015510839147851, 8.000000000000000000, -109.6015510839149414 ) ) ;
#173 = LINE ( 'NONE', #602, #392 ) ;
#174 = PRODUCT_DEFINITION_FORMATION_WITH_SPECIFIED_SOURCE ( 'ä»', '', #681, .NOT_KNOWN. ) ;
#175 = CARTESIAN_POINT ( 'NONE',  ( -28.68629150101525838, 8.000000000000000000, -40.00000000000000711 ) ) ;
#176 = PRODUCT_DEFINITION_SHAPE ( 'NONE', 'NONE',  #683 ) ;
#177 = CARTESIAN_POINT ( 'NONE',  ( 105.7831744655074999, 0.000000000000000000, -99.84347750354049822 ) ) ;
#178 = ORIENTED_EDGE ( 'NONE', *, *, #446, .F. ) ;
#179 = VERTEX_POINT ( 'NONE', #624 ) ;
#180 = ORIENTED_EDGE ( 'NONE', *, *, #566, .T. ) ;
#181 = DIRECTION ( 'NONE',  ( -1.000000000000000000, 0.000000000000000000, -0.000000000000000000 ) ) ;
#182 = FACE_OUTER_BOUND ( 'NONE', #48, .T. ) ;
#183 = ORIENTED_EDGE ( 'NONE', *, *, #463, .F. ) ;
#184 = ADVANCED_FACE ( 'NONE', ( #445 ), #686, .F. ) ;
#185 = VECTOR ( 'NONE', #45, 1000.000000000000000 ) ;
#186 = ORIENTED_EDGE ( 'NONE', *, *, #284, .F. ) ;
#187 = CARTESIAN_POINT ( 'NONE',  ( 92.48956697920040426, 8.000000000000000000, -98.42926394116740596 ) ) ;
#188 = VECTOR ( 'NONE', #280, 1000.000000000000114 ) ;
#189 = DIRECTION ( 'NONE',  ( 0.7071067811865474617, 0.000000000000000000, -0.7071067811865474617 ) ) ;
#190 = ORIENTED_EDGE ( 'NONE', *, *, #171, .T. ) ;
#191 = ORIENTED_EDGE ( 'NONE', *, *, #84, .F. ) ;
#192 = CARTESIAN_POINT ( 'NONE',  ( -5.656854249492344167, 8.000000000000000000, 5.656854249492346831 ) ) ;
#193 = ADVANCED_FACE ( 'NONE', ( #627 ), #565, .F. ) ;
#194 = EDGE_CURVE ( 'NONE', #241, #239, #573, .T. ) ;
#195 = DIRECTION ( 'NONE',  ( 0.7071067811865475727, 0.000000000000000000, 0.7071067811865475727 ) ) ;
#196 = VERTEX_POINT ( 'NONE', #692 ) ;
#197 = ORIENTED_EDGE ( 'NONE', *, *, #360, .T. ) ;
#198 = CARTESIAN_POINT ( 'NONE',  ( -5.656854249492384135, 0.000000000000000000, -5.656854249492384135 ) ) ;
#199 = EDGE_CURVE ( 'NONE', #557, #646, #152, .T. ) ;
#200 = VERTEX_POINT ( 'NONE', #231 ) ;
#201 = DIRECTION ( 'NONE',  ( 0.7071067811865474617, 0.000000000000000000, 0.7071067811865476838 ) ) ;
#202 = VECTOR ( 'NONE', #462, 1000.000000000000114 ) ;
#203 = VECTOR ( 'NONE', #497, 1000.000000000000114 ) ;
#204 = LINE ( 'NONE', #198, #771 ) ;
#205 = ORIENTED_EDGE ( 'NONE', *, *, #60, .F. ) ;
#206 = DIRECTION ( 'NONE',  ( -0.000000000000000000, 1.000000000000000000, -0.000000000000000000 ) ) ;
#207 = DIRECTION ( 'NONE',  ( 1.000000000000000000, -0.000000000000000000, 0.000000000000000000 ) ) ;
#208 = CARTESIAN_POINT ( 'NONE',  ( 103.9446968344224729, 0.000000000000000000, -115.2584053334072536 ) ) ;
#209 = LINE ( 'NONE', #757, #248 ) ;
#210 = VECTOR ( 'NONE', #640, 1000.000000000000000 ) ;
#211 = DIRECTION ( 'NONE',  ( -0.000000000000000000, 1.000000000000000000, -0.000000000000000000 ) ) ;
#212 = VECTOR ( 'NONE', #570, 1000.000000000000000 ) ;
#213 = FACE_OUTER_BOUND ( 'NONE', #475, .T. ) ;
#214 = LINE ( 'NONE', #456, #451 ) ;
#215 = EDGE_CURVE ( 'NONE', #374, #585, #50, .T. ) ;
#216 = DIRECTION ( 'NONE',  ( -0.7071067811865475727, 0.000000000000000000, -0.7071067811865475727 ) ) ;
#217 = LINE ( 'NONE', #759, #44 ) ;
#218 = CARTESIAN_POINT ( 'NONE',  ( -115.2584053334072252, 8.000000000000000000, -103.9446968344225155 ) ) ;
#219 = ORIENTED_EDGE ( 'NONE', *, *, #153, .F. ) ;
#220 = APPLICATION_CONTEXT ( 'automotive_design' ) ;
#221 = DIRECTION ( 'NONE',  ( 1.734723475976807094E-16, 0.000000000000000000, -1.000000000000000000 ) ) ;
#222 = LINE ( 'NONE', #406, #94 ) ;
#223 = ORIENTED_EDGE ( 'NONE', *, *, #78, .F. ) ;
#224 = VECTOR ( 'NONE', #337, 1000.000000000000000 ) ;
#225 = LINE ( 'NONE', #95, #543 ) ;
#226 = EDGE_CURVE ( 'NONE', #143, #549, #347, .T. ) ;
#227 = DIRECTION ( 'NONE',  ( 0.7071067811865474617, 0.000000000000000000, 0.7071067811865474617 ) ) ;
#228 = VERTEX_POINT ( 'NONE', #400 ) ;
#229 = ORIENTED_EDGE ( 'NONE', *, *, #144, .T. ) ;
#230 = FACE_OUTER_BOUND ( 'NONE', #721, .T. ) ;
#231 = CARTESIAN_POINT ( 'NONE',  ( 40.00000000000000000, 8.000000000000000000, -9.999999999999994671 ) ) ;
#232 = VERTEX_POINT ( 'NONE', #540 ) ;
#233 = CARTESIAN_POINT ( 'NONE',  ( -5.656854249492384135, 8.000000000000000000, -5.656854249492384135 ) ) ;
#234 = DIRECTION ( 'NONE',  ( -0.000000000000000000, -1.000000000000000000, -0.000000000000000000 ) ) ;
#235 = EDGE_CURVE ( 'NONE', #658, #239, #464, .T. ) ;
#236 = DIRECTION ( 'NONE',  ( 0.7071067811865474617, 0.000000000000000000, 0.7071067811865474617 ) ) ;
#237 = VECTOR ( 'NONE', #132, 999.9999999999998863 ) ;
#238 = VECTOR ( 'NONE', #404, 1000.000000000000000 ) ;
#239 = VERTEX_POINT ( 'NONE', #597 ) ;
#240 = DIRECTION ( 'NONE',  ( 0.7071067811865475727, 0.000000000000000000, -0.7071067811865475727 ) ) ;
#241 = VERTEX_POINT ( 'NONE', #774 ) ;
#242 = CARTESIAN_POINT ( 'NONE',  ( 0.000000000000000000, 8.000000000000000000, 0.000000000000000000 ) ) ;
#243 = EDGE_CURVE ( 'NONE', #561, #72, #357, .T. ) ;
#244 = VERTEX_POINT ( 'NONE', #417 ) ;
#245 = ORIENTED_EDGE ( 'NONE', *, *, #529, .F. ) ;
#246 = LINE ( 'NONE', #429, #137 ) ;
#247 = DIRECTION ( 'NONE',  ( -0.000000000000000000, 1.000000000000000000, -0.000000000000000000 ) ) ;
#248 = VECTOR ( 'NONE', #452, 1000.000000000000000 ) ;
#249 = ORIENTED_EDGE ( 'NONE', *, *, #60, .T. ) ;
#250 = LINE ( 'NONE', #192, #237 ) ;
#251 = DIRECTION ( 'NONE',  ( 0.7071067811865469066, 0.000000000000000000, -0.7071067811865481278 ) ) ;
#252 = ORIENTED_EDGE ( 'NONE', *, *, #114, .F. ) ;
#253 = ORIENTED_EDGE ( 'NONE', *, *, #304, .F. ) ;
#254 = DIRECTION ( 'NONE',  ( -0.7071067811865476838, 0.000000000000000000, 0.7071067811865474617 ) ) ;
#255 = EDGE_CURVE ( 'NONE', #593, #736, #159, .T. ) ;
#256 = FACE_OUTER_BOUND ( 'NONE', #733, .T. ) ;
#257 = ORIENTED_EDGE ( 'NONE', *, *, #725, .T. ) ;
#258 = CARTESIAN_POINT ( 'NONE',  ( 115.2584053334072394, 8.000000000000000000, -103.9446968344224871 ) ) ;
#259 = PLANE ( 'NONE',  #314 ) ;
#260 = ORIENTED_EDGE ( 'NONE', *, *, #304, .T. ) ;
#261 = LINE ( 'NONE', #148, #67 ) ;
#262 = VECTOR ( 'NONE', #517, 1000.000000000000000 ) ;
#263 =( GEOMETRIC_REPRESENTATION_CONTEXT ( 3 ) GLOBAL_UNCERTAINTY_ASSIGNED_CONTEXT ( ( #787 ) ) GLOBAL_UNIT_ASSIGNED_CONTEXT ( ( #359, #780, #536 ) ) REPRESENTATION_CONTEXT ( 'NONE', 'WORKASPACE' ) );
#264 = PLANE ( 'NONE',  #535 ) ;
#265 = ORIENTED_EDGE ( 'NONE', *, *, #670, .T. ) ;
#266 = CARTESIAN_POINT ( 'NONE',  ( 2.969848480983495964, 0.000000000000000000, -2.969848480983495964 ) ) ;
#267 =( LENGTH_UNIT ( ) NAMED_UNIT ( * ) SI_UNIT ( .MILLI., .METRE. ) );
#268 = DIRECTION ( 'NONE',  ( -0.000000000000000000, 1.000000000000000000, -0.000000000000000000 ) ) ;
#269 = ADVANCED_FACE ( 'NONE', ( #96 ), #770, .T. ) ;
#270 = CARTESIAN_POINT ( 'NONE',  ( -102.8133259845239991, 0.000000000000000000, -102.8133259845239991 ) ) ;
#271 = CARTESIAN_POINT ( 'NONE',  ( -5.656854249492384135, 8.000000000000000000, -5.656854249492384135 ) ) ;
#272 = CARTESIAN_POINT ( 'NONE',  ( 30.19999999999999929, 0.000000000000000000, 0.000000000000000000 ) ) ;
#273 = LINE ( 'NONE', #522, #754 ) ;
#274 = VECTOR ( 'NONE', #413, 1000.000000000000114 ) ;
#275 = VECTOR ( 'NONE', #361, 1000.000000000000114 ) ;
#276 = DIRECTION ( 'NONE',  ( -0.000000000000000000, -0.000000000000000000, 1.000000000000000000 ) ) ;
#277 = CARTESIAN_POINT ( 'NONE',  ( 0.000000000000000000, 8.000000000000000000, -9.999999999999994671 ) ) ;
#278 = VERTEX_POINT ( 'NONE', #591 ) ;
#279 = EDGE_CURVE ( 'NONE', #319, #323, #222, .T. ) ;
#280 = DIRECTION ( 'NONE',  ( -0.7071067811865474617, 0.000000000000000000, 0.7071067811865474617 ) ) ;
#281 = FACE_BOUND ( 'NONE', #41, .T. ) ;
#282 = CARTESIAN_POINT ( 'NONE',  ( 28.68629150101523351, 8.000000000000000000, -39.99999999999999289 ) ) ;
#283 = ORIENTED_EDGE ( 'NONE', *, *, #782, .F. ) ;
#284 = EDGE_CURVE ( 'NONE', #557, #382, #710, .T. ) ;
#285 = LINE ( 'NONE', #272, #592 ) ;
#286 = CARTESIAN_POINT ( 'NONE',  ( -30.19999999999999929, 8.000000000000000000, -30.19999999999999929 ) ) ;
#287 = ORIENTED_EDGE ( 'NONE', *, *, #694, .T. ) ;
#288 = VECTOR ( 'NONE', #521, 1000.000000000000000 ) ;
#289 = AXIS2_PLACEMENT_3D ( 'NONE', #647, #251, #618 ) ;
#290 = EDGE_CURVE ( 'NONE', #196, #558, #644, .T. ) ;
#291 = LINE ( 'NONE', #537, #274 ) ;
#292 = ORIENTED_EDGE ( 'NONE', *, *, #719, .F. ) ;
#293 = CARTESIAN_POINT ( 'NONE',  ( -99.84347750354051243, 0.000000000000000000, -105.7831744655075141 ) ) ;
#294 = EDGE_CURVE ( 'NONE', #244, #505, #40, .T. ) ;
#295 = CARTESIAN_POINT ( 'NONE',  ( 1.734723475976804925E-15, 8.000000000000000000, -9.999999999999987566 ) ) ;
#296 = DIRECTION ( 'NONE',  ( -0.7071067811865475727, 0.000000000000000000, 0.7071067811865475727 ) ) ;
#297 = SURFACE_STYLE_USAGE ( .BOTH. , #483 ) ;
#298 = VECTOR ( 'NONE', #317, 1000.000000000000114 ) ;
#299 = AXIS2_PLACEMENT_3D ( 'NONE', #381, #134, #376 ) ;
#300 = ORIENTED_EDGE ( 'NONE', *, *, #308, .F. ) ;
#301 = CARTESIAN_POINT ( 'NONE',  ( 98.42926394116740596, 0.000000000000000000, -92.48956697920040426 ) ) ;
#302 = EDGE_CURVE ( 'NONE', #56, #244, #473, .T. ) ;
#303 = CARTESIAN_POINT ( 'NONE',  ( 30.19999999999999929, 0.000000000000000000, -9.999999999999994671 ) ) ;
#304 = EDGE_CURVE ( 'NONE', #382, #374, #168, .T. ) ;
#305 = ORIENTED_EDGE ( 'NONE', *, *, #243, .T. ) ;
#306 = ORIENTED_EDGE ( 'NONE', *, *, #215, .F. ) ;
#307 = CARTESIAN_POINT ( 'NONE',  ( -109.6015510839150124, 8.000000000000000000, -109.6015510839147566 ) ) ;
#308 = EDGE_CURVE ( 'NONE', #72, #538, #291, .T. ) ;
#309 = DIRECTION ( 'NONE',  ( 0.7071067811865474617, 0.000000000000000000, -0.7071067811865474617 ) ) ;
#310 = ORIENTED_EDGE ( 'NONE', *, *, #482, .F. ) ;
#311 = ORIENTED_EDGE ( 'NONE', *, *, #169, .F. ) ;
#312 = CARTESIAN_POINT ( 'NONE',  ( 5.656854249492371700, 8.000000000000000000, -5.656854249492369924 ) ) ;
#313 = DIRECTION ( 'NONE',  ( 0.000000000000000000, 0.000000000000000000, 1.000000000000000000 ) ) ;
#314 = AXIS2_PLACEMENT_3D ( 'NONE', #142, #625, #384 ) ;
#315 = UNCERTAINTY_MEASURE_WITH_UNIT (LENGTH_MEASURE( 1.000000000000000082E-05 ), #267, 'distance_accuracy_value', 'NONE');
#316 = ORIENTED_EDGE ( 'NONE', *, *, #476, .F. ) ;
#317 = DIRECTION ( 'NONE',  ( 0.7071067811865474617, 0.000000000000000000, -0.7071067811865474617 ) ) ;
#318 = FACE_OUTER_BOUND ( 'NONE', #101, .T. ) ;
#319 = VERTEX_POINT ( 'NONE', #652 ) ;
#320 = VERTEX_POINT ( 'NONE', #111 ) ;
#321 = CARTESIAN_POINT ( 'NONE',  ( -40.00000000000000000, 0.000000000000000000, 9.251858538542967489E-15 ) ) ;
#322 = ORIENTED_EDGE ( 'NONE', *, *, #215, .T. ) ;
#323 = VERTEX_POINT ( 'NONE', #715 ) ;
#324 = CARTESIAN_POINT ( 'NONE',  ( 40.00000000000000000, 8.000000000000000000, -9.251858538542972222E-15 ) ) ;
#325 = CARTESIAN_POINT ( 'NONE',  ( -40.00000000000000711, 8.000000000000000000, -28.68629150101528680 ) ) ;
#326 = VERTEX_POINT ( 'NONE', #175 ) ;
#327 = CARTESIAN_POINT ( 'NONE',  ( -30.19999999999999929, 0.000000000000000000, -30.19999999999999929 ) ) ;
#328 = AXIS2_PLACEMENT_3D ( 'NONE', #270, #576, #145 ) ;
#329 = VECTOR ( 'NONE', #10, 1000.000000000000000 ) ;
#330 = CARTESIAN_POINT ( 'NONE',  ( 39.99999999999999289, 8.000000000000000000, -28.68629150101524061 ) ) ;
#331 = PLANE ( 'NONE',  #46 ) ;
#332 = DIRECTION ( 'NONE',  ( 2.312964634635743450E-16, 0.000000000000000000, 1.000000000000000000 ) ) ;
#333 = VERTEX_POINT ( 'NONE', #35 ) ;
#334 = LINE ( 'NONE', #575, #288 ) ;
#335 = DIRECTION ( 'NONE',  ( -0.7071067811865474617, 0.000000000000000000, -0.7071067811865474617 ) ) ;
#336 = CARTESIAN_POINT ( 'NONE',  ( -92.48956697920040426, 0.000000000000000000, -98.42926394116740596 ) ) ;
#337 = DIRECTION ( 'NONE',  ( 0.000000000000000000, -1.000000000000000000, 0.000000000000000000 ) ) ;
#338 = ORIENTED_EDGE ( 'NONE', *, *, #294, .T. ) ;
#339 = VECTOR ( 'NONE', #32, 1000.000000000000000 ) ;
#340 =( NAMED_UNIT ( * ) SI_UNIT ( $, .STERADIAN. ) SOLID_ANGLE_UNIT ( ) );
#341 = LINE ( 'NONE', #634, #202 ) ;
#342 = DIRECTION ( 'NONE',  ( 1.000000000000000000, 0.000000000000000000, 1.734723475976807094E-16 ) ) ;
#343 = ADVANCED_FACE ( 'NONE', ( #630, #530, #281 ), #151, .F. ) ;
#344 = EDGE_LOOP ( 'NONE', ( #373, #160, #436, #682, #498, #47, #76, #499, #422, #488, #287, #260, #322, #61 ) ) ;
#345 = PRODUCT_CONTEXT ( 'NONE', #654, 'mechanical' ) ;
#346 = DIRECTION ( 'NONE',  ( -0.7071067811865475727, 0.000000000000000000, 0.7071067811865475727 ) ) ;
#347 = LINE ( 'NONE', #282, #17 ) ;
#348 = ORIENTED_EDGE ( 'NONE', *, *, #360, .F. ) ;
#349 = EDGE_LOOP ( 'NONE', ( #190, #117, #729, #135 ) ) ;
#350 = EDGE_CURVE ( 'NONE', #179, #680, #643, .T. ) ;
#351 = CARTESIAN_POINT ( 'NONE',  ( 103.9446968344224729, 8.000000000000000000, -115.2584053334072536 ) ) ;
#352 = CARTESIAN_POINT ( 'NONE',  ( 92.48956697920040426, 0.000000000000000000, -98.42926394116740596 ) ) ;
#353 = VERTEX_POINT ( 'NONE', #525 ) ;
#354 = VECTOR ( 'NONE', #276, 1000.000000000000000 ) ;
#355 = VECTOR ( 'NONE', #236, 1000.000000000000114 ) ;
#356 = DIRECTION ( 'NONE',  ( -0.7071067811865474617, 0.000000000000000000, -0.7071067811865474617 ) ) ;
#357 = LINE ( 'NONE', #352, #467 ) ;
#358 = ORIENTED_EDGE ( 'NONE', *, *, #421, .T. ) ;
#359 =( LENGTH_UNIT ( ) NAMED_UNIT ( * ) SI_UNIT ( .MILLI., .METRE. ) );
#360 = EDGE_CURVE ( 'NONE', #333, #196, #334, .T. ) ;
#361 = DIRECTION ( 'NONE',  ( 0.7071067811865474617, 0.000000000000000000, -0.7071067811865474617 ) ) ;
#362 = ORIENTED_EDGE ( 'NONE', *, *, #419, .F. ) ;
#363 = DIRECTION ( 'NONE',  ( 0.7071067811865474617, 0.000000000000000000, -0.7071067811865474617 ) ) ;
#364 = VECTOR ( 'NONE', #3, 1000.000000000000000 ) ;
#365 = EDGE_LOOP ( 'NONE', ( #362, #223, #564, #786 ) ) ;
#366 = AXIS2_PLACEMENT_3D ( 'NONE', #271, #216, #524 ) ;
#367 = ORIENTED_EDGE ( 'NONE', *, *, #302, .T. ) ;
#368 = ADVANCED_FACE ( 'NONE', ( #763 ), #767, .F. ) ;
#369 = CARTESIAN_POINT ( 'NONE',  ( 30.19999999999999929, 0.000000000000000000, -30.19999999999999929 ) ) ;
#370 = ORIENTED_EDGE ( 'NONE', *, *, #124, .T. ) ;
#371 = LINE ( 'NONE', #553, #364 ) ;
#372 = CARTESIAN_POINT ( 'NONE',  ( 99.84347750354049822, 8.000000000000000000, -105.7831744655074999 ) ) ;
#373 = ORIENTED_EDGE ( 'NONE', *, *, #255, .F. ) ;
#374 = VERTEX_POINT ( 'NONE', #399 ) ;
#375 = VERTEX_POINT ( 'NONE', #30 ) ;
#376 = DIRECTION ( 'NONE',  ( 0.7071067811865474617, 0.000000000000000000, -0.7071067811865474617 ) ) ;
#377 = ORIENTED_EDGE ( 'NONE', *, *, #290, .F. ) ;
#378 = VECTOR ( 'NONE', #393, 1000.000000000000114 ) ;
#379 = PRESENTATION_LAYER_ASSIGNMENT (  '', '', ( #606 ) ) ;
#380 = ORIENTED_EDGE ( 'NONE', *, *, #778, .F. ) ;
#381 = CARTESIAN_POINT ( 'NONE',  ( -95.45941546018390511, 0.000000000000000000, -95.45941546018390511 ) ) ;
#382 = VERTEX_POINT ( 'NONE', #208 ) ;
#383 = DIRECTION ( 'NONE',  ( -0.7071067811865474617, 0.000000000000000000, -0.7071067811865474617 ) ) ;
#384 = DIRECTION ( 'NONE',  ( -0.7071067811865479058, 0.000000000000000000, -0.7071067811865470176 ) ) ;
#385 = EDGE_LOOP ( 'NONE', ( #750, #548, #180, #139 ) ) ;
#386 = LINE ( 'NONE', #28, #516 ) ;
#387 = DIRECTION ( 'NONE',  ( -2.312964634635741971E-16, 0.000000000000000000, -1.000000000000000000 ) ) ;
#388 = LINE ( 'NONE', #638, #354 ) ;
#389 = VECTOR ( 'NONE', #752, 1000.000000000000000 ) ;
#390 = DIRECTION ( 'NONE',  ( 0.7071067811865477948, 0.000000000000000000, 0.7071067811865473507 ) ) ;
#391 = AXIS2_PLACEMENT_3D ( 'NONE', #512, #221, #450 ) ;
#392 = VECTOR ( 'NONE', #55, 1000.000000000000000 ) ;
#393 = DIRECTION ( 'NONE',  ( 0.7071067811865474617, 0.000000000000000000, 0.7071067811865474617 ) ) ;
#394 = CARTESIAN_POINT ( 'NONE',  ( 92.48956697920040426, 0.000000000000000000, -98.42926394116740596 ) ) ;
#395 = DIRECTION ( 'NONE',  ( 1.000000000000000000, 0.000000000000000000, 0.000000000000000000 ) ) ;
#396 = FACE_OUTER_BOUND ( 'NONE', #423, .T. ) ;
#397 = CARTESIAN_POINT ( 'NONE',  ( 28.68629150101523351, 8.000000000000000000, -39.99999999999999289 ) ) ;
#398 = LINE ( 'NONE', #520, #519 ) ;
#399 = CARTESIAN_POINT ( 'NONE',  ( 115.2584053334072394, 0.000000000000000000, -103.9446968344224871 ) ) ;
#400 = CARTESIAN_POINT ( 'NONE',  ( 92.48956697920040426, 8.000000000000000000, -98.42926394116740596 ) ) ;
#401 = ORIENTED_EDGE ( 'NONE', *, *, #165, .F. ) ;
#402 = VECTOR ( 'NONE', #478, 1000.000000000000000 ) ;
#403 = PRODUCT_RELATED_PRODUCT_CATEGORY ( 'part', '', ( #681 ) ) ;
#404 = DIRECTION ( 'NONE',  ( -0.000000000000000000, 1.000000000000000000, -0.000000000000000000 ) ) ;
#405 = PLANE ( 'NONE',  #491 ) ;
#406 = CARTESIAN_POINT ( 'NONE',  ( -30.19999999999999929, 0.000000000000000000, -30.19999999999999929 ) ) ;
#407 = ORIENTED_EDGE ( 'NONE', *, *, #531, .F. ) ;
#408 = PLANE ( 'NONE',  #289 ) ;
#409 = DIRECTION ( 'NONE',  ( 0.7071067811865474617, 0.000000000000000000, -0.7071067811865474617 ) ) ;
#410 = ORIENTED_EDGE ( 'NONE', *, *, #454, .F. ) ;
#411 = PLANE ( 'NONE',  #81 ) ;
#412 = EDGE_CURVE ( 'NONE', #323, #241, #388, .T. ) ;
#413 = DIRECTION ( 'NONE',  ( 0.7071067811865474617, 0.000000000000000000, -0.7071067811865474617 ) ) ;
#414 = AXIS2_PLACEMENT_3D ( 'NONE', #583, #470, #409 ) ;
#415 = CARTESIAN_POINT ( 'NONE',  ( -115.2584053334072252, 8.000000000000000000, -103.9446968344225155 ) ) ;
#416 = EDGE_CURVE ( 'NONE', #561, #7, #217, .T. ) ;
#417 = CARTESIAN_POINT ( 'NONE',  ( 30.19999999999999929, 8.000000000000000000, -30.19999999999999929 ) ) ;
#418 = CARTESIAN_POINT ( 'NONE',  ( 99.84347750354049822, 0.000000000000000000, -105.7831744655074999 ) ) ;
#419 = EDGE_CURVE ( 'NONE', #672, #668, #39, .T. ) ;
#420 = ORIENTED_EDGE ( 'NONE', *, *, #21, .T. ) ;
#421 = EDGE_CURVE ( 'NONE', #200, #772, #225, .T. ) ;
#422 = ORIENTED_EDGE ( 'NONE', *, *, #171, .F. ) ;
#423 = EDGE_LOOP ( 'NONE', ( #612, #283, #19, #766 ) ) ;
#424 = DIRECTION ( 'NONE',  ( 0.000000000000000000, 0.000000000000000000, -1.000000000000000000 ) ) ;
#425 = CARTESIAN_POINT ( 'NONE',  ( -103.9446968344224729, 0.000000000000000000, -115.2584053334072678 ) ) ;
#426 = ORIENTED_EDGE ( 'NONE', *, *, #614, .T. ) ;
#427 = VECTOR ( 'NONE', #776, 1000.000000000000000 ) ;
#428 = ORIENTED_EDGE ( 'NONE', *, *, #628, .T. ) ;
#429 = CARTESIAN_POINT ( 'NONE',  ( 1.734723475976804925E-15, 0.000000000000000000, -9.999999999999987566 ) ) ;
#430 = CARTESIAN_POINT ( 'NONE',  ( 105.7831744655074999, 8.000000000000000000, -99.84347750354049822 ) ) ;
#431 = EDGE_LOOP ( 'NONE', ( #448, #170, #568, #119 ) ) ;
#432 = EDGE_LOOP ( 'NONE', ( #642, #711, #765, #11 ) ) ;
#433 = CARTESIAN_POINT ( 'NONE',  ( 99.84347750354049822, 0.000000000000000000, -105.7831744655074999 ) ) ;
#434 = FACE_OUTER_BOUND ( 'NONE', #728, .T. ) ;
#435 = EDGE_CURVE ( 'NONE', #646, #772, #341, .T. ) ;
#436 = ORIENTED_EDGE ( 'NONE', *, *, #279, .T. ) ;
#437 = LINE ( 'NONE', #141, #29 ) ;
#438 = CARTESIAN_POINT ( 'NONE',  ( -92.48956697920040426, 8.000000000000000000, -98.42926394116740596 ) ) ;
#439 = EDGE_LOOP ( 'NONE', ( #662, #401, #598, #508 ) ) ;
#440 = VECTOR ( 'NONE', #100, 1000.000000000000000 ) ;
#441 = VECTOR ( 'NONE', #247, 1000.000000000000000 ) ;
#442 = PLANE ( 'NONE',  #534 ) ;
#443 = PLANE ( 'NONE',  #666 ) ;
#444 = ORIENTED_EDGE ( 'NONE', *, *, #758, .T. ) ;
#445 = FACE_OUTER_BOUND ( 'NONE', #674, .T. ) ;
#446 = EDGE_CURVE ( 'NONE', #505, #239, #702, .T. ) ;
#447 = LINE ( 'NONE', #688, #743 ) ;
#448 = ORIENTED_EDGE ( 'NONE', *, *, #21, .F. ) ;
#449 = CARTESIAN_POINT ( 'NONE',  ( 0.000000000000000000, 0.000000000000000000, 0.000000000000000000 ) ) ;
#450 = DIRECTION ( 'NONE',  ( -1.000000000000000000, 0.000000000000000000, -1.734723475976807094E-16 ) ) ;
#451 = VECTOR ( 'NONE', #696, 1000.000000000000114 ) ;
#452 = DIRECTION ( 'NONE',  ( 2.312964634635741971E-16, 0.000000000000000000, 1.000000000000000000 ) ) ;
#453 = VECTOR ( 'NONE', #115, 1000.000000000000000 ) ;
#454 = EDGE_CURVE ( 'NONE', #333, #320, #163, .T. ) ;
#455 = DIRECTION ( 'NONE',  ( 0.000000000000000000, 1.000000000000000000, -0.000000000000000000 ) ) ;
#456 = CARTESIAN_POINT ( 'NONE',  ( -95.45941546018390511, 8.000000000000000000, -95.45941546018390511 ) ) ;
#457 = CARTESIAN_POINT ( 'NONE',  ( -102.8133259845239991, 0.000000000000000000, -102.8133259845239991 ) ) ;
#458 = DIRECTION ( 'NONE',  ( 0.7071067811865474617, 0.000000000000000000, -0.7071067811865474617 ) ) ;
#459 = ADVANCED_FACE ( 'NONE', ( #396 ), #405, .F. ) ;
#460 = DIRECTION ( 'NONE',  ( -1.000000000000000000, 0.000000000000000000, -1.734723475976807094E-16 ) ) ;
#461 = ORIENTED_EDGE ( 'NONE', *, *, #84, .T. ) ;
#462 = DIRECTION ( 'NONE',  ( -0.7071067811865474617, 0.000000000000000000, 0.7071067811865474617 ) ) ;
#463 = EDGE_CURVE ( 'NONE', #593, #319, #285, .T. ) ;
#464 = LINE ( 'NONE', #295, #479 ) ;
#465 = ORIENTED_EDGE ( 'NONE', *, *, #294, .F. ) ;
#466 = ORIENTED_EDGE ( 'NONE', *, *, #596, .F. ) ;
#467 = VECTOR ( 'NONE', #227, 1000.000000000000114 ) ;
#468 = CARTESIAN_POINT ( 'NONE',  ( 28.68629150101523351, 0.000000000000000000, -39.99999999999999289 ) ) ;
#469 = EDGE_CURVE ( 'NONE', #228, #375, #687, .T. ) ;
#470 = DIRECTION ( 'NONE',  ( 0.7071067811865475727, 0.000000000000000000, 0.7071067811865475727 ) ) ;
#471 = ORIENTED_EDGE ( 'NONE', *, *, #65, .T. ) ;
#472 = LINE ( 'NONE', #595, #453 ) ;
#473 = LINE ( 'NONE', #713, #185 ) ;
#474 = ADVANCED_FACE ( 'NONE', ( #213 ), #331, .F. ) ;
#475 = EDGE_LOOP ( 'NONE', ( #747, #779, #166, #97 ) ) ;
#476 = EDGE_CURVE ( 'NONE', #660, #708, #89, .T. ) ;
#477 = CARTESIAN_POINT ( 'NONE',  ( 99.84347750354049822, 0.000000000000000000, -105.7831744655074999 ) ) ;
#478 = DIRECTION ( 'NONE',  ( 0.7071067811865480168, 0.000000000000000000, 0.7071067811865470176 ) ) ;
#479 = VECTOR ( 'NONE', #342, 1000.000000000000000 ) ;
#480 = CARTESIAN_POINT ( 'NONE',  ( 92.48956697920040426, 0.000000000000000000, -98.42926394116740596 ) ) ;
#481 = VERTEX_POINT ( 'NONE', #691 ) ;
#482 = EDGE_CURVE ( 'NONE', #772, #585, #173, .T. ) ;
#483 = SURFACE_SIDE_STYLE ('',( #113 ) ) ;
#484 = ORIENTED_EDGE ( 'NONE', *, *, #454, .T. ) ;
#485 = CARTESIAN_POINT ( 'NONE',  ( 0.000000000000000000, 8.000000000000000000, -9.999999999999994671 ) ) ;
#486 = LINE ( 'NONE', #551, #556 ) ;
#487 = ORIENTED_EDGE ( 'NONE', *, *, #678, .F. ) ;
#488 = ORIENTED_EDGE ( 'NONE', *, *, #144, .F. ) ;
#489 = LINE ( 'NONE', #723, #619 ) ;
#490 = DIRECTION ( 'NONE',  ( 0.000000000000000000, 0.000000000000000000, -1.000000000000000000 ) ) ;
#491 = AXIS2_PLACEMENT_3D ( 'NONE', #577, #346, #587 ) ;
#492 =( GEOMETRIC_REPRESENTATION_CONTEXT ( 3 ) GLOBAL_UNCERTAINTY_ASSIGNED_CONTEXT ( ( #315 ) ) GLOBAL_UNIT_ASSIGNED_CONTEXT ( ( #267, #93, #340 ) ) REPRESENTATION_CONTEXT ( 'NONE', 'WORKASPACE' ) );
#493 = EDGE_LOOP ( 'NONE', ( #377, #348, #484, #428 ) ) ;
#494 = VECTOR ( 'NONE', #514, 1000.000000000000114 ) ;
#495 = ORIENTED_EDGE ( 'NONE', *, *, #435, .T. ) ;
#496 = LINE ( 'NONE', #187, #298 ) ;
#497 = DIRECTION ( 'NONE',  ( -0.7071067811865466846, 0.000000000000000000, 0.7071067811865483499 ) ) ;
#498 = ORIENTED_EDGE ( 'NONE', *, *, #74, .F. ) ;
#499 = ORIENTED_EDGE ( 'NONE', *, *, #725, .F. ) ;
#500 = PLANE ( 'NONE',  #631 ) ;
#501 = CARTESIAN_POINT ( 'NONE',  ( -92.48956697920040426, 0.000000000000000000, -98.42926394116740596 ) ) ;
#502 = EDGE_LOOP ( 'NONE', ( #623, #775, #656, #410 ) ) ;
#503 = FACE_OUTER_BOUND ( 'NONE', #349, .T. ) ;
#504 = LINE ( 'NONE', #325, #329 ) ;
#505 = VERTEX_POINT ( 'NONE', #714 ) ;
#506 = VECTOR ( 'NONE', #532, 1000.000000000000000 ) ;
#507 = LINE ( 'NONE', #218, #339 ) ;
#508 = ORIENTED_EDGE ( 'NONE', *, *, #758, .F. ) ;
#509 = DIRECTION ( 'NONE',  ( -0.7071067811865474617, 0.000000000000000000, -0.7071067811865476838 ) ) ;
#510 = ORIENTED_EDGE ( 'NONE', *, *, #51, .F. ) ;
#511 = CARTESIAN_POINT ( 'NONE',  ( -40.00000000000000000, 8.000000000000000000, 9.251858538542967489E-15 ) ) ;
#512 = CARTESIAN_POINT ( 'NONE',  ( 1.734723475976804925E-15, 8.000000000000000000, -9.999999999999987566 ) ) ;
#513 = CARTESIAN_POINT ( 'NONE',  ( 2.969848480983495964, 8.000000000000000000, -2.969848480983495964 ) ) ;
#514 = DIRECTION ( 'NONE',  ( -0.7071067811865474617, 0.000000000000000000, 0.7071067811865474617 ) ) ;
#515 = DIRECTION ( 'NONE',  ( 0.000000000000000000, -0.000000000000000000, -1.000000000000000000 ) ) ;
#516 = VECTOR ( 'NONE', #509, 1000.000000000000000 ) ;
#517 = DIRECTION ( 'NONE',  ( -0.000000000000000000, 1.000000000000000000, -0.000000000000000000 ) ) ;
#518 = ADVANCED_FACE ( 'NONE', ( #542 ), #49, .T. ) ;
#519 = VECTOR ( 'NONE', #211, 1000.000000000000000 ) ;
#520 = CARTESIAN_POINT ( 'NONE',  ( 98.42926394116740596, 0.000000000000000000, -92.48956697920040426 ) ) ;
#521 = DIRECTION ( 'NONE',  ( -0.000000000000000000, 1.000000000000000000, -0.000000000000000000 ) ) ;
#522 = CARTESIAN_POINT ( 'NONE',  ( 105.7831744655074999, 0.000000000000000000, -99.84347750354049822 ) ) ;
#523 = ORIENTED_EDGE ( 'NONE', *, *, #302, .F. ) ;
#524 = DIRECTION ( 'NONE',  ( -0.7071067811865474617, 0.000000000000000000, 0.7071067811865474617 ) ) ;
#525 = CARTESIAN_POINT ( 'NONE',  ( -99.84347750354051243, 8.000000000000000000, -105.7831744655074857 ) ) ;
#526 = DIRECTION ( 'NONE',  ( -1.000000000000000000, -0.000000000000000000, -0.000000000000000000 ) ) ;
#527 = VERTEX_POINT ( 'NONE', #293 ) ;
#528 = ORIENTED_EDGE ( 'NONE', *, *, #226, .T. ) ;
#529 = EDGE_CURVE ( 'NONE', #333, #660, #539, .T. ) ;
#530 = FACE_BOUND ( 'NONE', #502, .T. ) ;
#531 = EDGE_CURVE ( 'NONE', #658, #481, #599, .T. ) ;
#532 = DIRECTION ( 'NONE',  ( -1.000000000000000000, -0.000000000000000000, -0.000000000000000000 ) ) ;
#533 = EDGE_LOOP ( 'NONE', ( #444, #788, #380, #626 ) ) ;
#534 = AXIS2_PLACEMENT_3D ( 'NONE', #734, #604, #669 ) ;
#535 = AXIS2_PLACEMENT_3D ( 'NONE', #511, #26, #387 ) ;
#536 =( NAMED_UNIT ( * ) SI_UNIT ( $, .STERADIAN. ) SOLID_ANGLE_UNIT ( ) );
#537 = CARTESIAN_POINT ( 'NONE',  ( 98.42926394116740596, 0.000000000000000000, -92.48956697920040426 ) ) ;
#538 = VERTEX_POINT ( 'NONE', #177 ) ;
#539 = LINE ( 'NONE', #42, #18 ) ;
#540 = CARTESIAN_POINT ( 'NONE',  ( -115.2584053334072252, 0.000000000000000000, -103.9446968344225155 ) ) ;
#541 = ADVANCED_FACE ( 'NONE', ( #230 ), #411, .F. ) ;
#542 = FACE_OUTER_BOUND ( 'NONE', #365, .T. ) ;
#543 = VECTOR ( 'NONE', #99, 1000.000000000000000 ) ;
#544 = VECTOR ( 'NONE', #740, 1000.000000000000000 ) ;
#545 = PRESENTATION_STYLE_ASSIGNMENT (( #297 ) ) ;
#546 = VERTEX_POINT ( 'NONE', #415 ) ;
#547 = CARTESIAN_POINT ( 'NONE',  ( 2.969848480983495964, 0.000000000000000000, -2.969848480983495964 ) ) ;
#548 = ORIENTED_EDGE ( 'NONE', *, *, #226, .F. ) ;
#549 = VERTEX_POINT ( 'NONE', #468 ) ;
#550 = CARTESIAN_POINT ( 'NONE',  ( 30.19999999999999929, 8.000000000000000000, -9.999999999999994671 ) ) ;
#551 = CARTESIAN_POINT ( 'NONE',  ( 98.42926394116740596, 8.000000000000000000, -92.48956697920040426 ) ) ;
#552 = ORIENTED_EDGE ( 'NONE', *, *, #194, .T. ) ;
#553 = CARTESIAN_POINT ( 'NONE',  ( 99.84347750354049822, 0.000000000000000000, -105.7831744655074999 ) ) ;
#554 = LINE ( 'NONE', #6, #203 ) ;
#555 = VECTOR ( 'NONE', #207, 1000.000000000000000 ) ;
#556 = VECTOR ( 'NONE', #189, 1000.000000000000114 ) ;
#557 = VERTEX_POINT ( 'NONE', #351 ) ;
#558 = VERTEX_POINT ( 'NONE', #104 ) ;
#559 = DIRECTION ( 'NONE',  ( -0.000000000000000000, -1.000000000000000000, -0.000000000000000000 ) ) ;
#560 = CARTESIAN_POINT ( 'NONE',  ( -109.6015510839150124, 8.000000000000000000, -109.6015510839147566 ) ) ;
#561 = VERTEX_POINT ( 'NONE', #480 ) ;
#562 = FACE_OUTER_BOUND ( 'NONE', #621, .T. ) ;
#563 = CARTESIAN_POINT ( 'NONE',  ( 6.938893903907228378E-15, 8.000000000000000000, -40.00000000000000000 ) ) ;
#564 = ORIENTED_EDGE ( 'NONE', *, *, #596, .T. ) ;
#565 = PLANE ( 'NONE',  #781 ) ;
#566 = EDGE_CURVE ( 'NONE', #143, #557, #655, .T. ) ;
#567 = FACE_BOUND ( 'NONE', #126, .T. ) ;
#568 = ORIENTED_EDGE ( 'NONE', *, *, #416, .T. ) ;
#569 = DIRECTION ( 'NONE',  ( 0.000000000000000000, 0.000000000000000000, -1.000000000000000000 ) ) ;
#570 = DIRECTION ( 'NONE',  ( 2.312964634635741971E-16, 0.000000000000000000, 1.000000000000000000 ) ) ;
#571 = DIRECTION ( 'NONE',  ( -1.000000000000000000, 0.000000000000000000, -0.000000000000000000 ) ) ;
#572 = MANIFOLD_SOLID_BREP ( '\X2\52079664\X0\-\X2\62c94f38\X0\2', #149 ) ;
#573 = LINE ( 'NONE', #25, #389 ) ;
#574 = ORIENTED_EDGE ( 'NONE', *, *, #784, .F. ) ;
#575 = CARTESIAN_POINT ( 'NONE',  ( -98.42926394116740596, 0.000000000000000000, -92.48956697920040426 ) ) ;
#576 = DIRECTION ( 'NONE',  ( -0.7071067811865475727, 0.000000000000000000, -0.7071067811865475727 ) ) ;
#577 = CARTESIAN_POINT ( 'NONE',  ( 92.48956697920040426, 0.000000000000000000, -98.42926394116740596 ) ) ;
#578 = VECTOR ( 'NONE', #335, 1000.000000000000114 ) ;
#579 = CARTESIAN_POINT ( 'NONE',  ( -99.84347750354051243, 0.000000000000000000, -105.7831744655075141 ) ) ;
#580 = ORIENTED_EDGE ( 'NONE', *, *, #308, .T. ) ;
#581 = FACE_OUTER_BOUND ( 'NONE', #385, .T. ) ;
#582 = DIRECTION ( 'NONE',  ( -0.000000000000000000, -1.000000000000000000, -0.000000000000000000 ) ) ;
#583 = CARTESIAN_POINT ( 'NONE',  ( 92.48956697920040426, 0.000000000000000000, -98.42926394116740596 ) ) ;
#584 = ORIENTED_EDGE ( 'NONE', *, *, #435, .F. ) ;
#585 = VERTEX_POINT ( 'NONE', #167 ) ;
#586 = ADVANCED_FACE ( 'NONE', ( #118 ), #773, .T. ) ;
#587 = DIRECTION ( 'NONE',  ( 0.7071067811865474617, 0.000000000000000000, 0.7071067811865474617 ) ) ;
#588 = CARTESIAN_POINT ( 'NONE',  ( -2.969848480983415140, 8.000000000000000000, 2.969848480983420913 ) ) ;
#589 = ORIENTED_EDGE ( 'NONE', *, *, #600, .T. ) ;
#590 = DIRECTION ( 'NONE',  ( 0.7071067811865474617, 0.000000000000000000, 0.7071067811865474617 ) ) ;
#591 = CARTESIAN_POINT ( 'NONE',  ( -40.00000000000000711, 8.000000000000000000, -28.68629150101528680 ) ) ;
#592 = VECTOR ( 'NONE', #515, 1000.000000000000000 ) ;
#593 = VERTEX_POINT ( 'NONE', #303 ) ;
#594 = PRODUCT_DEFINITION_CONTEXT ( 'detailed design', #220, 'design' ) ;
#595 = CARTESIAN_POINT ( 'NONE',  ( 40.00000000000000000, 0.000000000000000000, -9.251858538542972222E-15 ) ) ;
#596 = EDGE_CURVE ( 'NONE', #7, #538, #718, .T. ) ;
#597 = CARTESIAN_POINT ( 'NONE',  ( -30.19999999999999929, 8.000000000000000000, -9.999999999999994671 ) ) ;
#598 = ORIENTED_EDGE ( 'NONE', *, *, #290, .T. ) ;
#599 = LINE ( 'NONE', #52, #427 ) ;
#600 = EDGE_CURVE ( 'NONE', #736, #585, #472, .T. ) ;
#601 = ADVANCED_FACE ( 'NONE', ( #709 ), #408, .T. ) ;
#602 = CARTESIAN_POINT ( 'NONE',  ( 39.99999999999999289, 8.000000000000000000, -28.68629150101524061 ) ) ;
#603 = ORIENTED_EDGE ( 'NONE', *, *, #169, .T. ) ;
#604 = DIRECTION ( 'NONE',  ( -1.734723475976807094E-16, 0.000000000000000000, 1.000000000000000000 ) ) ;
#605 = AXIS2_PLACEMENT_3D ( 'NONE', #312, #254, #201 ) ;
#606 = STYLED_ITEM ( 'NONE', ( #545 ), #572 ) ;
#607 = DIRECTION ( 'NONE',  ( 0.7071067811865474617, 0.000000000000000000, -0.7071067811865474617 ) ) ;
#608 = ORIENTED_EDGE ( 'NONE', *, *, #782, .T. ) ;
#609 = EDGE_LOOP ( 'NONE', ( #306, #205, #495, #617 ) ) ;
#610 = LINE ( 'NONE', #258, #730 ) ;
#611 = CARTESIAN_POINT ( 'NONE',  ( -105.7831744655075283, 0.000000000000000000, -99.84347750354049822 ) ) ;
#612 = ORIENTED_EDGE ( 'NONE', *, *, #469, .T. ) ;
#613 = DIRECTION ( 'NONE',  ( 0.7071067811865483499, -0.000000000000000000, 0.7071067811865466846 ) ) ;
#614 = EDGE_CURVE ( 'NONE', #319, #244, #735, .T. ) ;
#615 = FACE_BOUND ( 'NONE', #439, .T. ) ;
#616 = ADVANCED_FACE ( 'NONE', ( #256 ), #259, .T. ) ;
#617 = ORIENTED_EDGE ( 'NONE', *, *, #482, .T. ) ;
#618 = DIRECTION ( 'NONE',  ( -0.7071067811865481278, 0.000000000000000000, -0.7071067811865469066 ) ) ;
#619 = VECTOR ( 'NONE', #12, 1000.000000000000000 ) ;
#620 = ORIENTED_EDGE ( 'NONE', *, *, #739, .T. ) ;
#621 = EDGE_LOOP ( 'NONE', ( #257, #311, #38, #641 ) ) ;
#622 = CARTESIAN_POINT ( 'NONE',  ( 40.00000000000000000, 0.000000000000000000, -9.999999999999994671 ) ) ;
#623 = ORIENTED_EDGE ( 'NONE', *, *, #529, .T. ) ;
#624 = CARTESIAN_POINT ( 'NONE',  ( -103.9446968344224729, 8.000000000000000000, -115.2584053334072678 ) ) ;
#625 = DIRECTION ( 'NONE',  ( 0.7071067811865471286, 0.000000000000000000, -0.7071067811865480168 ) ) ;
#626 = ORIENTED_EDGE ( 'NONE', *, *, #155, .T. ) ;
#627 = FACE_OUTER_BOUND ( 'NONE', #106, .T. ) ;
#628 = EDGE_CURVE ( 'NONE', #320, #558, #13, .T. ) ;
#629 = CARTESIAN_POINT ( 'NONE',  ( -102.8133259845239991, 8.000000000000000000, -102.8133259845239991 ) ) ;
#630 = FACE_OUTER_BOUND ( 'NONE', #344, .T. ) ;
#631 = AXIS2_PLACEMENT_3D ( 'NONE', #485, #424, #181 ) ;
#632 = AXIS2_PLACEMENT_3D ( 'NONE', #449, #693, #395 ) ;
#633 = LINE ( 'NONE', #277, #555 ) ;
#634 = CARTESIAN_POINT ( 'NONE',  ( 5.656854249492384135, 8.000000000000000000, 5.656854249492384135 ) ) ;
#635 = LINE ( 'NONE', #91, #109 ) ;
#636 = CARTESIAN_POINT ( 'NONE',  ( -30.19999999999999929, 0.000000000000000000, 30.19999999999999929 ) ) ;
#637 = LINE ( 'NONE', #73, #224 ) ;
#638 = CARTESIAN_POINT ( 'NONE',  ( -30.19999999999999929, 0.000000000000000000, 30.19999999999999929 ) ) ;
#639 = VECTOR ( 'NONE', #648, 1000.000000000000000 ) ;
#640 = DIRECTION ( 'NONE',  ( 1.000000000000000000, -0.000000000000000000, 0.000000000000000000 ) ) ;
#641 = ORIENTED_EDGE ( 'NONE', *, *, #350, .T. ) ;
#642 = ORIENTED_EDGE ( 'NONE', *, *, #116, .F. ) ;
#643 = LINE ( 'NONE', #85, #690 ) ;
#644 = LINE ( 'NONE', #588, #639 ) ;
#645 = ORIENTED_EDGE ( 'NONE', *, *, #235, .T. ) ;
#646 = VERTEX_POINT ( 'NONE', #75 ) ;
#647 = CARTESIAN_POINT ( 'NONE',  ( -2.969848480983415140, 0.000000000000000000, 2.969848480983420913 ) ) ;
#648 = DIRECTION ( 'NONE',  ( -0.7071067811865482389, 0.000000000000000000, -0.7071067811865469066 ) ) ;
#649 = ORIENTED_EDGE ( 'NONE', *, *, #678, .T. ) ;
#650 = ORIENTED_EDGE ( 'NONE', *, *, #103, .T. ) ;
#651 = FILL_AREA_STYLE_COLOUR ( '', #653 ) ;
#652 = CARTESIAN_POINT ( 'NONE',  ( 30.19999999999999929, 0.000000000000000000, -30.19999999999999929 ) ) ;
#653 = COLOUR_RGB ( '',0.7921568627450980005, 0.8196078431372548767, 0.9333333333333333481 ) ;
#654 = APPLICATION_CONTEXT ( 'automotive_design' ) ;
#655 = LINE ( 'NONE', #233, #275 ) ;
#656 = ORIENTED_EDGE ( 'NONE', *, *, #778, .T. ) ;
#657 = EDGE_CURVE ( 'NONE', #278, #712, #504, .T. ) ;
#658 = VERTEX_POINT ( 'NONE', #742 ) ;
#659 = FILL_AREA_STYLE ('',( #651 ) ) ;
#660 = VERTEX_POINT ( 'NONE', #501 ) ;
#661 = ADVANCED_FACE ( 'NONE', ( #182 ), #138, .F. ) ;
#662 = ORIENTED_EDGE ( 'NONE', *, *, #124, .F. ) ;
#663 = DIRECTION ( 'NONE',  ( 0.7071067811865466846, 0.000000000000000000, -0.7071067811865483499 ) ) ;
#664 = ADVANCED_FACE ( 'NONE', ( #318 ), #443, .F. ) ;
#665 = VECTOR ( 'NONE', #383, 1000.000000000000114 ) ;
#666 = AXIS2_PLACEMENT_3D ( 'NONE', #724, #68, #490 ) ;
#667 = LINE ( 'NONE', #560, #679 ) ;
#668 = VERTEX_POINT ( 'NONE', #430 ) ;
#669 = DIRECTION ( 'NONE',  ( 1.000000000000000000, 0.000000000000000000, 1.734723475976807094E-16 ) ) ;
#670 = EDGE_CURVE ( 'NONE', #179, #546, #667, .T. ) ;
#671 = FACE_OUTER_BOUND ( 'NONE', #130, .T. ) ;
#672 = VERTEX_POINT ( 'NONE', #372 ) ;
#673 = PLANE ( 'NONE',  #299 ) ;
#674 = EDGE_LOOP ( 'NONE', ( #589, #310, #102, #471 ) ) ;
#675 = ORIENTED_EDGE ( 'NONE', *, *, #476, .T. ) ;
#676 = CARTESIAN_POINT ( 'NONE',  ( -40.00000000000000711, 0.000000000000000000, -28.68629150101528680 ) ) ;
#677 = VECTOR ( 'NONE', #156, 1000.000000000000000 ) ;
#678 = EDGE_CURVE ( 'NONE', #143, #326, #684, .T. ) ;
#679 = VECTOR ( 'NONE', #59, 1000.000000000000114 ) ;
#680 = VERTEX_POINT ( 'NONE', #425 ) ;
#681 = PRODUCT ( '\X2\4e2d5fc3677f\X0\', '\X2\4e2d5fc3677f\X0\', '', ( #345 ) ) ;
#682 = ORIENTED_EDGE ( 'NONE', *, *, #412, .T. ) ;
#683 = PRODUCT_DEFINITION ( 'æœ', '', #174, #594 ) ;
#684 = LINE ( 'NONE', #563, #544 ) ;
#685 = ORIENTED_EDGE ( 'NONE', *, *, #416, .F. ) ;
#686 = PLANE ( 'NONE',  #704 ) ;
#687 = LINE ( 'NONE', #147, #4 ) ;
#688 = CARTESIAN_POINT ( 'NONE',  ( 5.656854249492371700, 0.000000000000000000, -5.656854249492369924 ) ) ;
#689 = SHAPE_DEFINITION_REPRESENTATION ( #176, #86 ) ;
#690 = VECTOR ( 'NONE', #582, 1000.000000000000000 ) ;
#691 = CARTESIAN_POINT ( 'NONE',  ( -40.00000000000000000, 0.000000000000000000, -9.999999999999994671 ) ) ;
#692 = CARTESIAN_POINT ( 'NONE',  ( -98.42926394116740596, 8.000000000000000000, -92.48956697920040426 ) ) ;
#693 = DIRECTION ( 'NONE',  ( 0.000000000000000000, 0.000000000000000000, 1.000000000000000000 ) ) ;
#694 = EDGE_CURVE ( 'NONE', #549, #382, #204, .T. ) ;
#695 = CARTESIAN_POINT ( 'NONE',  ( 0.000000000000000000, 0.000000000000000000, 0.000000000000000000 ) ) ;
#696 = DIRECTION ( 'NONE',  ( 0.7071067811865474617, 0.000000000000000000, -0.7071067811865474617 ) ) ;
#697 = DIRECTION ( 'NONE',  ( -0.7071067811865477948, 0.000000000000000000, -0.7071067811865473507 ) ) ;
#698 = CARTESIAN_POINT ( 'NONE',  ( -30.19999999999999929, 8.000000000000000000, 30.19999999999999929 ) ) ;
#699 = LINE ( 'NONE', #394, #262 ) ;
#700 = ORIENTED_EDGE ( 'NONE', *, *, #199, .F. ) ;
#701 = LINE ( 'NONE', #22, #238 ) ;
#702 = LINE ( 'NONE', #698, #162 ) ;
#703 = ADVANCED_FACE ( 'NONE', ( #671, #615, #567 ), #63, .T. ) ;
#704 = AXIS2_PLACEMENT_3D ( 'NONE', #324, #77, #332 ) ;
#705 = CARTESIAN_POINT ( 'NONE',  ( 0.000000000000000000, 0.000000000000000000, -9.999999999999994671 ) ) ;
#706 = AXIS2_PLACEMENT_3D ( 'NONE', #108, #785, #363 ) ;
#707 = ORIENTED_EDGE ( 'NONE', *, *, #74, .T. ) ;
#708 = VERTEX_POINT ( 'NONE', #438 ) ;
#709 = FACE_OUTER_BOUND ( 'NONE', #493, .T. ) ;
#710 = LINE ( 'NONE', #764, #120 ) ;
#711 = ORIENTED_EDGE ( 'NONE', *, *, #107, .T. ) ;
#712 = VERTEX_POINT ( 'NONE', #676 ) ;
#713 = CARTESIAN_POINT ( 'NONE',  ( 30.19999999999999929, 8.000000000000000000, 30.19999999999999929 ) ) ;
#714 = CARTESIAN_POINT ( 'NONE',  ( -30.19999999999999929, 8.000000000000000000, -30.19999999999999929 ) ) ;
#715 = CARTESIAN_POINT ( 'NONE',  ( -30.19999999999999929, 0.000000000000000000, -30.19999999999999929 ) ) ;
#716 = AXIS2_PLACEMENT_3D ( 'NONE', #695, #455, #751 ) ;
#717 = VECTOR ( 'NONE', #268, 1000.000000000000000 ) ;
#718 = LINE ( 'NONE', #418, #355 ) ;
#719 = EDGE_CURVE ( 'NONE', #375, #668, #486, .T. ) ;
#720 = ORIENTED_EDGE ( 'NONE', *, *, #469, .F. ) ;
#721 = EDGE_LOOP ( 'NONE', ( #370, #92, #252, #675 ) ) ;
#722 = ORIENTED_EDGE ( 'NONE', *, *, #657, .F. ) ;
#723 = CARTESIAN_POINT ( 'NONE',  ( -28.68629150101525838, 8.000000000000000000, -40.00000000000000711 ) ) ;
#724 = CARTESIAN_POINT ( 'NONE',  ( 30.19999999999999929, 0.000000000000000000, 30.19999999999999929 ) ) ;
#725 = EDGE_CURVE ( 'NONE', #680, #232, #554, .T. ) ;
#726 = ORIENTED_EDGE ( 'NONE', *, *, #719, .T. ) ;
#727 = ADVANCED_FACE ( 'NONE', ( #434 ), #673, .F. ) ;
#728 = EDGE_LOOP ( 'NONE', ( #737, #316, #245, #197 ) ) ;
#729 = ORIENTED_EDGE ( 'NONE', *, *, #140, .F. ) ;
#730 = VECTOR ( 'NONE', #559, 1000.000000000000000 ) ;
#731 = DIRECTION ( 'NONE',  ( 0.7071067811865474617, 0.000000000000000000, -0.7071067811865474617 ) ) ;
#732 = ORIENTED_EDGE ( 'NONE', *, *, #657, .T. ) ;
#733 = EDGE_LOOP ( 'NONE', ( #253, #186, #121, #249 ) ) ;
#734 = CARTESIAN_POINT ( 'NONE',  ( 6.938893903907228378E-15, 8.000000000000000000, -40.00000000000000000 ) ) ;
#735 = LINE ( 'NONE', #369, #31 ) ;
#736 = VERTEX_POINT ( 'NONE', #622 ) ;
#737 = ORIENTED_EDGE ( 'NONE', *, *, #165, .T. ) ;
#738 = DIRECTION ( 'NONE',  ( -0.000000000000000000, -1.000000000000000000, -0.000000000000000000 ) ) ;
#739 = EDGE_CURVE ( 'NONE', #712, #481, #71, .T. ) ;
#740 = DIRECTION ( 'NONE',  ( -1.000000000000000000, 0.000000000000000000, -1.734723475976807094E-16 ) ) ;
#741 = ORIENTED_EDGE ( 'NONE', *, *, #235, .F. ) ;
#742 = CARTESIAN_POINT ( 'NONE',  ( -40.00000000000000000, 8.000000000000000000, -9.999999999999994671 ) ) ;
#743 = VECTOR ( 'NONE', #760, 1000.000000000000000 ) ;
#744 = EDGE_LOOP ( 'NONE', ( #650, #722, #191, #603 ) ) ;
#745 = PLANE ( 'NONE',  #328 ) ;
#746 = LINE ( 'NONE', #457, #188 ) ;
#747 = ORIENTED_EDGE ( 'NONE', *, *, #412, .F. ) ;
#748 = ADVANCED_FACE ( 'NONE', ( #581 ), #79, .T. ) ;
#749 = FACE_OUTER_BOUND ( 'NONE', #533, .T. ) ;
#750 = ORIENTED_EDGE ( 'NONE', *, *, #694, .F. ) ;
#751 = DIRECTION ( 'NONE',  ( 0.000000000000000000, 0.000000000000000000, 1.000000000000000000 ) ) ;
#752 = DIRECTION ( 'NONE',  ( 0.000000000000000000, 1.000000000000000000, 0.000000000000000000 ) ) ;
#753 = CARTESIAN_POINT ( 'NONE',  ( -5.656854249492344167, 8.000000000000000000, 5.656854249492346831 ) ) ;
#754 = VECTOR ( 'NONE', #206, 1000.000000000000000 ) ;
#755 = DIRECTION ( 'NONE',  ( -0.7071067811865482389, 0.000000000000000000, -0.7071067811865469066 ) ) ;
#756 = AXIS2_PLACEMENT_3D ( 'NONE', #242, #129, #313 ) ;
#757 = CARTESIAN_POINT ( 'NONE',  ( -40.00000000000000000, 8.000000000000000000, 9.251858538542967489E-15 ) ) ;
#758 = EDGE_CURVE ( 'NONE', #353, #558, #161, .T. ) ;
#759 = CARTESIAN_POINT ( 'NONE',  ( 92.48956697920040426, 0.000000000000000000, -98.42926394116740596 ) ) ;
#760 = DIRECTION ( 'NONE',  ( -0.7071067811865474617, 0.000000000000000000, -0.7071067811865476838 ) ) ;
#761 = ORIENTED_EDGE ( 'NONE', *, *, #531, .T. ) ;
#762 = ADVANCED_FACE ( 'NONE', ( #34 ), #157, .F. ) ;
#763 = FACE_OUTER_BOUND ( 'NONE', #136, .T. ) ;
#764 = CARTESIAN_POINT ( 'NONE',  ( 103.9446968344224729, 8.000000000000000000, -115.2584053334072536 ) ) ;
#765 = ORIENTED_EDGE ( 'NONE', *, *, #255, .T. ) ;
#766 = ORIENTED_EDGE ( 'NONE', *, *, #90, .T. ) ;
#767 = PLANE ( 'NONE',  #391 ) ;
#768 = ADVANCED_FACE ( 'NONE', ( #88 ), #264, .F. ) ;
#769 = VECTOR ( 'NONE', #37, 1000.000000000000114 ) ;
#770 = PLANE ( 'NONE',  #414 ) ;
#771 = VECTOR ( 'NONE', #309, 1000.000000000000114 ) ;
#772 = VERTEX_POINT ( 'NONE', #330 ) ;
#773 = PLANE ( 'NONE',  #706 ) ;
#774 = CARTESIAN_POINT ( 'NONE',  ( -30.19999999999999929, 0.000000000000000000, -9.999999999999994671 ) ) ;
#775 = ORIENTED_EDGE ( 'NONE', *, *, #114, .T. ) ;
#776 = DIRECTION ( 'NONE',  ( -0.000000000000000000, -1.000000000000000000, -0.000000000000000000 ) ) ;
#777 = CARTESIAN_POINT ( 'NONE',  ( 109.6015510839147851, 0.000000000000000000, -109.6015510839149414 ) ) ;
#778 = EDGE_CURVE ( 'NONE', #527, #320, #746, .T. ) ;
#779 = ORIENTED_EDGE ( 'NONE', *, *, #784, .T. ) ;
#780 =( NAMED_UNIT ( * ) PLANE_ANGLE_UNIT ( ) SI_UNIT ( $, .RADIAN. ) );
#781 = AXIS2_PLACEMENT_3D ( 'NONE', #327, #569, #20 ) ;
#782 = EDGE_CURVE ( 'NONE', #72, #375, #398, .T. ) ;
#783 = ORIENTED_EDGE ( 'NONE', *, *, #116, .T. ) ;
#784 = EDGE_CURVE ( 'NONE', #323, #505, #701, .T. ) ;
#785 = DIRECTION ( 'NONE',  ( 0.7071067811865475727, -0.000000000000000000, 0.7071067811865475727 ) ) ;
#786 = ORIENTED_EDGE ( 'NONE', *, *, #128, .T. ) ;
#787 = UNCERTAINTY_MEASURE_WITH_UNIT (LENGTH_MEASURE( 1.000000000000000082E-05 ), #359, 'distance_accuracy_value', 'NONE');
#788 = ORIENTED_EDGE ( 'NONE', *, *, #628, .F. ) ;
#789 = FACE_OUTER_BOUND ( 'NONE', #112, .T. ) ;
ENDSEC;
END-ISO-10303-21;
