ISO-10303-21;
HEADER;
FILE_DESCRIPTION (( 'STEP AP214' ),
    '1' );
FILE_NAME ('À©Õ¹¹÷.STEP',
    '2026-07-31T09:10:37',
    ( '' ),
    ( '' ),
    'SwSTEP 2.0',
    'SolidWorks 2024',
    '' );
FILE_SCHEMA (( 'AUTOMOTIVE_DESIGN' ));
ENDSEC;

DATA;
#1 = VECTOR ( 'NONE', #443, 1000.000000000000000 ) ;
#2 = VERTEX_POINT ( 'NONE', #308 ) ;
#3 = ORIENTED_EDGE ( 'NONE', *, *, #63, .T. ) ;
#4 = CARTESIAN_POINT ( 'NONE',  ( 0.000000000000000000, 1.734723475976807094E-15, 0.000000000000000000 ) ) ;
#5 = ORIENTED_EDGE ( 'NONE', *, *, #78, .T. ) ;
#6 = DIRECTION ( 'NONE',  ( 0.000000000000000000, 0.000000000000000000, 1.000000000000000000 ) ) ;
#7 = VECTOR ( 'NONE', #527, 1000.000000000000000 ) ;
#8 = CARTESIAN_POINT ( 'NONE',  ( 16.00000000000001421, 8.000000000000001776, 20.00000000000000000 ) ) ;
#9 = DIRECTION ( 'NONE',  ( 1.000000000000000000, 0.000000000000000000, -0.000000000000000000 ) ) ;
#10 = VECTOR ( 'NONE', #238, 1000.000000000000000 ) ;
#11 = DIRECTION ( 'NONE',  ( -1.000000000000000000, -0.000000000000000000, -0.000000000000000000 ) ) ;
#12 = EDGE_CURVE ( 'NONE', #51, #517, #473, .T. ) ;
#13 = ORIENTED_EDGE ( 'NONE', *, *, #428, .F. ) ;
#14 = DIRECTION ( 'NONE',  ( 0.000000000000000000, -1.000000000000000000, 0.000000000000000000 ) ) ;
#15 = PLANE ( 'NONE',  #94 ) ;
#16 = ORIENTED_EDGE ( 'NONE', *, *, #356, .F. ) ;
#17 = CARTESIAN_POINT ( 'NONE',  ( 3.800000000000013589, 0.000000000000000000, -150.4000000000000057 ) ) ;
#18 = CARTESIAN_POINT ( 'NONE',  ( 0.000000000000000000, 8.000000000000000000, -150.4000000000000057 ) ) ;
#19 = ORIENTED_EDGE ( 'NONE', *, *, #200, .F. ) ;
#20 = APPLICATION_CONTEXT ( 'automotive_design' ) ;
#21 = EDGE_CURVE ( 'NONE', #299, #467, #429, .T. ) ;
#22 = ORIENTED_EDGE ( 'NONE', *, *, #349, .F. ) ;
#23 = AXIS2_PLACEMENT_3D ( 'NONE', #159, #27, #383 ) ;
#24 = DIRECTION ( 'NONE',  ( 1.000000000000000000, 0.000000000000000000, 0.000000000000000000 ) ) ;
#25 = ORIENTED_EDGE ( 'NONE', *, *, #135, .F. ) ;
#26 = ORIENTED_EDGE ( 'NONE', *, *, #253, .T. ) ;
#27 = DIRECTION ( 'NONE',  ( 1.000000000000000000, 0.000000000000000000, 0.000000000000000000 ) ) ;
#28 = VERTEX_POINT ( 'NONE', #80 ) ;
#29 = EDGE_LOOP ( 'NONE', ( #228, #127, #504, #95 ) ) ;
#30 = EDGE_LOOP ( 'NONE', ( #49, #522, #423, #68 ) ) ;
#31 = VECTOR ( 'NONE', #431, 1000.000000000000000 ) ;
#32 = ORIENTED_EDGE ( 'NONE', *, *, #330, .F. ) ;
#33 = EDGE_CURVE ( 'NONE', #259, #64, #110, .T. ) ;
#34 = CARTESIAN_POINT ( 'NONE',  ( 16.00000000000001421, 8.000000000000000000, -20.00000000000000000 ) ) ;
#35 = ORIENTED_EDGE ( 'NONE', *, *, #494, .T. ) ;
#36 = DIRECTION ( 'NONE',  ( 0.000000000000000000, -0.000000000000000000, 1.000000000000000000 ) ) ;
#37 = VERTEX_POINT ( 'NONE', #440 ) ;
#38 = CARTESIAN_POINT ( 'NONE',  ( 0.000000000000000000, 18.00000000000000355, 20.00000000000000000 ) ) ;
#39 = PRODUCT_RELATED_PRODUCT_CATEGORY ( 'part', '', ( #134 ) ) ;
#40 = DIRECTION ( 'NONE',  ( -0.000000000000000000, -0.000000000000000000, 1.000000000000000000 ) ) ;
#41 = EDGE_CURVE ( 'NONE', #257, #352, #142, .T. ) ;
#42 = VECTOR ( 'NONE', #457, 1000.000000000000000 ) ;
#43 = CARTESIAN_POINT ( 'NONE',  ( 12.00000000000001421, 1.734723475976807094E-15, 20.00000000000000000 ) ) ;
#44 = DIRECTION ( 'NONE',  ( 0.000000000000000000, 0.000000000000000000, 1.000000000000000000 ) ) ;
#45 = PLANE ( 'NONE',  #120 ) ;
#46 = DIRECTION ( 'NONE',  ( -1.000000000000000000, 0.000000000000000000, -0.000000000000000000 ) ) ;
#47 = VERTEX_POINT ( 'NONE', #360 ) ;
#48 = FILL_AREA_STYLE ('',( #542 ) ) ;
#49 = ORIENTED_EDGE ( 'NONE', *, *, #21, .F. ) ;
#50 = PLANE ( 'NONE',  #89 ) ;
#51 = VERTEX_POINT ( 'NONE', #482 ) ;
#52 = ADVANCED_FACE ( 'NONE', ( #83 ), #223, .T. ) ;
#53 = ORIENTED_EDGE ( 'NONE', *, *, #552, .T. ) ;
#54 = SHAPE_DEFINITION_REPRESENTATION ( #484, #396 ) ;
#55 = FACE_OUTER_BOUND ( 'NONE', #119, .T. ) ;
#56 = EDGE_CURVE ( 'NONE', #279, #51, #485, .T. ) ;
#57 = DIRECTION ( 'NONE',  ( 0.000000000000000000, -1.000000000000000000, 0.000000000000000000 ) ) ;
#58 = EDGE_LOOP ( 'NONE', ( #325, #25, #145, #5, #567, #219, #564, #557 ) ) ;
#59 = DIRECTION ( 'NONE',  ( 0.000000000000000000, 0.000000000000000000, 1.000000000000000000 ) ) ;
#60 = DIRECTION ( 'NONE',  ( -1.000000000000000000, -0.000000000000000000, -0.000000000000000000 ) ) ;
#61 = FACE_OUTER_BOUND ( 'NONE', #58, .T. ) ;
#62 = CARTESIAN_POINT ( 'NONE',  ( 0.000000000000000000, 0.000000000000000000, 20.00000000000000000 ) ) ;
#63 = EDGE_CURVE ( 'NONE', #261, #344, #574, .T. ) ;
#64 = VERTEX_POINT ( 'NONE', #268 ) ;
#65 = LINE ( 'NONE', #102, #173 ) ;
#66 = CARTESIAN_POINT ( 'NONE',  ( 16.00000000000001421, 18.00000000000000355, 0.000000000000000000 ) ) ;
#67 = CARTESIAN_POINT ( 'NONE',  ( 16.00000000000001421, 0.000000000000000000, -160.0000000000000000 ) ) ;
#68 = ORIENTED_EDGE ( 'NONE', *, *, #434, .T. ) ;
#69 = APPLICATION_PROTOCOL_DEFINITION ( 'draft international standard', 'automotive_design', 1998, #20 ) ;
#70 = CARTESIAN_POINT ( 'NONE',  ( 12.00000000000001776, 8.000000000000001776, 10.00000000000000000 ) ) ;
#71 = ORIENTED_EDGE ( 'NONE', *, *, #272, .F. ) ;
#72 = AXIS2_PLACEMENT_3D ( 'NONE', #559, #339, #513 ) ;
#73 = VECTOR ( 'NONE', #160, 1000.000000000000000 ) ;
#74 = LINE ( 'NONE', #82, #465 ) ;
#75 = ORIENTED_EDGE ( 'NONE', *, *, #408, .F. ) ;
#76 = EDGE_LOOP ( 'NONE', ( #131, #427, #16, #196 ) ) ;
#77 = CARTESIAN_POINT ( 'NONE',  ( 4.000000000000017764, 8.000000000000001776, 10.00000000000000000 ) ) ;
#78 = EDGE_CURVE ( 'NONE', #2, #313, #578, .T. ) ;
#79 = ORIENTED_EDGE ( 'NONE', *, *, #459, .T. ) ;
#80 = CARTESIAN_POINT ( 'NONE',  ( 12.00000000000001776, 1.734723475976807094E-15, 10.00000000000000000 ) ) ;
#81 = LINE ( 'NONE', #275, #7 ) ;
#82 = CARTESIAN_POINT ( 'NONE',  ( 16.00000000000001421, 8.000000000000000000, 0.000000000000000000 ) ) ;
#83 = FACE_OUTER_BOUND ( 'NONE', #122, .T. ) ;
#84 = EDGE_CURVE ( 'NONE', #28, #517, #533, .T. ) ;
#85 = DIRECTION ( 'NONE',  ( 0.000000000000000000, 0.000000000000000000, -1.000000000000000000 ) ) ;
#86 = DIRECTION ( 'NONE',  ( -0.000000000000000000, 1.000000000000000000, -0.000000000000000000 ) ) ;
#87 =( NAMED_UNIT ( * ) SI_UNIT ( $, .STERADIAN. ) SOLID_ANGLE_UNIT ( ) );
#88 = DIRECTION ( 'NONE',  ( 1.734723475976807094E-16, 0.000000000000000000, -1.000000000000000000 ) ) ;
#89 = AXIS2_PLACEMENT_3D ( 'NONE', #366, #197, #407 ) ;
#90 = DIRECTION ( 'NONE',  ( -0.000000000000000000, 1.000000000000000000, -0.000000000000000000 ) ) ;
#91 = DIRECTION ( 'NONE',  ( -0.000000000000000000, -0.000000000000000000, -1.000000000000000000 ) ) ;
#92 = ADVANCED_FACE ( 'NONE', ( #262 ), #138, .F. ) ;
#93 = SURFACE_STYLE_USAGE ( .BOTH. , #492 ) ;
#94 = AXIS2_PLACEMENT_3D ( 'NONE', #303, #57, #256 ) ;
#95 = ORIENTED_EDGE ( 'NONE', *, *, #272, .T. ) ;
#96 = CARTESIAN_POINT ( 'NONE',  ( 0.000000000000000000, 18.00000000000000355, 20.00000000000000000 ) ) ;
#97 = VERTEX_POINT ( 'NONE', #34 ) ;
#98 = EDGE_CURVE ( 'NONE', #432, #279, #216, .T. ) ;
#99 = CARTESIAN_POINT ( 'NONE',  ( 0.000000000000000000, 0.000000000000000000, 0.000000000000000000 ) ) ;
#100 = CARTESIAN_POINT ( 'NONE',  ( 4.000000000000017764, 1.734723475976807094E-15, 10.00000000000000000 ) ) ;
#101 = ORIENTED_EDGE ( 'NONE', *, *, #266, .F. ) ;
#102 = CARTESIAN_POINT ( 'NONE',  ( 12.00000000000001421, 1.734723475976807094E-15, 20.00000000000000000 ) ) ;
#103 = FACE_OUTER_BOUND ( 'NONE', #342, .T. ) ;
#104 = FACE_OUTER_BOUND ( 'NONE', #388, .T. ) ;
#105 = ORIENTED_EDGE ( 'NONE', *, *, #481, .T. ) ;
#106 =( NAMED_UNIT ( * ) PLANE_ANGLE_UNIT ( ) SI_UNIT ( $, .RADIAN. ) );
#107 = LINE ( 'NONE', #146, #274 ) ;
#108 = EDGE_CURVE ( 'NONE', #37, #445, #183, .T. ) ;
#109 = LINE ( 'NONE', #556, #566 ) ;
#110 = LINE ( 'NONE', #514, #555 ) ;
#111 = ORIENTED_EDGE ( 'NONE', *, *, #135, .T. ) ;
#112 = PRODUCT_DEFINITION_FORMATION_WITH_SPECIFIED_SOURCE ( 'ä»', '', #134, .NOT_KNOWN. ) ;
#113 = FACE_OUTER_BOUND ( 'NONE', #236, .T. ) ;
#114 = CARTESIAN_POINT ( 'NONE',  ( 1.224646799147353256E-15, 8.000000000000001776, 20.00000000000000000 ) ) ;
#115 = PLANE ( 'NONE',  #72 ) ;
#116 = ORIENTED_EDGE ( 'NONE', *, *, #143, .T. ) ;
#117 = DIRECTION ( 'NONE',  ( 0.000000000000000000, -0.000000000000000000, -1.000000000000000000 ) ) ;
#118 = PLANE ( 'NONE',  #23 ) ;
#119 = EDGE_LOOP ( 'NONE', ( #472, #217, #450, #163 ) ) ;
#120 = AXIS2_PLACEMENT_3D ( 'NONE', #4, #280, #224 ) ;
#121 = CARTESIAN_POINT ( 'NONE',  ( 0.000000000000000000, 0.000000000000000000, 0.000000000000000000 ) ) ;
#122 = EDGE_LOOP ( 'NONE', ( #71, #204, #464, #208 ) ) ;
#123 = AXIS2_PLACEMENT_3D ( 'NONE', #237, #14, #117 ) ;
#124 = ORIENTED_EDGE ( 'NONE', *, *, #494, .F. ) ;
#125 = EDGE_CURVE ( 'NONE', #382, #51, #319, .T. ) ;
#126 = ORIENTED_EDGE ( 'NONE', *, *, #459, .F. ) ;
#127 = ORIENTED_EDGE ( 'NONE', *, *, #169, .F. ) ;
#128 = CARTESIAN_POINT ( 'NONE',  ( 3.800000000000013589, 8.000000000000000000, 0.000000000000000000 ) ) ;
#129 = CARTESIAN_POINT ( 'NONE',  ( 4.000000000000015987, 1.734723475976807094E-15, 20.00000000000000000 ) ) ;
#130 = VECTOR ( 'NONE', #11, 1000.000000000000000 ) ;
#131 = ORIENTED_EDGE ( 'NONE', *, *, #367, .T. ) ;
#132 = CARTESIAN_POINT ( 'NONE',  ( 0.000000000000000000, 0.000000000000000000, 0.000000000000000000 ) ) ;
#133 = MECHANICAL_DESIGN_GEOMETRIC_PRESENTATION_REPRESENTATION (  '', ( #193 ), #397 ) ;
#134 = PRODUCT ( '\X2\62695c5568cd\X0\', '\X2\62695c5568cd\X0\', '', ( #453 ) ) ;
#135 = EDGE_CURVE ( 'NONE', #352, #382, #81, .T. ) ;
#136 = AXIS2_PLACEMENT_3D ( 'NONE', #114, #353, #36 ) ;
#137 =( LENGTH_UNIT ( ) NAMED_UNIT ( * ) SI_UNIT ( .MILLI., .METRE. ) );
#138 = PLANE ( 'NONE',  #264 ) ;
#139 = DIRECTION ( 'NONE',  ( 0.000000000000000000, -1.000000000000000000, 0.000000000000000000 ) ) ;
#140 = CARTESIAN_POINT ( 'NONE',  ( 12.20000000000001528, 0.000000000000000000, -140.0000000000000000 ) ) ;
#141 = CARTESIAN_POINT ( 'NONE',  ( 4.000000000000015987, 1.734723475976807094E-15, 20.00000000000000000 ) ) ;
#142 = LINE ( 'NONE', #38, #372 ) ;
#143 = EDGE_CURVE ( 'NONE', #340, #304, #399, .T. ) ;
#144 = LINE ( 'NONE', #406, #377 ) ;
#145 = ORIENTED_EDGE ( 'NONE', *, *, #572, .T. ) ;
#146 = CARTESIAN_POINT ( 'NONE',  ( 16.00000000000001421, 8.000000000000000000, -160.0000000000000000 ) ) ;
#147 = EDGE_CURVE ( 'NONE', #47, #475, #404, .T. ) ;
#148 = VECTOR ( 'NONE', #550, 1000.000000000000000 ) ;
#149 = COLOUR_RGB ( '',0.7921568627450980005, 0.8196078431372548767, 0.9333333333333333481 ) ;
#150 = EDGE_LOOP ( 'NONE', ( #521, #101, #32, #551 ) ) ;
#151 = AXIS2_PLACEMENT_3D ( 'NONE', #283, #449, #500 ) ;
#152 = CARTESIAN_POINT ( 'NONE',  ( 0.000000000000000000, 0.000000000000000000, -140.0000000000000000 ) ) ;
#153 = VECTOR ( 'NONE', #244, 1000.000000000000000 ) ;
#154 = CARTESIAN_POINT ( 'NONE',  ( 0.000000000000000000, 8.000000000000000000, -20.00000000000000000 ) ) ;
#155 = FACE_OUTER_BOUND ( 'NONE', #150, .T. ) ;
#156 = ORIENTED_EDGE ( 'NONE', *, *, #161, .F. ) ;
#157 = VECTOR ( 'NONE', #476, 1000.000000000000000 ) ;
#158 = CARTESIAN_POINT ( 'NONE',  ( 12.00000000000001421, 8.000000000000001776, 20.00000000000000000 ) ) ;
#159 = CARTESIAN_POINT ( 'NONE',  ( 3.800000000000013589, 0.000000000000000000, 0.000000000000000000 ) ) ;
#160 = DIRECTION ( 'NONE',  ( 1.000000000000000000, -0.000000000000000000, 0.000000000000000000 ) ) ;
#161 = EDGE_CURVE ( 'NONE', #37, #64, #251, .T. ) ;
#162 = LINE ( 'NONE', #314, #301 ) ;
#163 = ORIENTED_EDGE ( 'NONE', *, *, #349, .T. ) ;
#164 = ORIENTED_EDGE ( 'NONE', *, *, #84, .F. ) ;
#165 = CARTESIAN_POINT ( 'NONE',  ( 4.000000000000017764, 1.734723475976807094E-15, 10.00000000000000000 ) ) ;
#166 = ORIENTED_EDGE ( 'NONE', *, *, #507, .F. ) ;
#167 = ORIENTED_EDGE ( 'NONE', *, *, #481, .F. ) ;
#168 = FACE_OUTER_BOUND ( 'NONE', #421, .T. ) ;
#169 = EDGE_CURVE ( 'NONE', #299, #445, #469, .T. ) ;
#170 = VECTOR ( 'NONE', #202, 1000.000000000000000 ) ;
#171 = VECTOR ( 'NONE', #565, 1000.000000000000000 ) ;
#172 = ORIENTED_EDGE ( 'NONE', *, *, #41, .T. ) ;
#173 = VECTOR ( 'NONE', #207, 1000.000000000000000 ) ;
#174 = ORIENTED_EDGE ( 'NONE', *, *, #143, .F. ) ;
#175 = DIRECTION ( 'NONE',  ( -1.000000000000000000, 0.000000000000000000, 0.000000000000000000 ) ) ;
#176 = ORIENTED_EDGE ( 'NONE', *, *, #392, .T. ) ;
#177 = EDGE_CURVE ( 'NONE', #313, #241, #109, .T. ) ;
#178 = DIRECTION ( 'NONE',  ( -0.000000000000000000, 0.000000000000000000, 1.000000000000000000 ) ) ;
#179 = PRODUCT_DEFINITION ( 'æœ', '', #112, #576 ) ;
#180 = VECTOR ( 'NONE', #60, 1000.000000000000000 ) ;
#181 = CARTESIAN_POINT ( 'NONE',  ( 1.224646799147353256E-15, 8.000000000000001776, 0.000000000000000000 ) ) ;
#182 = DIRECTION ( 'NONE',  ( 0.000000000000000000, 0.000000000000000000, -1.000000000000000000 ) ) ;
#183 = LINE ( 'NONE', #140, #312 ) ;
#184 = CARTESIAN_POINT ( 'NONE',  ( 0.000000000000000000, 0.000000000000000000, -160.0000000000000000 ) ) ;
#185 = CARTESIAN_POINT ( 'NONE',  ( 4.000000000000015987, 8.000000000000001776, 20.00000000000000000 ) ) ;
#186 = ADVANCED_FACE ( 'NONE', ( #168 ), #577, .F. ) ;
#187 = PLANE ( 'NONE',  #479 ) ;
#188 = CARTESIAN_POINT ( 'NONE',  ( 1.224646799147353256E-15, 8.000000000000001776, 20.00000000000000000 ) ) ;
#189 = CARTESIAN_POINT ( 'NONE',  ( 0.000000000000000000, 0.000000000000000000, -140.0000000000000000 ) ) ;
#190 = EDGE_CURVE ( 'NONE', #304, #414, #455, .T. ) ;
#191 = ORIENTED_EDGE ( 'NONE', *, *, #169, .T. ) ;
#192 = DIRECTION ( 'NONE',  ( -0.000000000000000000, -1.000000000000000000, -0.000000000000000000 ) ) ;
#193 = STYLED_ITEM ( 'NONE', ( #587 ), #320 ) ;
#194 = VECTOR ( 'NONE', #441, 1000.000000000000000 ) ;
#195 = CARTESIAN_POINT ( 'NONE',  ( 4.000000000000015987, 1.734723475976807094E-15, 20.00000000000000000 ) ) ;
#196 = ORIENTED_EDGE ( 'NONE', *, *, #84, .T. ) ;
#197 = DIRECTION ( 'NONE',  ( 1.000000000000000000, 0.000000000000000000, 1.734723475976807094E-16 ) ) ;
#198 = CARTESIAN_POINT ( 'NONE',  ( 0.000000000000000000, 8.000000000000000000, -140.0000000000000000 ) ) ;
#199 = ORIENTED_EDGE ( 'NONE', *, *, #298, .T. ) ;
#200 = EDGE_CURVE ( 'NONE', #560, #97, #297, .T. ) ;
#201 = CARTESIAN_POINT ( 'NONE',  ( 4.000000000000015987, 8.000000000000001776, 20.00000000000000000 ) ) ;
#202 = DIRECTION ( 'NONE',  ( -0.000000000000000000, -1.000000000000000000, -0.000000000000000000 ) ) ;
#203 = PRESENTATION_LAYER_ASSIGNMENT (  '', '', ( #193 ) ) ;
#204 = ORIENTED_EDGE ( 'NONE', *, *, #434, .F. ) ;
#205 = DIRECTION ( 'NONE',  ( -0.000000000000000000, 1.000000000000000000, -0.000000000000000000 ) ) ;
#206 = ORIENTED_EDGE ( 'NONE', *, *, #330, .T. ) ;
#207 = DIRECTION ( 'NONE',  ( -0.000000000000000000, 1.000000000000000000, -0.000000000000000000 ) ) ;
#208 = ORIENTED_EDGE ( 'NONE', *, *, #519, .T. ) ;
#209 = EDGE_CURVE ( 'NONE', #97, #340, #74, .T. ) ;
#210 = DIRECTION ( 'NONE',  ( 0.000000000000000000, 0.000000000000000000, -1.000000000000000000 ) ) ;
#211 = VERTEX_POINT ( 'NONE', #379 ) ;
#212 =( LENGTH_UNIT ( ) NAMED_UNIT ( * ) SI_UNIT ( .MILLI., .METRE. ) );
#213 = ORIENTED_EDGE ( 'NONE', *, *, #298, .F. ) ;
#214 = ORIENTED_EDGE ( 'NONE', *, *, #356, .T. ) ;
#215 = DIRECTION ( 'NONE',  ( -0.000000000000000000, -0.000000000000000000, -1.000000000000000000 ) ) ;
#216 = LINE ( 'NONE', #129, #585 ) ;
#217 = ORIENTED_EDGE ( 'NONE', *, *, #56, .F. ) ;
#218 = CARTESIAN_POINT ( 'NONE',  ( 0.000000000000000000, 0.000000000000000000, 0.000000000000000000 ) ) ;
#219 = ORIENTED_EDGE ( 'NONE', *, *, #147, .F. ) ;
#220 = DIRECTION ( 'NONE',  ( 1.000000000000000000, -0.000000000000000000, 0.000000000000000000 ) ) ;
#221 = FACE_OUTER_BOUND ( 'NONE', #378, .T. ) ;
#222 = VECTOR ( 'NONE', #40, 1000.000000000000000 ) ;
#223 = PLANE ( 'NONE',  #477 ) ;
#224 = DIRECTION ( 'NONE',  ( 0.000000000000000000, -0.000000000000000000, -1.000000000000000000 ) ) ;
#225 = ADVANCED_FACE ( 'NONE', ( #293, #104 ), #15, .T. ) ;
#226 = SURFACE_STYLE_FILL_AREA ( #48 ) ;
#227 = CARTESIAN_POINT ( 'NONE',  ( 1.224646799147353256E-15, 8.000000000000001776, 20.00000000000000000 ) ) ;
#228 = ORIENTED_EDGE ( 'NONE', *, *, #562, .F. ) ;
#229 = ADVANCED_FACE ( 'NONE', ( #239 ), #416, .T. ) ;
#230 = CARTESIAN_POINT ( 'NONE',  ( 0.000000000000000000, 18.00000000000000355, -20.00000000000000000 ) ) ;
#231 = LINE ( 'NONE', #415, #346 ) ;
#232 = VERTEX_POINT ( 'NONE', #267 ) ;
#233 = LINE ( 'NONE', #99, #254 ) ;
#234 = CARTESIAN_POINT ( 'NONE',  ( 0.000000000000000000, 18.00000000000000355, -20.00000000000000000 ) ) ;
#235 = AXIS2_PLACEMENT_3D ( 'NONE', #273, #438, #395 ) ;
#236 = EDGE_LOOP ( 'NONE', ( #3, #167, #174, #545 ) ) ;
#237 = CARTESIAN_POINT ( 'NONE',  ( 0.000000000000000000, 18.00000000000000355, 0.000000000000000000 ) ) ;
#238 = DIRECTION ( 'NONE',  ( -0.000000000000000000, -0.000000000000000000, 1.000000000000000000 ) ) ;
#239 = FACE_OUTER_BOUND ( 'NONE', #452, .T. ) ;
#240 = ADVANCED_FACE ( 'NONE', ( #425 ), #118, .T. ) ;
#241 = VERTEX_POINT ( 'NONE', #354 ) ;
#242 = APPLICATION_PROTOCOL_DEFINITION ( 'draft international standard', 'automotive_design', 1998, #575 ) ;
#243 = LINE ( 'NONE', #66, #531 ) ;
#244 = DIRECTION ( 'NONE',  ( 0.000000000000000000, 0.000000000000000000, -1.000000000000000000 ) ) ;
#245 = CARTESIAN_POINT ( 'NONE',  ( 3.800000000000013589, 0.000000000000000000, -150.4000000000000057 ) ) ;
#246 = VERTEX_POINT ( 'NONE', #508 ) ;
#247 = DIRECTION ( 'NONE',  ( 1.000000000000000000, 0.000000000000000000, 0.000000000000000000 ) ) ;
#248 = CARTESIAN_POINT ( 'NONE',  ( 0.000000000000000000, 8.000000000000000000, -20.00000000000000000 ) ) ;
#249 = LINE ( 'NONE', #333, #1 ) ;
#250 = ORIENTED_EDGE ( 'NONE', *, *, #266, .T. ) ;
#251 = LINE ( 'NONE', #503, #171 ) ;
#252 = ORIENTED_EDGE ( 'NONE', *, *, #98, .T. ) ;
#253 = EDGE_CURVE ( 'NONE', #232, #299, #563, .T. ) ;
#254 = VECTOR ( 'NONE', #546, 1000.000000000000000 ) ;
#255 = VERTEX_POINT ( 'NONE', #132 ) ;
#256 = DIRECTION ( 'NONE',  ( 0.000000000000000000, -0.000000000000000000, -1.000000000000000000 ) ) ;
#257 = VERTEX_POINT ( 'NONE', #290 ) ;
#258 = LINE ( 'NONE', #516, #491 ) ;
#259 = VERTEX_POINT ( 'NONE', #245 ) ;
#260 = ORIENTED_EDGE ( 'NONE', *, *, #108, .T. ) ;
#261 = VERTEX_POINT ( 'NONE', #67 ) ;
#262 = FACE_OUTER_BOUND ( 'NONE', #390, .T. ) ;
#263 = ORIENTED_EDGE ( 'NONE', *, *, #586, .T. ) ;
#264 = AXIS2_PLACEMENT_3D ( 'NONE', #311, #175, #44 ) ;
#265 = ORIENTED_EDGE ( 'NONE', *, *, #519, .F. ) ;
#266 = EDGE_CURVE ( 'NONE', #385, #414, #162, .T. ) ;
#267 = CARTESIAN_POINT ( 'NONE',  ( 3.800000000000013589, 0.000000000000000000, -140.0000000000000000 ) ) ;
#268 = CARTESIAN_POINT ( 'NONE',  ( 12.20000000000001528, 0.000000000000000000, -150.4000000000000057 ) ) ;
#269 = PLANE ( 'NONE',  #520 ) ;
#270 = DIRECTION ( 'NONE',  ( 1.734723475976807094E-16, 0.000000000000000000, -1.000000000000000000 ) ) ;
#271 = VECTOR ( 'NONE', #88, 1000.000000000000000 ) ;
#272 = EDGE_CURVE ( 'NONE', #467, #246, #418, .T. ) ;
#273 = CARTESIAN_POINT ( 'NONE',  ( 0.000000000000000000, 8.000000000000000000, 0.000000000000000000 ) ) ;
#274 = VECTOR ( 'NONE', #192, 1000.000000000000000 ) ;
#275 = CARTESIAN_POINT ( 'NONE',  ( 1.224646799147353256E-15, 8.000000000000001776, 20.00000000000000000 ) ) ;
#276 = CARTESIAN_POINT ( 'NONE',  ( 12.00000000000001421, 1.734723475976807094E-15, 20.00000000000000000 ) ) ;
#277 = LINE ( 'NONE', #141, #355 ) ;
#278 = ADVANCED_FACE ( 'NONE', ( #375 ), #115, .F. ) ;
#279 = VERTEX_POINT ( 'NONE', #165 ) ;
#280 = DIRECTION ( 'NONE',  ( 0.000000000000000000, -1.000000000000000000, 0.000000000000000000 ) ) ;
#281 = AXIS2_PLACEMENT_3D ( 'NONE', #420, #291, #558 ) ;
#282 = ADVANCED_FACE ( 'NONE', ( #463, #343 ), #269, .F. ) ;
#283 = CARTESIAN_POINT ( 'NONE',  ( 12.20000000000001528, 0.000000000000000000, 0.000000000000000000 ) ) ;
#284 = VECTOR ( 'NONE', #215, 1000.000000000000000 ) ;
#285 = DIRECTION ( 'NONE',  ( -3.469446951953614189E-16, -0.000000000000000000, 1.000000000000000000 ) ) ;
#286 = EDGE_LOOP ( 'NONE', ( #191, #350, #75, #26 ) ) ;
#287 = PLANE ( 'NONE',  #123 ) ;
#288 = DIRECTION ( 'NONE',  ( -0.000000000000000000, 1.000000000000000000, -0.000000000000000000 ) ) ;
#289 = ADVANCED_FACE ( 'NONE', ( #221 ), #584, .F. ) ;
#290 = CARTESIAN_POINT ( 'NONE',  ( 0.000000000000000000, 18.00000000000000355, 20.00000000000000000 ) ) ;
#291 = DIRECTION ( 'NONE',  ( 0.000000000000000000, 0.000000000000000000, 1.000000000000000000 ) ) ;
#292 = LINE ( 'NONE', #296, #153 ) ;
#293 = FACE_BOUND ( 'NONE', #571, .T. ) ;
#294 = ORIENTED_EDGE ( 'NONE', *, *, #562, .T. ) ;
#295 = CARTESIAN_POINT ( 'NONE',  ( 16.00000000000001421, 18.00000000000000355, 20.00000000000000000 ) ) ;
#296 = CARTESIAN_POINT ( 'NONE',  ( 16.00000000000001421, 0.000000000000000000, 0.000000000000000000 ) ) ;
#297 = LINE ( 'NONE', #422, #170 ) ;
#298 = EDGE_CURVE ( 'NONE', #334, #432, #358, .T. ) ;
#299 = VERTEX_POINT ( 'NONE', #316 ) ;
#300 = ORIENTED_EDGE ( 'NONE', *, *, #56, .T. ) ;
#301 = VECTOR ( 'NONE', #436, 1000.000000000000000 ) ;
#302 = VECTOR ( 'NONE', #357, 1000.000000000000000 ) ;
#303 = CARTESIAN_POINT ( 'NONE',  ( 0.000000000000000000, 0.000000000000000000, 0.000000000000000000 ) ) ;
#304 = VERTEX_POINT ( 'NONE', #323 ) ;
#305 = VECTOR ( 'NONE', #285, 1000.000000000000000 ) ;
#306 = ORIENTED_EDGE ( 'NONE', *, *, #507, .T. ) ;
#307 = EDGE_LOOP ( 'NONE', ( #252, #306, #214, #199 ) ) ;
#308 = CARTESIAN_POINT ( 'NONE',  ( 0.000000000000000000, 8.000000000000001776, 0.000000000000000000 ) ) ;
#309 = ORIENTED_EDGE ( 'NONE', *, *, #190, .T. ) ;
#310 = ADVANCED_FACE ( 'NONE', ( #532 ), #493, .F. ) ;
#311 = CARTESIAN_POINT ( 'NONE',  ( 16.00000000000001421, 8.000000000000000000, 0.000000000000000000 ) ) ;
#312 = VECTOR ( 'NONE', #351, 1000.000000000000000 ) ;
#313 = VERTEX_POINT ( 'NONE', #437 ) ;
#314 = CARTESIAN_POINT ( 'NONE',  ( 0.000000000000000000, 18.00000000000000355, -20.00000000000000000 ) ) ;
#315 = VECTOR ( 'NONE', #288, 1000.000000000000000 ) ;
#316 = CARTESIAN_POINT ( 'NONE',  ( 3.800000000000013589, 8.000000000000000000, -140.0000000000000000 ) ) ;
#317 = ADVANCED_FACE ( 'NONE', ( #483 ), #45, .T. ) ;
#318 =( NAMED_UNIT ( * ) PLANE_ANGLE_UNIT ( ) SI_UNIT ( $, .RADIAN. ) );
#319 = LINE ( 'NONE', #185, #271 ) ;
#320 = MANIFOLD_SOLID_BREP ( '\X2\52079664\X0\-\X2\62c94f38\X0\1', #537 ) ;
#321 = AXIS2_PLACEMENT_3D ( 'NONE', #62, #518, #24 ) ;
#322 = DIRECTION ( 'NONE',  ( 1.000000000000000000, 0.000000000000000000, -0.000000000000000000 ) ) ;
#323 = CARTESIAN_POINT ( 'NONE',  ( 0.000000000000000000, 8.000000000000000000, -160.0000000000000000 ) ) ;
#324 = EDGE_CURVE ( 'NONE', #232, #259, #580, .T. ) ;
#325 = ORIENTED_EDGE ( 'NONE', *, *, #125, .F. ) ;
#326 = CARTESIAN_POINT ( 'NONE',  ( 3.800000000000013589, 8.000000000000000000, -150.4000000000000057 ) ) ;
#327 = VECTOR ( 'NONE', #505, 1000.000000000000000 ) ;
#328 = PLANE ( 'NONE',  #151 ) ;
#329 = ORIENTED_EDGE ( 'NONE', *, *, #430, .F. ) ;
#330 = EDGE_CURVE ( 'NONE', #560, #385, #534, .T. ) ;
#331 = DIRECTION ( 'NONE',  ( -0.000000000000000000, -1.000000000000000000, -0.000000000000000000 ) ) ;
#332 = LINE ( 'NONE', #561, #315 ) ;
#333 = CARTESIAN_POINT ( 'NONE',  ( 12.20000000000001528, 8.000000000000000000, 0.000000000000000000 ) ) ;
#334 = VERTEX_POINT ( 'NONE', #43 ) ;
#335 = DIRECTION ( 'NONE',  ( 0.000000000000000000, 0.000000000000000000, -1.000000000000000000 ) ) ;
#336 = DIRECTION ( 'NONE',  ( 1.000000000000000000, 0.000000000000000000, 0.000000000000000000 ) ) ;
#337 = LINE ( 'NONE', #154, #42 ) ;
#338 = EDGE_CURVE ( 'NONE', #475, #313, #144, .T. ) ;
#339 = DIRECTION ( 'NONE',  ( -1.000000000000000000, 0.000000000000000000, -3.469446951953614189E-16 ) ) ;
#340 = VERTEX_POINT ( 'NONE', #398 ) ;
#341 = LINE ( 'NONE', #100, #403 ) ;
#342 = EDGE_LOOP ( 'NONE', ( #384, #495, #176, #206 ) ) ;
#343 = FACE_OUTER_BOUND ( 'NONE', #525, .T. ) ;
#344 = VERTEX_POINT ( 'NONE', #184 ) ;
#345 = EDGE_LOOP ( 'NONE', ( #294, #265, #156, #260 ) ) ;
#346 = VECTOR ( 'NONE', #454, 1000.000000000000000 ) ;
#347 = ORIENTED_EDGE ( 'NONE', *, *, #33, .F. ) ;
#348 = ORIENTED_EDGE ( 'NONE', *, *, #324, .F. ) ;
#349 = EDGE_CURVE ( 'NONE', #432, #382, #277, .T. ) ;
#350 = ORIENTED_EDGE ( 'NONE', *, *, #108, .F. ) ;
#351 = DIRECTION ( 'NONE',  ( -0.000000000000000000, 1.000000000000000000, -0.000000000000000000 ) ) ;
#352 = VERTEX_POINT ( 'NONE', #227 ) ;
#353 = DIRECTION ( 'NONE',  ( 0.000000000000000000, 1.000000000000000000, 0.000000000000000000 ) ) ;
#354 = CARTESIAN_POINT ( 'NONE',  ( 16.00000000000001421, 0.000000000000000000, 0.000000000000000000 ) ) ;
#355 = VECTOR ( 'NONE', #90, 1000.000000000000000 ) ;
#356 = EDGE_CURVE ( 'NONE', #28, #334, #489, .T. ) ;
#357 = DIRECTION ( 'NONE',  ( 1.000000000000000000, 0.000000000000000000, 0.000000000000000000 ) ) ;
#358 = LINE ( 'NONE', #538, #394 ) ;
#359 = DIRECTION ( 'NONE',  ( 1.000000000000000000, -0.000000000000000000, 0.000000000000000000 ) ) ;
#360 = CARTESIAN_POINT ( 'NONE',  ( 12.00000000000001776, 8.000000000000001776, 20.00000000000000000 ) ) ;
#361 = VECTOR ( 'NONE', #86, 1000.000000000000000 ) ;
#362 = ADVANCED_FACE ( 'NONE', ( #402 ), #187, .F. ) ;
#363 = DIRECTION ( 'NONE',  ( 0.000000000000000000, -0.000000000000000000, -1.000000000000000000 ) ) ;
#364 = LINE ( 'NONE', #17, #327 ) ;
#365 = ORIENTED_EDGE ( 'NONE', *, *, #338, .T. ) ;
#366 = CARTESIAN_POINT ( 'NONE',  ( 4.000000000000015987, 1.734723475976807094E-15, 20.00000000000000000 ) ) ;
#367 = EDGE_CURVE ( 'NONE', #517, #47, #451, .T. ) ;
#368 = VECTOR ( 'NONE', #331, 1000.000000000000000 ) ;
#369 = LINE ( 'NONE', #549, #368 ) ;
#370 = ORIENTED_EDGE ( 'NONE', *, *, #408, .T. ) ;
#371 = CARTESIAN_POINT ( 'NONE',  ( 4.000000000000017764, 1.734723475976807094E-15, 10.00000000000000000 ) ) ;
#372 = VECTOR ( 'NONE', #540, 1000.000000000000000 ) ;
#373 = CARTESIAN_POINT ( 'NONE',  ( 0.000000000000000000, 18.00000000000000355, -20.00000000000000000 ) ) ;
#374 = EDGE_CURVE ( 'NONE', #385, #257, #231, .T. ) ;
#375 = FACE_OUTER_BOUND ( 'NONE', #76, .T. ) ;
#376 = ORIENTED_EDGE ( 'NONE', *, *, #209, .F. ) ;
#377 = VECTOR ( 'NONE', #91, 1000.000000000000000 ) ;
#378 = EDGE_LOOP ( 'NONE', ( #35, #433, #470, #515, #548, #250, #529, #105 ) ) ;
#379 = CARTESIAN_POINT ( 'NONE',  ( 16.00000000000001421, 18.00000000000000355, 20.00000000000000000 ) ) ;
#380 = EDGE_LOOP ( 'NONE', ( #509, #263, #460, #426 ) ) ;
#381 = DIRECTION ( 'NONE',  ( -0.000000000000000000, -1.000000000000000000, -0.000000000000000000 ) ) ;
#382 = VERTEX_POINT ( 'NONE', #201 ) ;
#383 = DIRECTION ( 'NONE',  ( 0.000000000000000000, 0.000000000000000000, -1.000000000000000000 ) ) ;
#384 = ORIENTED_EDGE ( 'NONE', *, *, #374, .T. ) ;
#385 = VERTEX_POINT ( 'NONE', #373 ) ;
#386 = ADVANCED_FACE ( 'NONE', ( #55 ), #50, .F. ) ;
#387 = ORIENTED_EDGE ( 'NONE', *, *, #581, .T. ) ;
#388 = EDGE_LOOP ( 'NONE', ( #124, #424, #456, #329 ) ) ;
#389 = CARTESIAN_POINT ( 'NONE',  ( 0.000000000000000000, 0.000000000000000000, -160.0000000000000000 ) ) ;
#390 = EDGE_LOOP ( 'NONE', ( #53, #13, #376, #19, #405, #126, #365, #498 ) ) ;
#391 = LINE ( 'NONE', #218, #10 ) ;
#392 = EDGE_CURVE ( 'NONE', #211, #560, #243, .T. ) ;
#393 = DIRECTION ( 'NONE',  ( -0.000000000000000000, -1.000000000000000000, -0.000000000000000000 ) ) ;
#394 = VECTOR ( 'NONE', #400, 1000.000000000000000 ) ;
#395 = DIRECTION ( 'NONE',  ( 0.000000000000000000, 0.000000000000000000, -1.000000000000000000 ) ) ;
#396 = ADVANCED_BREP_SHAPE_REPRESENTATION ( '\X2\62695c5568cd\X0\', ( #320, #511 ), #499 ) ;
#397 =( GEOMETRIC_REPRESENTATION_CONTEXT ( 3 ) GLOBAL_UNCERTAINTY_ASSIGNED_CONTEXT ( ( #528 ) ) GLOBAL_UNIT_ASSIGNED_CONTEXT ( ( #137, #318, #87 ) ) REPRESENTATION_CONTEXT ( 'NONE', 'WORKASPACE' ) );
#398 = CARTESIAN_POINT ( 'NONE',  ( 16.00000000000001421, 8.000000000000000000, -160.0000000000000000 ) ) ;
#399 = LINE ( 'NONE', #412, #130 ) ;
#400 = DIRECTION ( 'NONE',  ( -1.000000000000000000, -0.000000000000000000, -0.000000000000000000 ) ) ;
#401 = ADVANCED_FACE ( 'NONE', ( #113 ), #461, .F. ) ;
#402 = FACE_OUTER_BOUND ( 'NONE', #286, .T. ) ;
#403 = VECTOR ( 'NONE', #466, 1000.000000000000000 ) ;
#404 = LINE ( 'NONE', #188, #148 ) ;
#405 = ORIENTED_EDGE ( 'NONE', *, *, #392, .F. ) ;
#406 = CARTESIAN_POINT ( 'NONE',  ( 16.00000000000001421, 8.000000000000001776, 20.00000000000000000 ) ) ;
#407 = DIRECTION ( 'NONE',  ( 1.734723475976807094E-16, 0.000000000000000000, -1.000000000000000000 ) ) ;
#408 = EDGE_CURVE ( 'NONE', #232, #37, #417, .T. ) ;
#409 = ORIENTED_EDGE ( 'NONE', *, *, #442, .F. ) ;
#410 = LINE ( 'NONE', #295, #413 ) ;
#411 = DIRECTION ( 'NONE',  ( 0.000000000000000000, 0.000000000000000000, 1.000000000000000000 ) ) ;
#412 = CARTESIAN_POINT ( 'NONE',  ( 0.000000000000000000, 8.000000000000000000, -160.0000000000000000 ) ) ;
#413 = VECTOR ( 'NONE', #544, 1000.000000000000000 ) ;
#414 = VERTEX_POINT ( 'NONE', #248 ) ;
#415 = CARTESIAN_POINT ( 'NONE',  ( 0.000000000000000000, 18.00000000000000355, 0.000000000000000000 ) ) ;
#416 = PLANE ( 'NONE',  #321 ) ;
#417 = LINE ( 'NONE', #189, #73 ) ;
#418 = LINE ( 'NONE', #18, #579 ) ;
#419 = ORIENTED_EDGE ( 'NONE', *, *, #12, .T. ) ;
#420 = CARTESIAN_POINT ( 'NONE',  ( 0.000000000000000000, 8.000000000000000000, -160.0000000000000000 ) ) ;
#421 = EDGE_LOOP ( 'NONE', ( #419, #164, #166, #300 ) ) ;
#422 = CARTESIAN_POINT ( 'NONE',  ( 16.00000000000001421, 18.00000000000000355, -20.00000000000000000 ) ) ;
#423 = ORIENTED_EDGE ( 'NONE', *, *, #324, .T. ) ;
#424 = ORIENTED_EDGE ( 'NONE', *, *, #63, .F. ) ;
#425 = FACE_OUTER_BOUND ( 'NONE', #30, .T. ) ;
#426 = ORIENTED_EDGE ( 'NONE', *, *, #177, .F. ) ;
#427 = ORIENTED_EDGE ( 'NONE', *, *, #581, .F. ) ;
#428 = EDGE_CURVE ( 'NONE', #340, #261, #107, .T. ) ;
#429 = LINE ( 'NONE', #128, #157 ) ;
#430 = EDGE_CURVE ( 'NONE', #255, #241, #233, .T. ) ;
#431 = DIRECTION ( 'NONE',  ( -0.000000000000000000, 1.000000000000000000, -0.000000000000000000 ) ) ;
#432 = VERTEX_POINT ( 'NONE', #195 ) ;
#433 = ORIENTED_EDGE ( 'NONE', *, *, #586, .F. ) ;
#434 = EDGE_CURVE ( 'NONE', #259, #467, #364, .T. ) ;
#435 = UNCERTAINTY_MEASURE_WITH_UNIT (LENGTH_MEASURE( 1.000000000000000082E-05 ), #212, 'distance_accuracy_value', 'NONE');
#436 = DIRECTION ( 'NONE',  ( -0.000000000000000000, -1.000000000000000000, -0.000000000000000000 ) ) ;
#437 = CARTESIAN_POINT ( 'NONE',  ( 16.00000000000001421, 8.000000000000001776, 0.000000000000000000 ) ) ;
#438 = DIRECTION ( 'NONE',  ( 1.000000000000000000, -0.000000000000000000, 0.000000000000000000 ) ) ;
#439 = VECTOR ( 'NONE', #486, 1000.000000000000000 ) ;
#440 = CARTESIAN_POINT ( 'NONE',  ( 12.20000000000001528, 0.000000000000000000, -140.0000000000000000 ) ) ;
#441 = DIRECTION ( 'NONE',  ( -3.469446951953614189E-16, -0.000000000000000000, 1.000000000000000000 ) ) ;
#442 = EDGE_CURVE ( 'NONE', #97, #414, #337, .T. ) ;
#443 = DIRECTION ( 'NONE',  ( 0.000000000000000000, 0.000000000000000000, -1.000000000000000000 ) ) ;
#444 = AXIS2_PLACEMENT_3D ( 'NONE', #446, #85, #46 ) ;
#445 = VERTEX_POINT ( 'NONE', #510 ) ;
#446 = CARTESIAN_POINT ( 'NONE',  ( 0.000000000000000000, 8.000000000000000000, 0.000000000000000000 ) ) ;
#447 = VECTOR ( 'NONE', #182, 1000.000000000000000 ) ;
#448 = AXIS2_PLACEMENT_3D ( 'NONE', #234, #411, #9 ) ;
#449 = DIRECTION ( 'NONE',  ( 1.000000000000000000, 0.000000000000000000, 0.000000000000000000 ) ) ;
#450 = ORIENTED_EDGE ( 'NONE', *, *, #98, .F. ) ;
#451 = LINE ( 'NONE', #158, #305 ) ;
#452 = EDGE_LOOP ( 'NONE', ( #172, #111, #22, #213, #387, #569, #79, #568 ) ) ;
#453 = PRODUCT_CONTEXT ( 'NONE', #575, 'mechanical' ) ;
#454 = DIRECTION ( 'NONE',  ( -0.000000000000000000, -0.000000000000000000, 1.000000000000000000 ) ) ;
#455 = LINE ( 'NONE', #458, #222 ) ;
#456 = ORIENTED_EDGE ( 'NONE', *, *, #552, .F. ) ;
#457 = DIRECTION ( 'NONE',  ( -1.000000000000000000, -0.000000000000000000, -0.000000000000000000 ) ) ;
#458 = CARTESIAN_POINT ( 'NONE',  ( 0.000000000000000000, 8.000000000000000000, 0.000000000000000000 ) ) ;
#459 = EDGE_CURVE ( 'NONE', #475, #211, #410, .T. ) ;
#460 = ORIENTED_EDGE ( 'NONE', *, *, #430, .T. ) ;
#461 = PLANE ( 'NONE',  #281 ) ;
#462 = CARTESIAN_POINT ( 'NONE',  ( 16.00000000000001421, 18.00000000000000355, -20.00000000000000000 ) ) ;
#463 = FACE_BOUND ( 'NONE', #29, .T. ) ;
#464 = ORIENTED_EDGE ( 'NONE', *, *, #33, .T. ) ;
#465 = VECTOR ( 'NONE', #210, 1000.000000000000000 ) ;
#466 = DIRECTION ( 'NONE',  ( 1.000000000000000000, 0.000000000000000000, 0.000000000000000000 ) ) ;
#467 = VERTEX_POINT ( 'NONE', #326 ) ;
#468 = VECTOR ( 'NONE', #220, 1000.000000000000000 ) ;
#469 = LINE ( 'NONE', #198, #468 ) ;
#470 = ORIENTED_EDGE ( 'NONE', *, *, #572, .F. ) ;
#471 = EDGE_CURVE ( 'NONE', #211, #257, #496, .T. ) ;
#472 = ORIENTED_EDGE ( 'NONE', *, *, #125, .T. ) ;
#473 = LINE ( 'NONE', #77, #502 ) ;
#474 = CARTESIAN_POINT ( 'NONE',  ( 1.224646799147353256E-15, 8.000000000000001776, 20.00000000000000000 ) ) ;
#475 = VERTEX_POINT ( 'NONE', #8 ) ;
#476 = DIRECTION ( 'NONE',  ( 0.000000000000000000, 0.000000000000000000, -1.000000000000000000 ) ) ;
#477 = AXIS2_PLACEMENT_3D ( 'NONE', #487, #535, #322 ) ;
#478 = ADVANCED_FACE ( 'NONE', ( #501 ), #328, .F. ) ;
#479 = AXIS2_PLACEMENT_3D ( 'NONE', #152, #6, #554 ) ;
#480 = DIRECTION ( 'NONE',  ( 1.000000000000000000, -0.000000000000000000, 0.000000000000000000 ) ) ;
#481 = EDGE_CURVE ( 'NONE', #304, #344, #369, .T. ) ;
#482 = CARTESIAN_POINT ( 'NONE',  ( 4.000000000000017764, 8.000000000000001776, 10.00000000000000000 ) ) ;
#483 = FACE_OUTER_BOUND ( 'NONE', #307, .T. ) ;
#484 = PRODUCT_DEFINITION_SHAPE ( 'NONE', 'NONE',  #179 ) ;
#485 = LINE ( 'NONE', #583, #31 ) ;
#486 = DIRECTION ( 'NONE',  ( -1.000000000000000000, -0.000000000000000000, -0.000000000000000000 ) ) ;
#487 = CARTESIAN_POINT ( 'NONE',  ( 0.000000000000000000, 0.000000000000000000, -150.4000000000000057 ) ) ;
#488 = ADVANCED_FACE ( 'NONE', ( #103 ), #287, .F. ) ;
#489 = LINE ( 'NONE', #276, #194 ) ;
#490 = DIRECTION ( 'NONE',  ( -1.000000000000000000, -0.000000000000000000, -0.000000000000000000 ) ) ;
#491 = VECTOR ( 'NONE', #381, 1000.000000000000000 ) ;
#492 = SURFACE_SIDE_STYLE ('',( #226 ) ) ;
#493 = PLANE ( 'NONE',  #444 ) ;
#494 = EDGE_CURVE ( 'NONE', #344, #255, #391, .T. ) ;
#495 = ORIENTED_EDGE ( 'NONE', *, *, #471, .F. ) ;
#496 = LINE ( 'NONE', #96, #180 ) ;
#497 = VECTOR ( 'NONE', #205, 1000.000000000000000 ) ;
#498 = ORIENTED_EDGE ( 'NONE', *, *, #177, .T. ) ;
#499 =( GEOMETRIC_REPRESENTATION_CONTEXT ( 3 ) GLOBAL_UNCERTAINTY_ASSIGNED_CONTEXT ( ( #435 ) ) GLOBAL_UNIT_ASSIGNED_CONTEXT ( ( #212, #106, #553 ) ) REPRESENTATION_CONTEXT ( 'NONE', 'WORKASPACE' ) );
#500 = DIRECTION ( 'NONE',  ( 0.000000000000000000, 0.000000000000000000, -1.000000000000000000 ) ) ;
#501 = FACE_OUTER_BOUND ( 'NONE', #345, .T. ) ;
#502 = VECTOR ( 'NONE', #526, 1000.000000000000000 ) ;
#503 = CARTESIAN_POINT ( 'NONE',  ( 12.20000000000001528, 0.000000000000000000, 0.000000000000000000 ) ) ;
#504 = ORIENTED_EDGE ( 'NONE', *, *, #21, .T. ) ;
#505 = DIRECTION ( 'NONE',  ( -0.000000000000000000, 1.000000000000000000, -0.000000000000000000 ) ) ;
#506 = PLANE ( 'NONE',  #448 ) ;
#507 = EDGE_CURVE ( 'NONE', #279, #28, #341, .T. ) ;
#508 = CARTESIAN_POINT ( 'NONE',  ( 12.20000000000001528, 8.000000000000000000, -150.4000000000000057 ) ) ;
#509 = ORIENTED_EDGE ( 'NONE', *, *, #78, .F. ) ;
#510 = CARTESIAN_POINT ( 'NONE',  ( 12.20000000000001528, 8.000000000000000000, -140.0000000000000000 ) ) ;
#511 = AXIS2_PLACEMENT_3D ( 'NONE', #121, #59, #247 ) ;
#512 = PLANE ( 'NONE',  #136 ) ;
#513 = DIRECTION ( 'NONE',  ( -3.469446951953614189E-16, 0.000000000000000000, 1.000000000000000000 ) ) ;
#514 = CARTESIAN_POINT ( 'NONE',  ( 0.000000000000000000, 0.000000000000000000, -150.4000000000000057 ) ) ;
#515 = ORIENTED_EDGE ( 'NONE', *, *, #41, .F. ) ;
#516 = CARTESIAN_POINT ( 'NONE',  ( 0.000000000000000000, 8.000000000000000000, 0.000000000000000000 ) ) ;
#517 = VERTEX_POINT ( 'NONE', #70 ) ;
#518 = DIRECTION ( 'NONE',  ( -0.000000000000000000, 0.000000000000000000, 1.000000000000000000 ) ) ;
#519 = EDGE_CURVE ( 'NONE', #64, #246, #332, .T. ) ;
#520 = AXIS2_PLACEMENT_3D ( 'NONE', #582, #139, #363 ) ;
#521 = ORIENTED_EDGE ( 'NONE', *, *, #442, .T. ) ;
#522 = ORIENTED_EDGE ( 'NONE', *, *, #253, .F. ) ;
#523 = ORIENTED_EDGE ( 'NONE', *, *, #161, .T. ) ;
#524 = LINE ( 'NONE', #474, #284 ) ;
#525 = EDGE_LOOP ( 'NONE', ( #409, #573, #116, #309 ) ) ;
#526 = DIRECTION ( 'NONE',  ( 1.000000000000000000, 0.000000000000000000, 0.000000000000000000 ) ) ;
#527 = DIRECTION ( 'NONE',  ( 1.000000000000000000, 0.000000000000000000, 0.000000000000000000 ) ) ;
#528 = UNCERTAINTY_MEASURE_WITH_UNIT (LENGTH_MEASURE( 1.000000000000000082E-05 ), #137, 'distance_accuracy_value', 'NONE');
#529 = ORIENTED_EDGE ( 'NONE', *, *, #190, .F. ) ;
#530 = CARTESIAN_POINT ( 'NONE',  ( 3.800000000000013589, 0.000000000000000000, -140.0000000000000000 ) ) ;
#531 = VECTOR ( 'NONE', #335, 1000.000000000000000 ) ;
#532 = FACE_OUTER_BOUND ( 'NONE', #380, .T. ) ;
#533 = LINE ( 'NONE', #570, #361 ) ;
#534 = LINE ( 'NONE', #230, #439 ) ;
#535 = DIRECTION ( 'NONE',  ( 0.000000000000000000, 0.000000000000000000, 1.000000000000000000 ) ) ;
#536 = ADVANCED_FACE ( 'NONE', ( #61 ), #512, .F. ) ;
#537 = CLOSED_SHELL ( 'NONE', ( #536, #310, #282, #289, #92, #401, #225, #543, #488, #229, #386, #186, #278, #317, #362, #240, #52, #478 ) ) ;
#538 = CARTESIAN_POINT ( 'NONE',  ( 4.000000000000015987, 1.734723475976807094E-15, 20.00000000000000000 ) ) ;
#539 = VECTOR ( 'NONE', #490, 1000.000000000000000 ) ;
#540 = DIRECTION ( 'NONE',  ( 1.224646799147353207E-16, -1.000000000000000000, 0.000000000000000000 ) ) ;
#541 = CARTESIAN_POINT ( 'NONE',  ( 3.800000000000013589, 0.000000000000000000, 0.000000000000000000 ) ) ;
#542 = FILL_AREA_STYLE_COLOUR ( '', #149 ) ;
#543 = ADVANCED_FACE ( 'NONE', ( #155 ), #506, .F. ) ;
#544 = DIRECTION ( 'NONE',  ( -0.000000000000000000, 1.000000000000000000, -0.000000000000000000 ) ) ;
#545 = ORIENTED_EDGE ( 'NONE', *, *, #428, .T. ) ;
#546 = DIRECTION ( 'NONE',  ( 1.000000000000000000, 0.000000000000000000, 0.000000000000000000 ) ) ;
#547 = AXIS2_PLACEMENT_3D ( 'NONE', #371, #178, #336 ) ;
#548 = ORIENTED_EDGE ( 'NONE', *, *, #374, .F. ) ;
#549 = CARTESIAN_POINT ( 'NONE',  ( 0.000000000000000000, 8.000000000000000000, -160.0000000000000000 ) ) ;
#550 = DIRECTION ( 'NONE',  ( 1.000000000000000000, 0.000000000000000000, 0.000000000000000000 ) ) ;
#551 = ORIENTED_EDGE ( 'NONE', *, *, #200, .T. ) ;
#552 = EDGE_CURVE ( 'NONE', #241, #261, #292, .T. ) ;
#553 =( NAMED_UNIT ( * ) SI_UNIT ( $, .STERADIAN. ) SOLID_ANGLE_UNIT ( ) );
#554 = DIRECTION ( 'NONE',  ( 1.000000000000000000, 0.000000000000000000, -0.000000000000000000 ) ) ;
#555 = VECTOR ( 'NONE', #359, 1000.000000000000000 ) ;
#556 = CARTESIAN_POINT ( 'NONE',  ( 16.00000000000001421, 8.000000000000000000, 0.000000000000000000 ) ) ;
#557 = ORIENTED_EDGE ( 'NONE', *, *, #12, .F. ) ;
#558 = DIRECTION ( 'NONE',  ( 1.000000000000000000, 0.000000000000000000, -0.000000000000000000 ) ) ;
#559 = CARTESIAN_POINT ( 'NONE',  ( 12.00000000000001421, 1.734723475976807094E-15, 20.00000000000000000 ) ) ;
#560 = VERTEX_POINT ( 'NONE', #462 ) ;
#561 = CARTESIAN_POINT ( 'NONE',  ( 12.20000000000001528, 0.000000000000000000, -150.4000000000000057 ) ) ;
#562 = EDGE_CURVE ( 'NONE', #445, #246, #249, .T. ) ;
#563 = LINE ( 'NONE', #530, #497 ) ;
#564 = ORIENTED_EDGE ( 'NONE', *, *, #367, .F. ) ;
#565 = DIRECTION ( 'NONE',  ( 0.000000000000000000, 0.000000000000000000, -1.000000000000000000 ) ) ;
#566 = VECTOR ( 'NONE', #393, 1000.000000000000000 ) ;
#567 = ORIENTED_EDGE ( 'NONE', *, *, #338, .F. ) ;
#568 = ORIENTED_EDGE ( 'NONE', *, *, #471, .T. ) ;
#569 = ORIENTED_EDGE ( 'NONE', *, *, #147, .T. ) ;
#570 = CARTESIAN_POINT ( 'NONE',  ( 12.00000000000001776, 1.734723475976807094E-15, 10.00000000000000000 ) ) ;
#571 = EDGE_LOOP ( 'NONE', ( #370, #523, #347, #348 ) ) ;
#572 = EDGE_CURVE ( 'NONE', #352, #2, #524, .T. ) ;
#573 = ORIENTED_EDGE ( 'NONE', *, *, #209, .T. ) ;
#574 = LINE ( 'NONE', #389, #539 ) ;
#575 = APPLICATION_CONTEXT ( 'automotive_design' ) ;
#576 = PRODUCT_DEFINITION_CONTEXT ( 'detailed design', #20, 'design' ) ;
#577 = PLANE ( 'NONE',  #547 ) ;
#578 = LINE ( 'NONE', #181, #302 ) ;
#579 = VECTOR ( 'NONE', #480, 1000.000000000000000 ) ;
#580 = LINE ( 'NONE', #541, #447 ) ;
#581 = EDGE_CURVE ( 'NONE', #334, #47, #65, .T. ) ;
#582 = CARTESIAN_POINT ( 'NONE',  ( 0.000000000000000000, 8.000000000000000000, 0.000000000000000000 ) ) ;
#583 = CARTESIAN_POINT ( 'NONE',  ( 4.000000000000017764, 1.734723475976807094E-15, 10.00000000000000000 ) ) ;
#584 = PLANE ( 'NONE',  #235 ) ;
#585 = VECTOR ( 'NONE', #270, 1000.000000000000000 ) ;
#586 = EDGE_CURVE ( 'NONE', #2, #255, #258, .T. ) ;
#587 = PRESENTATION_STYLE_ASSIGNMENT (( #93 ) ) ;
ENDSEC;
END-ISO-10303-21;
