ISO-10303-21;
HEADER;
FILE_DESCRIPTION (( 'STEP AP214' ),
    '1' );
FILE_NAME ('¶Å°îÏß¹Ì¶¨°å.STEP',
    '2026-07-31T12:50:36',
    ( '' ),
    ( '' ),
    'SwSTEP 2.0',
    'SolidWorks 2024',
    '' );
FILE_SCHEMA (( 'AUTOMOTIVE_DESIGN' ));
ENDSEC;

DATA;
#1 = CARTESIAN_POINT ( 'NONE',  ( 0.000000000000000000, 0.000000000000000000, 0.000000000000000000 ) ) ;
#2 = FACE_OUTER_BOUND ( 'NONE', #17, .T. ) ;
#3 = ADVANCED_FACE ( 'NONE', ( #207 ), #100, .T. ) ;
#4 = APPLICATION_CONTEXT ( 'automotive_design' ) ;
#5 = CARTESIAN_POINT ( 'NONE',  ( 20.00000000000000000, 0.000000000000000000, -3.000000000000000000 ) ) ;
#6 = VERTEX_POINT ( 'NONE', #51 ) ;
#7 = VECTOR ( 'NONE', #226, 1000.000000000000000 ) ;
#8 = ORIENTED_EDGE ( 'NONE', *, *, #61, .T. ) ;
#9 = DIRECTION ( 'NONE',  ( 0.000000000000000000, 0.000000000000000000, 1.000000000000000000 ) ) ;
#10 = ADVANCED_FACE ( 'NONE', ( #276 ), #181, .F. ) ;
#11 = FILL_AREA_STYLE ('',( #142 ) ) ;
#12 = VECTOR ( 'NONE', #45, 1000.000000000000000 ) ;
#13 = VERTEX_POINT ( 'NONE', #54 ) ;
#14 = ORIENTED_EDGE ( 'NONE', *, *, #24, .F. ) ;
#15 =( LENGTH_UNIT ( ) NAMED_UNIT ( * ) SI_UNIT ( .MILLI., .METRE. ) );
#16 = EDGE_CURVE ( 'NONE', #267, #189, #35, .T. ) ;
#17 = EDGE_LOOP ( 'NONE', ( #125, #46, #285, #8 ) ) ;
#18 = PRODUCT_DEFINITION_CONTEXT ( 'detailed design', #111, 'design' ) ;
#19 =( NAMED_UNIT ( * ) SI_UNIT ( $, .STERADIAN. ) SOLID_ANGLE_UNIT ( ) );
#20 = ORIENTED_EDGE ( 'NONE', *, *, #195, .F. ) ;
#21 = AXIS2_PLACEMENT_3D ( 'NONE', #246, #164, #214 ) ;
#22 = CARTESIAN_POINT ( 'NONE',  ( 0.000000000000000000, 3.000000000000000000, -3.000000000000000000 ) ) ;
#23 = ORIENTED_EDGE ( 'NONE', *, *, #319, .F. ) ;
#24 = EDGE_CURVE ( 'NONE', #203, #71, #156, .T. ) ;
#25 = DIRECTION ( 'NONE',  ( 0.000000000000000000, -1.000000000000000000, 0.000000000000000000 ) ) ;
#26 = ORIENTED_EDGE ( 'NONE', *, *, #61, .F. ) ;
#27 = DIRECTION ( 'NONE',  ( -0.000000000000000000, 1.000000000000000000, -0.000000000000000000 ) ) ;
#28 = DIRECTION ( 'NONE',  ( 1.000000000000000000, 0.000000000000000000, 0.000000000000000000 ) ) ;
#29 = DIRECTION ( 'NONE',  ( 0.000000000000000000, 0.000000000000000000, -1.000000000000000000 ) ) ;
#30 =( NAMED_UNIT ( * ) SI_UNIT ( $, .STERADIAN. ) SOLID_ANGLE_UNIT ( ) );
#31 = DIRECTION ( 'NONE',  ( -1.000000000000000000, 0.000000000000000000, 0.000000000000000000 ) ) ;
#32 = CARTESIAN_POINT ( 'NONE',  ( 3.000000000000000000, 3.000000000000000000, 0.000000000000000000 ) ) ;
#33 = FACE_OUTER_BOUND ( 'NONE', #243, .T. ) ;
#34 = VECTOR ( 'NONE', #269, 1000.000000000000000 ) ;
#35 = CIRCLE ( 'NONE', #315, 3.000000000000002665 ) ;
#36 = ORIENTED_EDGE ( 'NONE', *, *, #16, .T. ) ;
#37 = CARTESIAN_POINT ( 'NONE',  ( 20.00000000000000000, 3.000000000000000000, -37.00000000000000000 ) ) ;
#38 = CARTESIAN_POINT ( 'NONE',  ( 3.000000000000000000, 3.000000000000000000, -3.000000000000000000 ) ) ;
#39 = EDGE_CURVE ( 'NONE', #167, #189, #48, .T. ) ;
#40 = CARTESIAN_POINT ( 'NONE',  ( 3.000000000000000000, 0.000000000000000000, 0.000000000000000000 ) ) ;
#41 = DIRECTION ( 'NONE',  ( 0.000000000000000000, -1.000000000000000000, 0.000000000000000000 ) ) ;
#42 = ORIENTED_EDGE ( 'NONE', *, *, #77, .F. ) ;
#43 = AXIS2_PLACEMENT_3D ( 'NONE', #82, #209, #186 ) ;
#44 = ORIENTED_EDGE ( 'NONE', *, *, #325, .T. ) ;
#45 = DIRECTION ( 'NONE',  ( -0.000000000000000000, -1.000000000000000000, 0.000000000000000000 ) ) ;
#46 = ORIENTED_EDGE ( 'NONE', *, *, #265, .T. ) ;
#47 = CARTESIAN_POINT ( 'NONE',  ( 20.00000000000000000, 3.000000000000000000, -3.000000000000000000 ) ) ;
#48 = LINE ( 'NONE', #124, #217 ) ;
#49 = PLANE ( 'NONE',  #74 ) ;
#50 = AXIS2_PLACEMENT_3D ( 'NONE', #1, #25, #102 ) ;
#51 = CARTESIAN_POINT ( 'NONE',  ( 3.000000000000000000, 3.000000000000000000, 0.000000000000000000 ) ) ;
#52 = LINE ( 'NONE', #32, #109 ) ;
#53 = ADVANCED_FACE ( 'NONE', ( #33 ), #152, .T. ) ;
#54 = CARTESIAN_POINT ( 'NONE',  ( 3.000000000000000000, 3.000000000000000000, -40.00000000000000000 ) ) ;
#55 = CARTESIAN_POINT ( 'NONE',  ( 17.00000000000000000, 3.000000000000000000, -40.00000000000000000 ) ) ;
#56 = AXIS2_PLACEMENT_3D ( 'NONE', #280, #31, #78 ) ;
#57 = ADVANCED_FACE ( 'NONE', ( #105 ), #307, .F. ) ;
#58 = CARTESIAN_POINT ( 'NONE',  ( 0.000000000000000000, 0.000000000000000000, 0.000000000000000000 ) ) ;
#59 = ORIENTED_EDGE ( 'NONE', *, *, #120, .T. ) ;
#60 = DIRECTION ( 'NONE',  ( 0.000000000000000000, 0.000000000000000000, -1.000000000000000000 ) ) ;
#61 = EDGE_CURVE ( 'NONE', #189, #13, #81, .T. ) ;
#62 = DIRECTION ( 'NONE',  ( 0.000000000000000000, 1.000000000000000000, -0.000000000000000000 ) ) ;
#63 = ORIENTED_EDGE ( 'NONE', *, *, #202, .T. ) ;
#64 = DIRECTION ( 'NONE',  ( 1.000000000000000000, -0.000000000000000000, 0.000000000000000000 ) ) ;
#65 = ORIENTED_EDGE ( 'NONE', *, *, #236, .T. ) ;
#66 = VECTOR ( 'NONE', #242, 1000.000000000000000 ) ;
#67 = ORIENTED_EDGE ( 'NONE', *, *, #193, .F. ) ;
#68 = PLANE ( 'NONE',  #310 ) ;
#69 = EDGE_LOOP ( 'NONE', ( #261, #249, #220, #174, #103, #292, #42, #36 ) ) ;
#70 = CARTESIAN_POINT ( 'NONE',  ( 20.00000000000000000, 0.000000000000000000, 0.000000000000000000 ) ) ;
#71 = VERTEX_POINT ( 'NONE', #5 ) ;
#72 = CARTESIAN_POINT ( 'NONE',  ( 0.000000000000000000, 0.000000000000000000, -37.00000000000000000 ) ) ;
#73 = ADVANCED_FACE ( 'NONE', ( #191 ), #288, .T. ) ;
#74 = AXIS2_PLACEMENT_3D ( 'NONE', #224, #253, #282 ) ;
#75 = DIRECTION ( 'NONE',  ( -1.000000000000000000, -0.000000000000000000, -0.000000000000000000 ) ) ;
#76 = LINE ( 'NONE', #208, #213 ) ;
#77 = EDGE_CURVE ( 'NONE', #267, #161, #163, .T. ) ;
#78 = DIRECTION ( 'NONE',  ( 0.000000000000000000, 0.000000000000000000, 1.000000000000000000 ) ) ;
#79 = CIRCLE ( 'NONE', #252, 3.000000000000000000 ) ;
#80 = ORIENTED_EDGE ( 'NONE', *, *, #259, .F. ) ;
#81 = LINE ( 'NONE', #234, #231 ) ;
#82 = CARTESIAN_POINT ( 'NONE',  ( 0.000000000000000000, 3.000000000000000000, 0.000000000000000000 ) ) ;
#83 = ORIENTED_EDGE ( 'NONE', *, *, #223, .T. ) ;
#84 = CIRCLE ( 'NONE', #182, 3.000000000000002665 ) ;
#85 = DIRECTION ( 'NONE',  ( 0.000000000000000000, -0.000000000000000000, -1.000000000000000000 ) ) ;
#86 = CARTESIAN_POINT ( 'NONE',  ( 3.000000000000000000, 3.000000000000000000, -37.00000000000000000 ) ) ;
#87 = ORIENTED_EDGE ( 'NONE', *, *, #291, .T. ) ;
#88 = SHAPE_DEFINITION_REPRESENTATION ( #112, #171 ) ;
#89 = VECTOR ( 'NONE', #148, 1000.000000000000000 ) ;
#90 = SURFACE_STYLE_USAGE ( .BOTH. , #313 ) ;
#91 = VERTEX_POINT ( 'NONE', #266 ) ;
#92 = LINE ( 'NONE', #22, #210 ) ;
#93 = ORIENTED_EDGE ( 'NONE', *, *, #195, .T. ) ;
#94 = EDGE_CURVE ( 'NONE', #139, #244, #121, .T. ) ;
#95 = LINE ( 'NONE', #55, #7 ) ;
#96 = ORIENTED_EDGE ( 'NONE', *, *, #303, .F. ) ;
#97 = DIRECTION ( 'NONE',  ( 0.000000000000000000, -1.000000000000000000, 0.000000000000000000 ) ) ;
#98 = PRESENTATION_LAYER_ASSIGNMENT (  '', '', ( #130 ) ) ;
#99 = CYLINDRICAL_SURFACE ( 'NONE', #160, 3.000000000000002665 ) ;
#100 = CYLINDRICAL_SURFACE ( 'NONE', #144, 3.000000000000000000 ) ;
#101 = EDGE_CURVE ( 'NONE', #167, #147, #245, .T. ) ;
#102 = DIRECTION ( 'NONE',  ( 0.000000000000000000, -0.000000000000000000, -1.000000000000000000 ) ) ;
#103 = ORIENTED_EDGE ( 'NONE', *, *, #94, .F. ) ;
#104 = CARTESIAN_POINT ( 'NONE',  ( 0.000000000000000000, 3.000000000000000000, 0.000000000000000000 ) ) ;
#105 = FACE_OUTER_BOUND ( 'NONE', #165, .T. ) ;
#106 = VECTOR ( 'NONE', #230, 1000.000000000000000 ) ;
#107 = VECTOR ( 'NONE', #28, 1000.000000000000000 ) ;
#108 = PRODUCT_CONTEXT ( 'NONE', #4, 'mechanical' ) ;
#109 = VECTOR ( 'NONE', #304, 1000.000000000000000 ) ;
#110 = EDGE_CURVE ( 'NONE', #147, #172, #272, .T. ) ;
#111 = APPLICATION_CONTEXT ( 'automotive_design' ) ;
#112 = PRODUCT_DEFINITION_SHAPE ( 'NONE', 'NONE',  #150 ) ;
#113 = CARTESIAN_POINT ( 'NONE',  ( 17.00000000000000000, 0.000000000000000000, -40.00000000000000000 ) ) ;
#114 = MANIFOLD_SOLID_BREP ( '\X2\570689d2\X0\1', #190 ) ;
#115 = CARTESIAN_POINT ( 'NONE',  ( 0.000000000000000000, 0.000000000000000000, -3.000000000000000000 ) ) ;
#116 = EDGE_LOOP ( 'NONE', ( #63, #65, #44, #143, #241, #93, #218, #83 ) ) ;
#117 = VECTOR ( 'NONE', #146, 1000.000000000000000 ) ;
#118 = CARTESIAN_POINT ( 'NONE',  ( 20.00000000000000000, 3.000000000000000000, -37.00000000000000000 ) ) ;
#119 = EDGE_LOOP ( 'NONE', ( #67, #26, #200, #270 ) ) ;
#120 = EDGE_CURVE ( 'NONE', #161, #299, #92, .T. ) ;
#121 = LINE ( 'NONE', #296, #258 ) ;
#122 = ORIENTED_EDGE ( 'NONE', *, *, #110, .T. ) ;
#123 = CARTESIAN_POINT ( 'NONE',  ( 17.00000000000000000, 0.000000000000000000, -3.000000000000000000 ) ) ;
#124 = CARTESIAN_POINT ( 'NONE',  ( 0.000000000000000000, 0.000000000000000000, -40.00000000000000000 ) ) ;
#125 = ORIENTED_EDGE ( 'NONE', *, *, #325, .F. ) ;
#126 = CARTESIAN_POINT ( 'NONE',  ( 17.00000000000000000, 3.000000000000000000, -37.00000000000000000 ) ) ;
#127 = FACE_OUTER_BOUND ( 'NONE', #69, .T. ) ;
#128 = LINE ( 'NONE', #306, #106 ) ;
#129 = DIRECTION ( 'NONE',  ( 0.000000000000000000, 0.000000000000000000, -1.000000000000000000 ) ) ;
#130 = STYLED_ITEM ( 'NONE', ( #320 ), #114 ) ;
#131 = APPLICATION_PROTOCOL_DEFINITION ( 'draft international standard', 'automotive_design', 1998, #4 ) ;
#132 = DIRECTION ( 'NONE',  ( 0.000000000000000000, -1.000000000000000000, 0.000000000000000000 ) ) ;
#133 = ADVANCED_FACE ( 'NONE', ( #173 ), #68, .F. ) ;
#134 = EDGE_CURVE ( 'NONE', #177, #299, #199, .T. ) ;
#135 = DIRECTION ( 'NONE',  ( 0.000000000000000000, 0.000000000000000000, -1.000000000000000000 ) ) ;
#136 = AXIS2_PLACEMENT_3D ( 'NONE', #58, #9, #185 ) ;
#137 = ORIENTED_EDGE ( 'NONE', *, *, #94, .T. ) ;
#138 = FACE_OUTER_BOUND ( 'NONE', #225, .T. ) ;
#139 = VERTEX_POINT ( 'NONE', #40 ) ;
#140 = LINE ( 'NONE', #70, #66 ) ;
#141 = EDGE_LOOP ( 'NONE', ( #271, #305, #228, #273 ) ) ;
#142 = FILL_AREA_STYLE_COLOUR ( '', #295 ) ;
#143 = ORIENTED_EDGE ( 'NONE', *, *, #193, .T. ) ;
#144 = AXIS2_PLACEMENT_3D ( 'NONE', #179, #283, #183 ) ;
#145 = MECHANICAL_DESIGN_GEOMETRIC_PRESENTATION_REPRESENTATION (  '', ( #130 ), #233 ) ;
#146 = DIRECTION ( 'NONE',  ( -0.000000000000000000, -0.000000000000000000, 1.000000000000000000 ) ) ;
#147 = VERTEX_POINT ( 'NONE', #290 ) ;
#148 = DIRECTION ( 'NONE',  ( 0.000000000000000000, 0.000000000000000000, -1.000000000000000000 ) ) ;
#149 = DIRECTION ( 'NONE',  ( 0.000000000000000000, -1.000000000000000000, 0.000000000000000000 ) ) ;
#150 = PRODUCT_DEFINITION ( 'æœ', '', #237, #18 ) ;
#151 =( LENGTH_UNIT ( ) NAMED_UNIT ( * ) SI_UNIT ( .MILLI., .METRE. ) );
#152 = CYLINDRICAL_SURFACE ( 'NONE', #293, 3.000000000000000000 ) ;
#153 = CARTESIAN_POINT ( 'NONE',  ( 17.00000000000000000, 0.000000000000000000, 0.000000000000000000 ) ) ;
#154 = CARTESIAN_POINT ( 'NONE',  ( 17.00000000000000000, 3.000000000000000000, -3.000000000000000000 ) ) ;
#155 = CARTESIAN_POINT ( 'NONE',  ( 3.000000000000000000, 0.000000000000000000, -37.00000000000000000 ) ) ;
#156 = LINE ( 'NONE', #257, #324 ) ;
#157 = EDGE_CURVE ( 'NONE', #71, #147, #140, .T. ) ;
#158 =( GEOMETRIC_REPRESENTATION_CONTEXT ( 3 ) GLOBAL_UNCERTAINTY_ASSIGNED_CONTEXT ( ( #187 ) ) GLOBAL_UNIT_ASSIGNED_CONTEXT ( ( #151, #255, #30 ) ) REPRESENTATION_CONTEXT ( 'NONE', 'WORKASPACE' ) );
#159 = APPLICATION_PROTOCOL_DEFINITION ( 'draft international standard', 'automotive_design', 1998, #111 ) ;
#160 = AXIS2_PLACEMENT_3D ( 'NONE', #205, #176, #129 ) ;
#161 = VERTEX_POINT ( 'NONE', #115 ) ;
#162 = AXIS2_PLACEMENT_3D ( 'NONE', #168, #41, #192 ) ;
#163 = LINE ( 'NONE', #294, #34 ) ;
#164 = DIRECTION ( 'NONE',  ( 0.000000000000000000, -1.000000000000000000, 0.000000000000000000 ) ) ;
#165 = EDGE_LOOP ( 'NONE', ( #80, #87, #137, #297 ) ) ;
#166 = DIRECTION ( 'NONE',  ( 0.000000000000000000, 0.000000000000000000, -1.000000000000000000 ) ) ;
#167 = VERTEX_POINT ( 'NONE', #113 ) ;
#168 = CARTESIAN_POINT ( 'NONE',  ( 17.00000000000000000, 0.000000000000000000, -37.00000000000000000 ) ) ;
#169 = EDGE_CURVE ( 'NONE', #139, #161, #196, .T. ) ;
#170 = DIRECTION ( 'NONE',  ( 0.000000000000000000, -1.000000000000000000, 0.000000000000000000 ) ) ;
#171 = ADVANCED_BREP_SHAPE_REPRESENTATION ( '\X2\675c90a67ebf56fa5b9a677f\X0\', ( #114, #136 ), #158 ) ;
#172 = VERTEX_POINT ( 'NONE', #37 ) ;
#173 = FACE_OUTER_BOUND ( 'NONE', #116, .T. ) ;
#174 = ORIENTED_EDGE ( 'NONE', *, *, #319, .T. ) ;
#175 = AXIS2_PLACEMENT_3D ( 'NONE', #178, #204, #279 ) ;
#176 = DIRECTION ( 'NONE',  ( -0.000000000000000000, -1.000000000000000000, 0.000000000000000000 ) ) ;
#177 = VERTEX_POINT ( 'NONE', #216 ) ;
#178 = CARTESIAN_POINT ( 'NONE',  ( 17.00000000000000000, 3.000000000000000000, -3.000000000000000000 ) ) ;
#179 = CARTESIAN_POINT ( 'NONE',  ( 3.000000000000000000, 3.000000000000000000, -3.000000000000000000 ) ) ;
#180 = DIRECTION ( 'NONE',  ( -0.000000000000000000, 1.000000000000000000, -0.000000000000000000 ) ) ;
#181 = PLANE ( 'NONE',  #56 ) ;
#182 = AXIS2_PLACEMENT_3D ( 'NONE', #86, #194, #166 ) ;
#183 = DIRECTION ( 'NONE',  ( 0.000000000000000000, 0.000000000000000000, -1.000000000000000000 ) ) ;
#184 = ADVANCED_FACE ( 'NONE', ( #138 ), #316, .F. ) ;
#185 = DIRECTION ( 'NONE',  ( 1.000000000000000000, 0.000000000000000000, 0.000000000000000000 ) ) ;
#186 = DIRECTION ( 'NONE',  ( -1.000000000000000000, 0.000000000000000000, -0.000000000000000000 ) ) ;
#187 = UNCERTAINTY_MEASURE_WITH_UNIT (LENGTH_MEASURE( 1.000000000000000082E-05 ), #151, 'distance_accuracy_value', 'NONE');
#188 = CARTESIAN_POINT ( 'NONE',  ( 17.00000000000000000, 3.000000000000000000, -37.00000000000000000 ) ) ;
#189 = VERTEX_POINT ( 'NONE', #311 ) ;
#190 = CLOSED_SHELL ( 'NONE', ( #184, #57, #10, #229, #133, #308, #73, #278, #3, #53 ) ) ;
#191 = FACE_OUTER_BOUND ( 'NONE', #141, .T. ) ;
#192 = DIRECTION ( 'NONE',  ( 0.000000000000000000, 0.000000000000000000, -1.000000000000000000 ) ) ;
#193 = EDGE_CURVE ( 'NONE', #13, #177, #84, .T. ) ;
#194 = DIRECTION ( 'NONE',  ( -0.000000000000000000, 1.000000000000000000, -0.000000000000000000 ) ) ;
#195 = EDGE_CURVE ( 'NONE', #299, #6, #79, .T. ) ;
#196 = CIRCLE ( 'NONE', #21, 3.000000000000000000 ) ;
#197 =( NAMED_UNIT ( * ) PLANE_ANGLE_UNIT ( ) SI_UNIT ( $, .RADIAN. ) );
#198 = ORIENTED_EDGE ( 'NONE', *, *, #223, .F. ) ;
#199 = LINE ( 'NONE', #298, #117 ) ;
#200 = ORIENTED_EDGE ( 'NONE', *, *, #16, .F. ) ;
#201 = CARTESIAN_POINT ( 'NONE',  ( 20.00000000000000000, 3.000000000000000000, 0.000000000000000000 ) ) ;
#202 = EDGE_CURVE ( 'NONE', #203, #172, #323, .T. ) ;
#203 = VERTEX_POINT ( 'NONE', #47 ) ;
#204 = DIRECTION ( 'NONE',  ( -0.000000000000000000, 1.000000000000000000, -0.000000000000000000 ) ) ;
#205 = CARTESIAN_POINT ( 'NONE',  ( 3.000000000000000000, 3.000000000000000000, -37.00000000000000000 ) ) ;
#206 = CARTESIAN_POINT ( 'NONE',  ( 0.000000000000000000, 3.000000000000000000, -3.000000000000000000 ) ) ;
#207 = FACE_OUTER_BOUND ( 'NONE', #277, .T. ) ;
#208 = CARTESIAN_POINT ( 'NONE',  ( 17.00000000000000000, 3.000000000000000000, 0.000000000000000000 ) ) ;
#209 = DIRECTION ( 'NONE',  ( 0.000000000000000000, 0.000000000000000000, -1.000000000000000000 ) ) ;
#210 = VECTOR ( 'NONE', #62, 1000.000000000000000 ) ;
#211 = UNCERTAINTY_MEASURE_WITH_UNIT (LENGTH_MEASURE( 1.000000000000000082E-05 ), #15, 'distance_accuracy_value', 'NONE');
#212 = AXIS2_PLACEMENT_3D ( 'NONE', #188, #132, #60 ) ;
#213 = VECTOR ( 'NONE', #180, 1000.000000000000000 ) ;
#214 = DIRECTION ( 'NONE',  ( 0.000000000000000000, 0.000000000000000000, -1.000000000000000000 ) ) ;
#215 = DIRECTION ( 'NONE',  ( 1.000000000000000000, 0.000000000000000000, 0.000000000000000000 ) ) ;
#216 = CARTESIAN_POINT ( 'NONE',  ( 0.000000000000000000, 3.000000000000000000, -37.00000000000000000 ) ) ;
#217 = VECTOR ( 'NONE', #75, 1000.000000000000000 ) ;
#218 = ORIENTED_EDGE ( 'NONE', *, *, #259, .T. ) ;
#219 = DIRECTION ( 'NONE',  ( -0.000000000000000000, 1.000000000000000000, -0.000000000000000000 ) ) ;
#220 = ORIENTED_EDGE ( 'NONE', *, *, #157, .F. ) ;
#221 = SURFACE_STYLE_FILL_AREA ( #11 ) ;
#222 = ORIENTED_EDGE ( 'NONE', *, *, #169, .F. ) ;
#223 = EDGE_CURVE ( 'NONE', #317, #203, #274, .T. ) ;
#224 = CARTESIAN_POINT ( 'NONE',  ( 0.000000000000000000, 3.000000000000000000, -40.00000000000000000 ) ) ;
#225 = EDGE_LOOP ( 'NONE', ( #312, #321, #326, #59 ) ) ;
#226 = DIRECTION ( 'NONE',  ( 0.000000000000000000, -1.000000000000000000, 0.000000000000000000 ) ) ;
#227 = PLANE ( 'NONE',  #50 ) ;
#228 = ORIENTED_EDGE ( 'NONE', *, *, #101, .F. ) ;
#229 = ADVANCED_FACE ( 'NONE', ( #2 ), #49, .F. ) ;
#230 = DIRECTION ( 'NONE',  ( -1.000000000000000000, -0.000000000000000000, -0.000000000000000000 ) ) ;
#231 = VECTOR ( 'NONE', #284, 1000.000000000000000 ) ;
#232 = AXIS2_PLACEMENT_3D ( 'NONE', #123, #97, #301 ) ;
#233 =( GEOMETRIC_REPRESENTATION_CONTEXT ( 3 ) GLOBAL_UNCERTAINTY_ASSIGNED_CONTEXT ( ( #211 ) ) GLOBAL_UNIT_ASSIGNED_CONTEXT ( ( #15, #197, #19 ) ) REPRESENTATION_CONTEXT ( 'NONE', 'WORKASPACE' ) );
#234 = CARTESIAN_POINT ( 'NONE',  ( 3.000000000000000000, 3.000000000000000000, -40.00000000000000000 ) ) ;
#235 = ORIENTED_EDGE ( 'NONE', *, *, #24, .T. ) ;
#236 = EDGE_CURVE ( 'NONE', #172, #91, #260, .T. ) ;
#237 = PRODUCT_DEFINITION_FORMATION_WITH_SPECIFIED_SOURCE ( 'ä»', '', #268, .NOT_KNOWN. ) ;
#238 = CARTESIAN_POINT ( 'NONE',  ( 0.000000000000000000, 3.000000000000000000, 0.000000000000000000 ) ) ;
#239 = ORIENTED_EDGE ( 'NONE', *, *, #202, .F. ) ;
#240 = DIRECTION ( 'NONE',  ( -0.000000000000000000, 1.000000000000000000, -0.000000000000000000 ) ) ;
#241 = ORIENTED_EDGE ( 'NONE', *, *, #134, .T. ) ;
#242 = DIRECTION ( 'NONE',  ( 0.000000000000000000, 0.000000000000000000, -1.000000000000000000 ) ) ;
#243 = EDGE_LOOP ( 'NONE', ( #198, #96, #23, #14 ) ) ;
#244 = VERTEX_POINT ( 'NONE', #153 ) ;
#245 = CIRCLE ( 'NONE', #162, 3.000000000000002665 ) ;
#246 = CARTESIAN_POINT ( 'NONE',  ( 3.000000000000000000, 0.000000000000000000, -3.000000000000000000 ) ) ;
#247 = ORIENTED_EDGE ( 'NONE', *, *, #157, .T. ) ;
#248 = CARTESIAN_POINT ( 'NONE',  ( 0.000000000000000000, 3.000000000000000000, -37.00000000000000000 ) ) ;
#249 = ORIENTED_EDGE ( 'NONE', *, *, #101, .T. ) ;
#250 = DIRECTION ( 'NONE',  ( 0.000000000000000000, 0.000000000000000000, -1.000000000000000000 ) ) ;
#251 = CIRCLE ( 'NONE', #232, 3.000000000000000000 ) ;
#252 = AXIS2_PLACEMENT_3D ( 'NONE', #38, #240, #250 ) ;
#253 = DIRECTION ( 'NONE',  ( 0.000000000000000000, 0.000000000000000000, 1.000000000000000000 ) ) ;
#254 = DIRECTION ( 'NONE',  ( 0.000000000000000000, -1.000000000000000000, 0.000000000000000000 ) ) ;
#255 =( NAMED_UNIT ( * ) PLANE_ANGLE_UNIT ( ) SI_UNIT ( $, .RADIAN. ) );
#256 = DIRECTION ( 'NONE',  ( 0.000000000000000000, 0.000000000000000000, -1.000000000000000000 ) ) ;
#257 = CARTESIAN_POINT ( 'NONE',  ( 20.00000000000000000, 3.000000000000000000, -3.000000000000000000 ) ) ;
#258 = VECTOR ( 'NONE', #215, 1000.000000000000000 ) ;
#259 = EDGE_CURVE ( 'NONE', #6, #317, #300, .T. ) ;
#260 = CIRCLE ( 'NONE', #263, 3.000000000000002665 ) ;
#261 = ORIENTED_EDGE ( 'NONE', *, *, #39, .F. ) ;
#262 = PRODUCT_RELATED_PRODUCT_CATEGORY ( 'part', '', ( #268 ) ) ;
#263 = AXIS2_PLACEMENT_3D ( 'NONE', #126, #27, #322 ) ;
#264 = CARTESIAN_POINT ( 'NONE',  ( 0.000000000000000000, 3.000000000000000000, 0.000000000000000000 ) ) ;
#265 = EDGE_CURVE ( 'NONE', #91, #167, #95, .T. ) ;
#266 = CARTESIAN_POINT ( 'NONE',  ( 17.00000000000000000, 3.000000000000000000, -40.00000000000000000 ) ) ;
#267 = VERTEX_POINT ( 'NONE', #72 ) ;
#268 = PRODUCT ( '\X2\675c90a67ebf56fa5b9a677f\X0\', '\X2\675c90a67ebf56fa5b9a677f\X0\', '', ( #108 ) ) ;
#269 = DIRECTION ( 'NONE',  ( -0.000000000000000000, -0.000000000000000000, 1.000000000000000000 ) ) ;
#270 = ORIENTED_EDGE ( 'NONE', *, *, #287, .F. ) ;
#271 = ORIENTED_EDGE ( 'NONE', *, *, #236, .F. ) ;
#272 = LINE ( 'NONE', #118, #289 ) ;
#273 = ORIENTED_EDGE ( 'NONE', *, *, #265, .F. ) ;
#274 = CIRCLE ( 'NONE', #175, 3.000000000000000000 ) ;
#275 = LINE ( 'NONE', #248, #12 ) ;
#276 = FACE_OUTER_BOUND ( 'NONE', #286, .T. ) ;
#277 = EDGE_LOOP ( 'NONE', ( #20, #314, #222, #309 ) ) ;
#278 = ADVANCED_FACE ( 'NONE', ( #327 ), #99, .T. ) ;
#279 = DIRECTION ( 'NONE',  ( 0.000000000000000000, 0.000000000000000000, -1.000000000000000000 ) ) ;
#280 = CARTESIAN_POINT ( 'NONE',  ( 20.00000000000000000, 3.000000000000000000, 0.000000000000000000 ) ) ;
#281 = CARTESIAN_POINT ( 'NONE',  ( 17.00000000000000000, 3.000000000000000000, 0.000000000000000000 ) ) ;
#282 = DIRECTION ( 'NONE',  ( 1.000000000000000000, 0.000000000000000000, -0.000000000000000000 ) ) ;
#283 = DIRECTION ( 'NONE',  ( 0.000000000000000000, -1.000000000000000000, 0.000000000000000000 ) ) ;
#284 = DIRECTION ( 'NONE',  ( -0.000000000000000000, 1.000000000000000000, -0.000000000000000000 ) ) ;
#285 = ORIENTED_EDGE ( 'NONE', *, *, #39, .T. ) ;
#286 = EDGE_LOOP ( 'NONE', ( #247, #122, #239, #235 ) ) ;
#287 = EDGE_CURVE ( 'NONE', #177, #267, #275, .T. ) ;
#288 = CYLINDRICAL_SURFACE ( 'NONE', #212, 3.000000000000002665 ) ;
#289 = VECTOR ( 'NONE', #219, 1000.000000000000000 ) ;
#290 = CARTESIAN_POINT ( 'NONE',  ( 20.00000000000000000, 0.000000000000000000, -37.00000000000000000 ) ) ;
#291 = EDGE_CURVE ( 'NONE', #6, #139, #52, .T. ) ;
#292 = ORIENTED_EDGE ( 'NONE', *, *, #169, .T. ) ;
#293 = AXIS2_PLACEMENT_3D ( 'NONE', #154, #254, #29 ) ;
#294 = CARTESIAN_POINT ( 'NONE',  ( 0.000000000000000000, 0.000000000000000000, 0.000000000000000000 ) ) ;
#295 = COLOUR_RGB ( '',0.7921568627450980005, 0.8196078431372548767, 0.9333333333333333481 ) ;
#296 = CARTESIAN_POINT ( 'NONE',  ( 0.000000000000000000, 0.000000000000000000, 0.000000000000000000 ) ) ;
#297 = ORIENTED_EDGE ( 'NONE', *, *, #303, .T. ) ;
#298 = CARTESIAN_POINT ( 'NONE',  ( 0.000000000000000000, 3.000000000000000000, 0.000000000000000000 ) ) ;
#299 = VERTEX_POINT ( 'NONE', #206 ) ;
#300 = LINE ( 'NONE', #104, #107 ) ;
#301 = DIRECTION ( 'NONE',  ( 0.000000000000000000, 0.000000000000000000, -1.000000000000000000 ) ) ;
#302 = DIRECTION ( 'NONE',  ( 0.000000000000000000, -1.000000000000000000, 0.000000000000000000 ) ) ;
#303 = EDGE_CURVE ( 'NONE', #244, #317, #76, .T. ) ;
#304 = DIRECTION ( 'NONE',  ( 0.000000000000000000, -1.000000000000000000, 0.000000000000000000 ) ) ;
#305 = ORIENTED_EDGE ( 'NONE', *, *, #110, .F. ) ;
#306 = CARTESIAN_POINT ( 'NONE',  ( 0.000000000000000000, 3.000000000000000000, -40.00000000000000000 ) ) ;
#307 = PLANE ( 'NONE',  #43 ) ;
#308 = ADVANCED_FACE ( 'NONE', ( #127 ), #227, .T. ) ;
#309 = ORIENTED_EDGE ( 'NONE', *, *, #291, .F. ) ;
#310 = AXIS2_PLACEMENT_3D ( 'NONE', #238, #170, #85 ) ;
#311 = CARTESIAN_POINT ( 'NONE',  ( 3.000000000000000000, 0.000000000000000000, -40.00000000000000000 ) ) ;
#312 = ORIENTED_EDGE ( 'NONE', *, *, #134, .F. ) ;
#313 = SURFACE_SIDE_STYLE ('',( #221 ) ) ;
#314 = ORIENTED_EDGE ( 'NONE', *, *, #120, .F. ) ;
#315 = AXIS2_PLACEMENT_3D ( 'NONE', #155, #302, #256 ) ;
#316 = PLANE ( 'NONE',  #318 ) ;
#317 = VERTEX_POINT ( 'NONE', #281 ) ;
#318 = AXIS2_PLACEMENT_3D ( 'NONE', #264, #64, #135 ) ;
#319 = EDGE_CURVE ( 'NONE', #71, #244, #251, .T. ) ;
#320 = PRESENTATION_STYLE_ASSIGNMENT (( #90 ) ) ;
#321 = ORIENTED_EDGE ( 'NONE', *, *, #287, .T. ) ;
#322 = DIRECTION ( 'NONE',  ( 0.000000000000000000, 0.000000000000000000, -1.000000000000000000 ) ) ;
#323 = LINE ( 'NONE', #201, #89 ) ;
#324 = VECTOR ( 'NONE', #149, 1000.000000000000000 ) ;
#325 = EDGE_CURVE ( 'NONE', #91, #13, #128, .T. ) ;
#326 = ORIENTED_EDGE ( 'NONE', *, *, #77, .T. ) ;
#327 = FACE_OUTER_BOUND ( 'NONE', #119, .T. ) ;
ENDSEC;
END-ISO-10303-21;
