ISO-10303-21;
HEADER;
FILE_DESCRIPTION (( 'STEP AP214' ),
    '1' );
FILE_NAME ('À×´ïÕÖ.STEP',
    '2026-07-31T12:50:00',
    ( '' ),
    ( '' ),
    'SwSTEP 2.0',
    'SolidWorks 2024',
    '' );
FILE_SCHEMA (( 'AUTOMOTIVE_DESIGN' ));
ENDSEC;

DATA;
#1 = AXIS2_PLACEMENT_3D ( 'NONE', #751, #124, #486 ) ;
#2 = DIRECTION ( 'NONE',  ( -1.000000000000000000, 0.000000000000000000, 0.000000000000000000 ) ) ;
#3 = VECTOR ( 'NONE', #804, 1000.000000000000000 ) ;
#4 = DIRECTION ( 'NONE',  ( 8.673617379884035472E-16, 0.000000000000000000, -1.000000000000000000 ) ) ;
#5 = VECTOR ( 'NONE', #910, 1000.000000000000000 ) ;
#6 = LINE ( 'NONE', #554, #1111 ) ;
#7 = ORIENTED_EDGE ( 'NONE', *, *, #743, .T. ) ;
#8 = CIRCLE ( 'NONE', #175, 10.00000000000000000 ) ;
#9 = VERTEX_POINT ( 'NONE', #312 ) ;
#10 = CARTESIAN_POINT ( 'NONE',  ( 0.000000000000000000, 3.000000000000000000, -12.00000000000000533 ) ) ;
#11 = AXIS2_PLACEMENT_3D ( 'NONE', #732, #657, #381 ) ;
#12 = DIRECTION ( 'NONE',  ( 0.000000000000000000, 1.000000000000000000, 0.000000000000000000 ) ) ;
#13 = ORIENTED_EDGE ( 'NONE', *, *, #1132, .F. ) ;
#14 = LINE ( 'NONE', #107, #405 ) ;
#15 = DIRECTION ( 'NONE',  ( 0.000000000000000000, 0.000000000000000000, -1.000000000000000000 ) ) ;
#16 = VERTEX_POINT ( 'NONE', #229 ) ;
#17 = VERTEX_POINT ( 'NONE', #1041 ) ;
#18 = CIRCLE ( 'NONE', #485, 10.00000000000000000 ) ;
#19 = DIRECTION ( 'NONE',  ( -0.000000000000000000, -0.000000000000000000, 1.000000000000000000 ) ) ;
#20 = DIRECTION ( 'NONE',  ( 0.000000000000000000, 0.000000000000000000, -1.000000000000000000 ) ) ;
#21 = ORIENTED_EDGE ( 'NONE', *, *, #967, .T. ) ;
#22 = CIRCLE ( 'NONE', #269, 3.000000000000002665 ) ;
#23 = ORIENTED_EDGE ( 'NONE', *, *, #427, .F. ) ;
#24 = DIRECTION ( 'NONE',  ( -0.000000000000000000, -1.000000000000000000, -0.000000000000000000 ) ) ;
#25 = LINE ( 'NONE', #30, #573 ) ;
#26 = ORIENTED_EDGE ( 'NONE', *, *, #207, .T. ) ;
#27 = EDGE_LOOP ( 'NONE', ( #369, #423, #975, #1042 ) ) ;
#28 = CARTESIAN_POINT ( 'NONE',  ( 52.60000000000002274, 0.000000000000000000, -57.80000000000000426 ) ) ;
#29 = EDGE_CURVE ( 'NONE', #768, #1122, #857, .T. ) ;
#30 = CARTESIAN_POINT ( 'NONE',  ( -13.00000000000000355, 3.000000000000000000, -60.80000000000000426 ) ) ;
#31 = EDGE_LOOP ( 'NONE', ( #1139, #765, #725, #667, #145, #694, #431, #753, #829, #39, #549, #266, #779, #685, #363, #217, #465, #752, #827, #715, #476, #787, #665, #26, #602, #918 ) ) ;
#32 = EDGE_LOOP ( 'NONE', ( #912, #1131, #1009, #202 ) ) ;
#33 = LINE ( 'NONE', #847, #933 ) ;
#34 = EDGE_CURVE ( 'NONE', #513, #487, #319, .T. ) ;
#35 = PRESENTATION_STYLE_ASSIGNMENT (( #1158 ) ) ;
#36 = VECTOR ( 'NONE', #903, 1000.000000000000000 ) ;
#37 = CARTESIAN_POINT ( 'NONE',  ( 0.000000000000000000, 3.000000000000000000, -10.00000000000000000 ) ) ;
#38 = EDGE_LOOP ( 'NONE', ( #126, #583, #982, #1110 ) ) ;
#39 = ORIENTED_EDGE ( 'NONE', *, *, #387, .F. ) ;
#40 = DIRECTION ( 'NONE',  ( -1.000000000000000000, 0.000000000000000000, -0.000000000000000000 ) ) ;
#41 = FACE_OUTER_BOUND ( 'NONE', #533, .T. ) ;
#42 = AXIS2_PLACEMENT_3D ( 'NONE', #716, #799, #261 ) ;
#43 = DIRECTION ( 'NONE',  ( -0.000000000000000000, 1.000000000000000000, -0.000000000000000000 ) ) ;
#44 = CARTESIAN_POINT ( 'NONE',  ( 12.00000000000000000, -42.00000000000000000, 0.000000000000000000 ) ) ;
#45 = VERTEX_POINT ( 'NONE', #138 ) ;
#46 = LINE ( 'NONE', #1155, #326 ) ;
#47 = DIRECTION ( 'NONE',  ( 0.000000000000000000, -1.000000000000000000, 0.000000000000000000 ) ) ;
#48 = LINE ( 'NONE', #702, #267 ) ;
#49 = ORIENTED_EDGE ( 'NONE', *, *, #354, .T. ) ;
#50 = EDGE_CURVE ( 'NONE', #16, #863, #986, .T. ) ;
#51 = ORIENTED_EDGE ( 'NONE', *, *, #948, .F. ) ;
#52 = DIRECTION ( 'NONE',  ( 0.000000000000000000, 1.000000000000000000, 0.000000000000000000 ) ) ;
#53 = AXIS2_PLACEMENT_3D ( 'NONE', #496, #232, #941 ) ;
#54 = CARTESIAN_POINT ( 'NONE',  ( 32.80000000000000426, 3.000000000000000000, -65.00000000000000000 ) ) ;
#55 = DIRECTION ( 'NONE',  ( -0.000000000000000000, 1.000000000000000000, -0.000000000000000000 ) ) ;
#56 = ORIENTED_EDGE ( 'NONE', *, *, #1159, .F. ) ;
#57 = AXIS2_PLACEMENT_3D ( 'NONE', #904, #623, #174 ) ;
#58 = AXIS2_PLACEMENT_3D ( 'NONE', #455, #886, #4 ) ;
#59 = ORIENTED_EDGE ( 'NONE', *, *, #427, .T. ) ;
#60 = CARTESIAN_POINT ( 'NONE',  ( -12.99999999999999645, 3.000000000000000000, -22.00000000000000711 ) ) ;
#61 = VECTOR ( 'NONE', #789, 1000.000000000000000 ) ;
#62 = CARTESIAN_POINT ( 'NONE',  ( -13.00000000000000355, 0.000000000000000000, -50.00000000000000000 ) ) ;
#63 = CARTESIAN_POINT ( 'NONE',  ( 29.60000000000000142, 3.000000000000000000, -10.00000000000000000 ) ) ;
#64 = CARTESIAN_POINT ( 'NONE',  ( 0.000000000000000000, 3.000000000000000000, -70.00000000000000000 ) ) ;
#65 = AXIS2_PLACEMENT_3D ( 'NONE', #803, #171, #1181 ) ;
#66 = ORIENTED_EDGE ( 'NONE', *, *, #1099, .F. ) ;
#67 = VECTOR ( 'NONE', #19, 1000.000000000000000 ) ;
#68 = LINE ( 'NONE', #432, #97 ) ;
#69 = DIRECTION ( 'NONE',  ( 0.000000000000000000, 0.000000000000000000, 1.000000000000000000 ) ) ;
#70 = DIRECTION ( 'NONE',  ( 0.000000000000000000, 0.000000000000000000, -1.000000000000000000 ) ) ;
#71 = ADVANCED_FACE ( 'NONE', ( #80 ), #893, .F. ) ;
#72 = VERTEX_POINT ( 'NONE', #797 ) ;
#73 = DIRECTION ( 'NONE',  ( 0.000000000000000000, 0.000000000000000000, -1.000000000000000000 ) ) ;
#74 = DIRECTION ( 'NONE',  ( -1.000000000000000000, -0.000000000000000000, -0.000000000000000000 ) ) ;
#75 = CARTESIAN_POINT ( 'NONE',  ( 17.00000000000000000, 3.000000000000002665, -9.999999999999998224 ) ) ;
#76 = ORIENTED_EDGE ( 'NONE', *, *, #199, .F. ) ;
#77 = DIRECTION ( 'NONE',  ( -0.000000000000000000, 1.000000000000000000, -0.000000000000000000 ) ) ;
#78 = AXIS2_PLACEMENT_3D ( 'NONE', #785, #429, #1168 ) ;
#79 = FACE_BOUND ( 'NONE', #577, .T. ) ;
#80 = FACE_OUTER_BOUND ( 'NONE', #680, .T. ) ;
#81 = DIRECTION ( 'NONE',  ( -0.000000000000000000, -0.000000000000000000, 1.000000000000000000 ) ) ;
#82 = VERTEX_POINT ( 'NONE', #254 ) ;
#83 = CARTESIAN_POINT ( 'NONE',  ( 32.80000000000000426, 0.000000000000000000, -66.75000000000001421 ) ) ;
#84 = CARTESIAN_POINT ( 'NONE',  ( 12.00000000000000000, -1.387778780781445676E-14, 0.000000000000000000 ) ) ;
#85 = EDGE_LOOP ( 'NONE', ( #852, #186, #1186, #1005, #169, #118, #961, #574, #414, #1062, #774, #59, #968, #962, #739, #917, #395, #190, #106, #660, #995, #439, #932, #191 ) ) ;
#86 = FACE_OUTER_BOUND ( 'NONE', #648, .T. ) ;
#87 = LINE ( 'NONE', #166, #3 ) ;
#88 = DIRECTION ( 'NONE',  ( 0.000000000000000000, -1.000000000000000000, -0.000000000000000000 ) ) ;
#89 = VERTEX_POINT ( 'NONE', #344 ) ;
#90 = VERTEX_POINT ( 'NONE', #332 ) ;
#91 = DIRECTION ( 'NONE',  ( -0.000000000000000000, -1.000000000000000000, -0.000000000000000000 ) ) ;
#92 = VECTOR ( 'NONE', #74, 1000.000000000000000 ) ;
#93 = CARTESIAN_POINT ( 'NONE',  ( 39.60000000000000142, 0.000000000000000000, -60.80000000000000426 ) ) ;
#94 = DIRECTION ( 'NONE',  ( -1.000000000000000000, 0.000000000000000000, 0.000000000000000000 ) ) ;
#95 = VERTEX_POINT ( 'NONE', #618 ) ;
#96 = CIRCLE ( 'NONE', #252, 10.00000000000000000 ) ;
#97 = VECTOR ( 'NONE', #1171, 1000.000000000000000 ) ;
#98 = DIRECTION ( 'NONE',  ( 0.000000000000000000, 0.000000000000000000, -1.000000000000000000 ) ) ;
#99 = EDGE_CURVE ( 'NONE', #930, #676, #444, .T. ) ;
#100 = DIRECTION ( 'NONE',  ( 1.000000000000000000, 0.000000000000000000, -0.000000000000000000 ) ) ;
#101 = ORIENTED_EDGE ( 'NONE', *, *, #243, .F. ) ;
#102 = EDGE_CURVE ( 'NONE', #143, #487, #937, .T. ) ;
#103 = VERTEX_POINT ( 'NONE', #421 ) ;
#104 = LINE ( 'NONE', #1114, #297 ) ;
#105 = LINE ( 'NONE', #37, #723 ) ;
#106 = ORIENTED_EDGE ( 'NONE', *, *, #1044, .T. ) ;
#107 = CARTESIAN_POINT ( 'NONE',  ( -13.00000000000000355, 0.000000000000000000, -60.80000000000000426 ) ) ;
#108 = VECTOR ( 'NONE', #733, 1000.000000000000000 ) ;
#109 = DIRECTION ( 'NONE',  ( 0.000000000000000000, -1.000000000000000000, 0.000000000000000000 ) ) ;
#110 = EDGE_LOOP ( 'NONE', ( #66, #911, #415, #131 ) ) ;
#111 = AXIS2_PLACEMENT_3D ( 'NONE', #921, #850, #1032 ) ;
#112 = EDGE_CURVE ( 'NONE', #45, #291, #882, .T. ) ;
#113 = ORIENTED_EDGE ( 'NONE', *, *, #1140, .F. ) ;
#114 = LINE ( 'NONE', #644, #67 ) ;
#115 =( GEOMETRIC_REPRESENTATION_CONTEXT ( 3 ) GLOBAL_UNCERTAINTY_ASSIGNED_CONTEXT ( ( #399 ) ) GLOBAL_UNIT_ASSIGNED_CONTEXT ( ( #697, #1030, #546 ) ) REPRESENTATION_CONTEXT ( 'NONE', 'WORKASPACE' ) );
#116 = CARTESIAN_POINT ( 'NONE',  ( 49.60000000000000142, -42.00000000000000000, -22.00000000000000355 ) ) ;
#117 = ORIENTED_EDGE ( 'NONE', *, *, #885, .T. ) ;
#118 = ORIENTED_EDGE ( 'NONE', *, *, #900, .F. ) ;
#119 = EDGE_CURVE ( 'NONE', #560, #930, #981, .T. ) ;
#120 = DIRECTION ( 'NONE',  ( -0.000000000000000000, 1.000000000000000000, -0.000000000000000000 ) ) ;
#121 = ADVANCED_FACE ( 'NONE', ( #708 ), #247, .F. ) ;
#122 = DIRECTION ( 'NONE',  ( 0.000000000000000000, 0.000000000000000000, 1.000000000000000000 ) ) ;
#123 = ADVANCED_FACE ( 'NONE', ( #242 ), #531, .F. ) ;
#124 = DIRECTION ( 'NONE',  ( 0.000000000000000000, -1.000000000000000000, 0.000000000000000000 ) ) ;
#125 = VERTEX_POINT ( 'NONE', #438 ) ;
#126 = ORIENTED_EDGE ( 'NONE', *, *, #165, .T. ) ;
#127 = DIRECTION ( 'NONE',  ( 0.000000000000000000, 0.000000000000000000, -1.000000000000000000 ) ) ;
#128 = CARTESIAN_POINT ( 'NONE',  ( 12.00000000000000000, 0.000000000000000000, -9.999999999999998224 ) ) ;
#129 = EDGE_CURVE ( 'NONE', #806, #90, #966, .T. ) ;
#130 = DIRECTION ( 'NONE',  ( 0.000000000000000000, 0.000000000000000000, -1.000000000000000000 ) ) ;
#131 = ORIENTED_EDGE ( 'NONE', *, *, #119, .F. ) ;
#132 = ORIENTED_EDGE ( 'NONE', *, *, #637, .F. ) ;
#133 = LINE ( 'NONE', #28, #1127 ) ;
#134 = SURFACE_SIDE_STYLE ('',( #418 ) ) ;
#135 = VECTOR ( 'NONE', #258, 1000.000000000000000 ) ;
#136 = EDGE_CURVE ( 'NONE', #841, #810, #745, .T. ) ;
#137 = CARTESIAN_POINT ( 'NONE',  ( 52.60000000000000142, 3.000000000000000000, -22.00000000000000355 ) ) ;
#138 = CARTESIAN_POINT ( 'NONE',  ( -9.999999999999994671, 0.000000000000000000, -22.00000000000000711 ) ) ;
#139 = ORIENTED_EDGE ( 'NONE', *, *, #136, .F. ) ;
#140 = DIRECTION ( 'NONE',  ( -0.000000000000000000, 1.000000000000000000, -0.000000000000000000 ) ) ;
#141 = PLANE ( 'NONE',  #425 ) ;
#142 = DIRECTION ( 'NONE',  ( 0.000000000000000000, -1.000000000000000000, 0.000000000000000000 ) ) ;
#143 = VERTEX_POINT ( 'NONE', #792 ) ;
#144 = ADVANCED_FACE ( 'NONE', ( #350 ), #1066, .F. ) ;
#145 = ORIENTED_EDGE ( 'NONE', *, *, #517, .T. ) ;
#146 = CARTESIAN_POINT ( 'NONE',  ( -12.99999999999999645, -42.00000000000000000, -22.00000000000000711 ) ) ;
#147 = EDGE_CURVE ( 'NONE', #327, #72, #974, .T. ) ;
#148 = LINE ( 'NONE', #511, #464 ) ;
#149 = CARTESIAN_POINT ( 'NONE',  ( 22.60000000000000142, -42.00000000000000000, -10.00000000000000000 ) ) ;
#150 = DIRECTION ( 'NONE',  ( -0.000000000000000000, 1.000000000000000000, -0.000000000000000000 ) ) ;
#151 = CIRCLE ( 'NONE', #1108, 1.750000000000015543 ) ;
#152 = ORIENTED_EDGE ( 'NONE', *, *, #773, .T. ) ;
#153 = DIRECTION ( 'NONE',  ( 0.000000000000000000, 0.000000000000000000, -1.000000000000000000 ) ) ;
#154 = ADVANCED_FACE ( 'NONE', ( #622 ), #317, .F. ) ;
#155 = VECTOR ( 'NONE', #670, 1000.000000000000000 ) ;
#156 = DIRECTION ( 'NONE',  ( -1.000000000000000000, -0.000000000000000000, -0.000000000000000000 ) ) ;
#157 = DIRECTION ( 'NONE',  ( -0.000000000000000000, -1.000000000000000000, -0.000000000000000000 ) ) ;
#158 = CIRCLE ( 'NONE', #819, 1.750000000000015543 ) ;
#159 = EDGE_LOOP ( 'NONE', ( #21, #459, #394, #358 ) ) ;
#160 = DIRECTION ( 'NONE',  ( -0.000000000000000000, -0.000000000000000000, 1.000000000000000000 ) ) ;
#161 = DIRECTION ( 'NONE',  ( -0.000000000000000000, 1.000000000000000000, -0.000000000000000000 ) ) ;
#162 = CARTESIAN_POINT ( 'NONE',  ( 39.60000000000000142, 3.000000000000000000, -12.00000000000000178 ) ) ;
#163 = EDGE_LOOP ( 'NONE', ( #187, #603, #237, #502 ) ) ;
#164 = CARTESIAN_POINT ( 'NONE',  ( -9.999999999999991118, 0.000000000000000000, -50.00000000000000000 ) ) ;
#165 = EDGE_CURVE ( 'NONE', #1098, #278, #587, .T. ) ;
#166 = CARTESIAN_POINT ( 'NONE',  ( 39.60000000000000142, 0.000000000000000000, -60.80000000000000426 ) ) ;
#167 = DIRECTION ( 'NONE',  ( 0.000000000000000000, 1.000000000000000000, 0.000000000000000000 ) ) ;
#168 = CARTESIAN_POINT ( 'NONE',  ( 0.000000000000000000, -42.00000000000000000, 0.000000000000000000 ) ) ;
#169 = ORIENTED_EDGE ( 'NONE', *, *, #490, .T. ) ;
#170 = CIRCLE ( 'NONE', #204, 3.000000000000002665 ) ;
#171 = DIRECTION ( 'NONE',  ( 0.000000000000000000, 1.000000000000000000, 0.000000000000000000 ) ) ;
#172 = VECTOR ( 'NONE', #88, 1000.000000000000000 ) ;
#173 = PLANE ( 'NONE',  #951 ) ;
#174 = DIRECTION ( 'NONE',  ( 0.000000000000000000, -0.000000000000000000, -1.000000000000000000 ) ) ;
#175 = AXIS2_PLACEMENT_3D ( 'NONE', #783, #790, #301 ) ;
#176 = ORIENTED_EDGE ( 'NONE', *, *, #243, .T. ) ;
#177 = EDGE_CURVE ( 'NONE', #291, #661, #8, .T. ) ;
#178 = DIRECTION ( 'NONE',  ( 1.000000000000000000, 0.000000000000000000, 0.000000000000000000 ) ) ;
#179 = LINE ( 'NONE', #530, #740 ) ;
#180 = DIRECTION ( 'NONE',  ( 0.000000000000000000, 0.000000000000000000, 1.000000000000000000 ) ) ;
#181 = EDGE_LOOP ( 'NONE', ( #636, #1146, #201, #101 ) ) ;
#182 = EDGE_CURVE ( 'NONE', #470, #89, #855, .T. ) ;
#183 = CARTESIAN_POINT ( 'NONE',  ( 0.000000000000000000, 0.000000000000000000, 0.000000000000000000 ) ) ;
#184 = LINE ( 'NONE', #813, #92 ) ;
#185 = LINE ( 'NONE', #809, #1090 ) ;
#186 = ORIENTED_EDGE ( 'NONE', *, *, #341, .F. ) ;
#187 = ORIENTED_EDGE ( 'NONE', *, *, #604, .T. ) ;
#188 = LINE ( 'NONE', #10, #1075 ) ;
#189 = CARTESIAN_POINT ( 'NONE',  ( 32.80000000000000426, 0.000000000000000000, -63.24999999999998579 ) ) ;
#190 = ORIENTED_EDGE ( 'NONE', *, *, #879, .T. ) ;
#191 = ORIENTED_EDGE ( 'NONE', *, *, #1113, .T. ) ;
#192 = CIRCLE ( 'NONE', #1031, 1.750000000000015543 ) ;
#193 = CARTESIAN_POINT ( 'NONE',  ( 52.60000000000000142, -42.00000000000000000, -22.00000000000000355 ) ) ;
#194 = ADVANCED_BREP_SHAPE_REPRESENTATION ( '\X2\96f78fbe7f69\X0\', ( #262, #248 ), #302 ) ;
#195 = FACE_OUTER_BOUND ( 'NONE', #557, .T. ) ;
#196 = ORIENTED_EDGE ( 'NONE', *, *, #1156, .T. ) ;
#197 = ORIENTED_EDGE ( 'NONE', *, *, #449, .F. ) ;
#198 = CYLINDRICAL_SURFACE ( 'NONE', #889, 3.000000000000002665 ) ;
#199 = EDGE_CURVE ( 'NONE', #624, #353, #96, .T. ) ;
#200 = CARTESIAN_POINT ( 'NONE',  ( -13.00000000000000355, 0.000000000000000000, -57.80000000000000426 ) ) ;
#201 = ORIENTED_EDGE ( 'NONE', *, *, #1063, .T. ) ;
#202 = ORIENTED_EDGE ( 'NONE', *, *, #600, .T. ) ;
#203 = CARTESIAN_POINT ( 'NONE',  ( 49.60000000000000142, -42.00000000000000000, -22.00000000000000355 ) ) ;
#204 = AXIS2_PLACEMENT_3D ( 'NONE', #1091, #463, #815 ) ;
#205 = CARTESIAN_POINT ( 'NONE',  ( 0.000000000000000000, 0.000000000000000000, 0.000000000000000000 ) ) ;
#206 = DIRECTION ( 'NONE',  ( 0.000000000000000000, 0.000000000000000000, -1.000000000000000000 ) ) ;
#207 = EDGE_CURVE ( 'NONE', #95, #390, #935, .T. ) ;
#208 = ORIENTED_EDGE ( 'NONE', *, *, #600, .F. ) ;
#209 = AXIS2_PLACEMENT_3D ( 'NONE', #865, #308, #329 ) ;
#210 = ORIENTED_EDGE ( 'NONE', *, *, #335, .F. ) ;
#211 = EDGE_CURVE ( 'NONE', #327, #453, #1149, .T. ) ;
#212 = CARTESIAN_POINT ( 'NONE',  ( 39.60000000000000142, 0.000000000000000000, -10.00000000000000000 ) ) ;
#213 = AXIS2_PLACEMENT_3D ( 'NONE', #1070, #720, #450 ) ;
#214 = DIRECTION ( 'NONE',  ( 0.000000000000000000, -1.000000000000000000, 0.000000000000000000 ) ) ;
#215 = CARTESIAN_POINT ( 'NONE',  ( 49.60000000000001563, 3.000000000000000000, -60.80000000000000426 ) ) ;
#216 = ORIENTED_EDGE ( 'NONE', *, *, #1104, .T. ) ;
#217 = ORIENTED_EDGE ( 'NONE', *, *, #572, .F. ) ;
#218 = ADVANCED_FACE ( 'NONE', ( #678 ), #141, .T. ) ;
#219 = CARTESIAN_POINT ( 'NONE',  ( 52.60000000000000142, 0.000000000000000000, -50.00000000000000000 ) ) ;
#220 = CYLINDRICAL_SURFACE ( 'NONE', #230, 4.999999999999999112 ) ;
#221 = VERTEX_POINT ( 'NONE', #506 ) ;
#222 = ORIENTED_EDGE ( 'NONE', *, *, #360, .F. ) ;
#223 = FACE_OUTER_BOUND ( 'NONE', #339, .T. ) ;
#224 = ADVANCED_FACE ( 'NONE', ( #41 ), #866, .F. ) ;
#225 = CARTESIAN_POINT ( 'NONE',  ( 6.800000000000002487, 3.000000000000000000, -65.00000000000000000 ) ) ;
#226 = AXIS2_PLACEMENT_3D ( 'NONE', #679, #161, #808 ) ;
#227 = ADVANCED_FACE ( 'NONE', ( #240 ), #397, .F. ) ;
#228 = LINE ( 'NONE', #601, #742 ) ;
#229 = CARTESIAN_POINT ( 'NONE',  ( -13.00000000000000533, 3.000000000000000000, -57.80000000000000426 ) ) ;
#230 = AXIS2_PLACEMENT_3D ( 'NONE', #149, #867, #318 ) ;
#231 = ORIENTED_EDGE ( 'NONE', *, *, #50, .F. ) ;
#232 = DIRECTION ( 'NONE',  ( -0.000000000000000000, 1.000000000000000000, -0.000000000000000000 ) ) ;
#233 = CARTESIAN_POINT ( 'NONE',  ( 17.00000000000000000, -42.00000000000000000, -9.999999999999998224 ) ) ;
#234 = VECTOR ( 'NONE', #426, 1000.000000000000000 ) ;
#235 = EDGE_CURVE ( 'NONE', #103, #930, #1134, .T. ) ;
#236 = CARTESIAN_POINT ( 'NONE',  ( 39.60000000000000142, 3.000000000000000000, -60.80000000000000426 ) ) ;
#237 = ORIENTED_EDGE ( 'NONE', *, *, #264, .T. ) ;
#238 = VERTEX_POINT ( 'NONE', #770 ) ;
#239 = CARTESIAN_POINT ( 'NONE',  ( 39.60000000000000142, 0.000000000000000000, -60.80000000000000426 ) ) ;
#240 = FACE_OUTER_BOUND ( 'NONE', #466, .T. ) ;
#241 = FACE_OUTER_BOUND ( 'NONE', #508, .T. ) ;
#242 = FACE_OUTER_BOUND ( 'NONE', #159, .T. ) ;
#243 = EDGE_CURVE ( 'NONE', #125, #596, #491, .T. ) ;
#244 = VERTEX_POINT ( 'NONE', #128 ) ;
#245 = DIRECTION ( 'NONE',  ( -1.239088197126291063E-16, -0.000000000000000000, 1.000000000000000000 ) ) ;
#246 = DIRECTION ( 'NONE',  ( -0.000000000000000000, 1.000000000000000000, -0.000000000000000000 ) ) ;
#247 = CYLINDRICAL_SURFACE ( 'NONE', #696, 10.00000000000000000 ) ;
#248 = AXIS2_PLACEMENT_3D ( 'NONE', #205, #737, #926 ) ;
#249 = EDGE_CURVE ( 'NONE', #481, #125, #148, .T. ) ;
#250 = EDGE_LOOP ( 'NONE', ( #480, #346, #495, #113 ) ) ;
#251 = CARTESIAN_POINT ( 'NONE',  ( 17.00000000000000000, 0.000000000000000000, -9.999999999999998224 ) ) ;
#252 = AXIS2_PLACEMENT_3D ( 'NONE', #406, #47, #1059 ) ;
#253 = LINE ( 'NONE', #348, #835 ) ;
#254 = CARTESIAN_POINT ( 'NONE',  ( -10.00000000000000355, 0.000000000000000000, -60.80000000000000426 ) ) ;
#255 = CIRCLE ( 'NONE', #727, 5.000000000000000888 ) ;
#256 = ORIENTED_EDGE ( 'NONE', *, *, #211, .F. ) ;
#257 = LINE ( 'NONE', #1096, #872 ) ;
#258 = DIRECTION ( 'NONE',  ( -0.000000000000000000, -0.000000000000000000, 1.000000000000000000 ) ) ;
#259 = PLANE ( 'NONE',  #57 ) ;
#260 = ORIENTED_EDGE ( 'NONE', *, *, #441, .F. ) ;
#261 = DIRECTION ( 'NONE',  ( 0.000000000000000000, 0.000000000000000000, -1.000000000000000000 ) ) ;
#262 = MANIFOLD_SOLID_BREP ( '\X2\570689d2\X0\5', #505 ) ;
#263 = CARTESIAN_POINT ( 'NONE',  ( 3.429011037612589276E-15, 0.000000000000000000, -22.00000000000000711 ) ) ;
#264 = EDGE_CURVE ( 'NONE', #1119, #221, #192, .T. ) ;
#265 = PLANE ( 'NONE',  #1023 ) ;
#266 = ORIENTED_EDGE ( 'NONE', *, *, #743, .F. ) ;
#267 = VECTOR ( 'NONE', #1060, 1000.000000000000000 ) ;
#268 = DIRECTION ( 'NONE',  ( -0.000000000000000000, -0.000000000000000000, 1.000000000000000000 ) ) ;
#269 = AXIS2_PLACEMENT_3D ( 'NONE', #594, #142, #130 ) ;
#270 = FACE_OUTER_BOUND ( 'NONE', #1015, .T. ) ;
#271 = CARTESIAN_POINT ( 'NONE',  ( 49.60000000000000853, -42.00000000000000000, -50.00000000000000000 ) ) ;
#272 = CIRCLE ( 'NONE', #42, 10.00000000000000000 ) ;
#273 = ORIENTED_EDGE ( 'NONE', *, *, #416, .F. ) ;
#274 = CARTESIAN_POINT ( 'NONE',  ( 32.80000000000000426, 3.000000000000000000, -66.75000000000001421 ) ) ;
#275 = CARTESIAN_POINT ( 'NONE',  ( 0.000000000000000000, 3.000000000000000000, 0.000000000000000000 ) ) ;
#276 = FACE_OUTER_BOUND ( 'NONE', #1001, .T. ) ;
#277 = ADVANCED_FACE ( 'NONE', ( #706 ), #991, .F. ) ;
#278 = VERTEX_POINT ( 'NONE', #164 ) ;
#279 = ORIENTED_EDGE ( 'NONE', *, *, #338, .F. ) ;
#280 = DIRECTION ( 'NONE',  ( -1.000000000000000000, -0.000000000000000000, -0.000000000000000000 ) ) ;
#281 = CARTESIAN_POINT ( 'NONE',  ( 0.000000000000000000, 0.000000000000000000, -70.00000000000000000 ) ) ;
#282 = ORIENTED_EDGE ( 'NONE', *, *, #490, .F. ) ;
#283 = EDGE_CURVE ( 'NONE', #780, #90, #542, .T. ) ;
#284 = FACE_OUTER_BOUND ( 'NONE', #1016, .T. ) ;
#285 = ADVANCED_FACE ( 'NONE', ( #359 ), #529, .F. ) ;
#286 = CARTESIAN_POINT ( 'NONE',  ( 0.000000000000000000, 3.000000000000000000, 0.000000000000000000 ) ) ;
#287 = ORIENTED_EDGE ( 'NONE', *, *, #909, .T. ) ;
#288 = ORIENTED_EDGE ( 'NONE', *, *, #207, .F. ) ;
#289 = DIRECTION ( 'NONE',  ( -1.000000000000000000, 0.000000000000000000, -0.000000000000000000 ) ) ;
#290 = CARTESIAN_POINT ( 'NONE',  ( -10.00000000000000355, 0.000000000000000000, -57.80000000000000426 ) ) ;
#291 = VERTEX_POINT ( 'NONE', #355 ) ;
#292 = ORIENTED_EDGE ( 'NONE', *, *, #50, .T. ) ;
#293 = CARTESIAN_POINT ( 'NONE',  ( 0.000000000000000000, 3.000000000000000000, -60.80000000000000426 ) ) ;
#294 = CARTESIAN_POINT ( 'NONE',  ( 27.60000000000000142, 3.000000000000000000, -10.00000000000000000 ) ) ;
#295 = ORIENTED_EDGE ( 'NONE', *, *, #1140, .T. ) ;
#296 = EDGE_CURVE ( 'NONE', #863, #1098, #1166, .T. ) ;
#297 = VECTOR ( 'NONE', #1106, 1000.000000000000000 ) ;
#298 = ORIENTED_EDGE ( 'NONE', *, *, #849, .F. ) ;
#299 = CARTESIAN_POINT ( 'NONE',  ( 39.60000000000000142, 0.000000000000000000, -70.00000000000000000 ) ) ;
#300 = AXIS2_PLACEMENT_3D ( 'NONE', #383, #109, #206 ) ;
#301 = DIRECTION ( 'NONE',  ( 0.000000000000000000, 0.000000000000000000, -1.000000000000000000 ) ) ;
#302 =( GEOMETRIC_REPRESENTATION_CONTEXT ( 3 ) GLOBAL_UNCERTAINTY_ASSIGNED_CONTEXT ( ( #499 ) ) GLOBAL_UNIT_ASSIGNED_CONTEXT ( ( #908, #825, #1126 ) ) REPRESENTATION_CONTEXT ( 'NONE', 'WORKASPACE' ) );
#303 = DIRECTION ( 'NONE',  ( -1.000000000000000000, -0.000000000000000000, -0.000000000000000000 ) ) ;
#304 = VERTEX_POINT ( 'NONE', #632 ) ;
#305 = EDGE_CURVE ( 'NONE', #89, #877, #1088, .T. ) ;
#306 = EDGE_LOOP ( 'NONE', ( #1007, #1049, #1112, #384 ) ) ;
#307 = VECTOR ( 'NONE', #1045, 1000.000000000000000 ) ;
#308 = DIRECTION ( 'NONE',  ( -0.000000000000000000, 1.000000000000000000, -0.000000000000000000 ) ) ;
#309 = VECTOR ( 'NONE', #1076, 1000.000000000000000 ) ;
#310 = FILL_AREA_STYLE ('',( #947 ) ) ;
#311 = CARTESIAN_POINT ( 'NONE',  ( 52.60000000000002274, 3.000000000000000000, -57.80000000000000426 ) ) ;
#312 = CARTESIAN_POINT ( 'NONE',  ( 52.60000000000000142, 0.000000000000000000, -57.80000000000000426 ) ) ;
#313 = EDGE_CURVE ( 'NONE', #609, #922, #436, .T. ) ;
#314 = ORIENTED_EDGE ( 'NONE', *, *, #468, .F. ) ;
#315 = LINE ( 'NONE', #239, #666 ) ;
#316 = EDGE_CURVE ( 'NONE', #590, #1122, #1188, .T. ) ;
#317 = CYLINDRICAL_SURFACE ( 'NONE', #839, 1.750000000000015543 ) ;
#318 = DIRECTION ( 'NONE',  ( 0.000000000000000000, 0.000000000000000000, -1.000000000000000000 ) ) ;
#319 = LINE ( 'NONE', #595, #385 ) ;
#320 = VERTEX_POINT ( 'NONE', #890 ) ;
#321 = DIRECTION ( 'NONE',  ( 0.000000000000000000, 0.000000000000000000, -1.000000000000000000 ) ) ;
#322 = CARTESIAN_POINT ( 'NONE',  ( 39.60000000000000142, 0.000000000000000000, -50.00000000000000000 ) ) ;
#323 = PLANE ( 'NONE',  #759 ) ;
#324 = EDGE_CURVE ( 'NONE', #641, #719, #272, .T. ) ;
#325 = ORIENTED_EDGE ( 'NONE', *, *, #675, .F. ) ;
#326 = VECTOR ( 'NONE', #404, 1000.000000000000000 ) ;
#327 = VERTEX_POINT ( 'NONE', #972 ) ;
#328 = AXIS2_PLACEMENT_3D ( 'NONE', #769, #321, #411 ) ;
#329 = DIRECTION ( 'NONE',  ( 0.000000000000000000, 0.000000000000000000, 1.000000000000000000 ) ) ;
#330 = AXIS2_PLACEMENT_3D ( 'NONE', #690, #848, #1143 ) ;
#331 = DIRECTION ( 'NONE',  ( -0.000000000000000000, 1.000000000000000000, -0.000000000000000000 ) ) ;
#332 = CARTESIAN_POINT ( 'NONE',  ( 49.60000000000000853, 0.000000000000000000, -50.00000000000000000 ) ) ;
#333 = ORIENTED_EDGE ( 'NONE', *, *, #1020, .F. ) ;
#334 = DIRECTION ( 'NONE',  ( -1.000000000000000000, 0.000000000000000000, 2.478176394252582127E-16 ) ) ;
#335 = EDGE_CURVE ( 'NONE', #1141, #869, #158, .T. ) ;
#336 = CARTESIAN_POINT ( 'NONE',  ( 12.00000000000000000, 0.000000000000000000, 0.000000000000000000 ) ) ;
#337 = CARTESIAN_POINT ( 'NONE',  ( 49.60000000000000853, 3.000000000000000000, -12.00000000000000178 ) ) ;
#338 = EDGE_CURVE ( 'NONE', #17, #320, #902, .T. ) ;
#339 = EDGE_LOOP ( 'NONE', ( #273, #279, #567, #1118 ) ) ;
#340 = ADVANCED_FACE ( 'NONE', ( #86 ), #620, .T. ) ;
#341 = EDGE_CURVE ( 'NONE', #143, #1122, #710, .T. ) ;
#342 = DIRECTION ( 'NONE',  ( -0.000000000000000000, 1.000000000000000000, -0.000000000000000000 ) ) ;
#343 = DIRECTION ( 'NONE',  ( -0.000000000000000000, 0.000000000000000000, 1.000000000000000000 ) ) ;
#344 = CARTESIAN_POINT ( 'NONE',  ( -9.999999999999991118, -42.00000000000000000, -50.00000000000000000 ) ) ;
#345 = EDGE_CURVE ( 'NONE', #16, #758, #701, .T. ) ;
#346 = ORIENTED_EDGE ( 'NONE', *, *, #675, .T. ) ;
#347 = CARTESIAN_POINT ( 'NONE',  ( 27.60000000000000142, -42.00000000000000000, 0.000000000000000000 ) ) ;
#348 = CARTESIAN_POINT ( 'NONE',  ( -13.00000000000000355, 0.000000000000000000, -50.00000000000000000 ) ) ;
#349 = VECTOR ( 'NONE', #1145, 1000.000000000000000 ) ;
#350 = FACE_OUTER_BOUND ( 'NONE', #793, .T. ) ;
#351 = STYLED_ITEM ( 'NONE', ( #35 ), #262 ) ;
#352 = DIRECTION ( 'NONE',  ( 1.000000000000000000, -0.000000000000000000, 4.956352788505163268E-16 ) ) ;
#353 = VERTEX_POINT ( 'NONE', #880 ) ;
#354 = EDGE_CURVE ( 'NONE', #72, #1057, #68, .T. ) ;
#355 = CARTESIAN_POINT ( 'NONE',  ( -9.999999999999996447, 3.000000000000000000, -22.00000000000000711 ) ) ;
#356 = DIRECTION ( 'NONE',  ( -0.000000000000000000, 1.000000000000000000, -0.000000000000000000 ) ) ;
#357 = FACE_OUTER_BOUND ( 'NONE', #1073, .T. ) ;
#358 = ORIENTED_EDGE ( 'NONE', *, *, #29, .F. ) ;
#359 = FACE_OUTER_BOUND ( 'NONE', #181, .T. ) ;
#360 = EDGE_CURVE ( 'NONE', #238, #244, #255, .T. ) ;
#361 = CARTESIAN_POINT ( 'NONE',  ( -13.00000000000000355, 0.000000000000000000, -50.00000000000000000 ) ) ;
#362 = LINE ( 'NONE', #724, #61 ) ;
#363 = ORIENTED_EDGE ( 'NONE', *, *, #1047, .T. ) ;
#364 = AXIS2_PLACEMENT_3D ( 'NONE', #988, #94, #368 ) ;
#365 = LINE ( 'NONE', #193, #448 ) ;
#366 = AXIS2_PLACEMENT_3D ( 'NONE', #286, #20, #1054 ) ;
#367 = CARTESIAN_POINT ( 'NONE',  ( 49.60000000000000853, 0.000000000000000000, -22.00000000000000355 ) ) ;
#368 = DIRECTION ( 'NONE',  ( 0.000000000000000000, 0.000000000000000000, 1.000000000000000000 ) ) ;
#369 = ORIENTED_EDGE ( 'NONE', *, *, #900, .T. ) ;
#370 = EDGE_LOOP ( 'NONE', ( #1068, #210 ) ) ;
#371 = DIRECTION ( 'NONE',  ( 0.000000000000000000, 1.000000000000000000, 0.000000000000000000 ) ) ;
#372 = LINE ( 'NONE', #146, #518 ) ;
#373 = VERTEX_POINT ( 'NONE', #442 ) ;
#374 = ORIENTED_EDGE ( 'NONE', *, *, #615, .T. ) ;
#375 = DIRECTION ( 'NONE',  ( 1.000000000000000000, 0.000000000000000000, 0.000000000000000000 ) ) ;
#376 = PRODUCT_RELATED_PRODUCT_CATEGORY ( 'part', '', ( #1040 ) ) ;
#377 = CARTESIAN_POINT ( 'NONE',  ( 39.60000000000000142, 3.000000000000000000, -12.00000000000000178 ) ) ;
#378 = VECTOR ( 'NONE', #934, 1000.000000000000000 ) ;
#379 = ORIENTED_EDGE ( 'NONE', *, *, #313, .T. ) ;
#380 = VERTEX_POINT ( 'NONE', #274 ) ;
#381 = DIRECTION ( 'NONE',  ( -1.239088197126291063E-16, 0.000000000000000000, 1.000000000000000000 ) ) ;
#382 = VECTOR ( 'NONE', #1013, 1000.000000000000000 ) ;
#383 = CARTESIAN_POINT ( 'NONE',  ( 6.800000000000002487, 0.000000000000000000, -65.00000000000000000 ) ) ;
#384 = ORIENTED_EDGE ( 'NONE', *, *, #492, .T. ) ;
#385 = VECTOR ( 'NONE', #956, 1000.000000000000000 ) ;
#386 = EDGE_LOOP ( 'NONE', ( #1105, #989, #76, #208 ) ) ;
#387 = EDGE_CURVE ( 'NONE', #922, #82, #14, .T. ) ;
#388 = PLANE ( 'NONE',  #11 ) ;
#389 = CYLINDRICAL_SURFACE ( 'NONE', #1, 10.00000000000000000 ) ;
#390 = VERTEX_POINT ( 'NONE', #1120 ) ;
#391 = ORIENTED_EDGE ( 'NONE', *, *, #1116, .F. ) ;
#392 = DIRECTION ( 'NONE',  ( 0.000000000000000000, 1.000000000000000000, 0.000000000000000000 ) ) ;
#393 = LINE ( 'NONE', #671, #1028 ) ;
#394 = ORIENTED_EDGE ( 'NONE', *, *, #341, .T. ) ;
#395 = ORIENTED_EDGE ( 'NONE', *, *, #449, .T. ) ;
#396 = CARTESIAN_POINT ( 'NONE',  ( 0.000000000000000000, 0.000000000000000000, -70.00000000000000000 ) ) ;
#397 = CYLINDRICAL_SURFACE ( 'NONE', #578, 1.750000000000015543 ) ;
#398 = EDGE_CURVE ( 'NONE', #661, #686, #188, .T. ) ;
#399 = UNCERTAINTY_MEASURE_WITH_UNIT (LENGTH_MEASURE( 1.000000000000000082E-05 ), #697, 'distance_accuracy_value', 'NONE');
#400 = CARTESIAN_POINT ( 'NONE',  ( 49.60000000000000142, 0.000000000000000000, -22.00000000000000355 ) ) ;
#401 = ORIENTED_EDGE ( 'NONE', *, *, #776, .F. ) ;
#402 = ORIENTED_EDGE ( 'NONE', *, *, #112, .F. ) ;
#403 = AXIS2_PLACEMENT_3D ( 'NONE', #233, #214, #861 ) ;
#404 = DIRECTION ( 'NONE',  ( 0.000000000000000000, -1.000000000000000000, 0.000000000000000000 ) ) ;
#405 = VECTOR ( 'NONE', #280, 1000.000000000000000 ) ;
#406 = CARTESIAN_POINT ( 'NONE',  ( 10.00000000000000000, 0.000000000000000000, -10.00000000000000000 ) ) ;
#407 = CARTESIAN_POINT ( 'NONE',  ( 29.60000000000000142, 3.000000000000000000, 0.000000000000000000 ) ) ;
#408 = ORIENTED_EDGE ( 'NONE', *, *, #1034, .F. ) ;
#409 = EDGE_CURVE ( 'NONE', #676, #1057, #575, .T. ) ;
#410 = ORIENTED_EDGE ( 'NONE', *, *, #119, .T. ) ;
#411 = DIRECTION ( 'NONE',  ( -1.000000000000000000, 0.000000000000000000, -0.000000000000000000 ) ) ;
#412 = CARTESIAN_POINT ( 'NONE',  ( 39.60000000000000142, 3.000000000000000000, 0.000000000000000000 ) ) ;
#413 = FACE_OUTER_BOUND ( 'NONE', #250, .T. ) ;
#414 = ORIENTED_EDGE ( 'NONE', *, *, #235, .T. ) ;
#415 = ORIENTED_EDGE ( 'NONE', *, *, #99, .F. ) ;
#416 = EDGE_CURVE ( 'NONE', #320, #1191, #919, .T. ) ;
#417 = CARTESIAN_POINT ( 'NONE',  ( 0.000000000000000000, 0.000000000000000000, -50.00000000000000000 ) ) ;
#418 = SURFACE_STYLE_FILL_AREA ( #310 ) ;
#419 = AXIS2_PLACEMENT_3D ( 'NONE', #1160, #331, #973 ) ;
#420 = CARTESIAN_POINT ( 'NONE',  ( 6.800000000000002487, 3.000000000000000000, -65.00000000000000000 ) ) ;
#421 = CARTESIAN_POINT ( 'NONE',  ( 39.60000000000000142, 3.000000000000000000, -10.00000000000000000 ) ) ;
#422 = AXIS2_PLACEMENT_3D ( 'NONE', #581, #762, #180 ) ;
#423 = ORIENTED_EDGE ( 'NONE', *, *, #969, .T. ) ;
#424 = FACE_OUTER_BOUND ( 'NONE', #1019, .T. ) ;
#425 = AXIS2_PLACEMENT_3D ( 'NONE', #322, #959, #1052 ) ;
#426 = DIRECTION ( 'NONE',  ( 1.000000000000000000, 0.000000000000000000, 0.000000000000000000 ) ) ;
#427 = EDGE_CURVE ( 'NONE', #1057, #841, #744, .T. ) ;
#428 = VECTOR ( 'NONE', #167, 1000.000000000000000 ) ;
#429 = DIRECTION ( 'NONE',  ( 1.000000000000000000, 0.000000000000000000, 2.478176394252582127E-16 ) ) ;
#430 = CARTESIAN_POINT ( 'NONE',  ( 12.00000000000000000, -42.00000000000000000, 0.000000000000000000 ) ) ;
#431 = ORIENTED_EDGE ( 'NONE', *, *, #165, .F. ) ;
#432 = CARTESIAN_POINT ( 'NONE',  ( 52.60000000000000142, 0.000000000000000000, -22.00000000000000355 ) ) ;
#433 = CARTESIAN_POINT ( 'NONE',  ( -13.00000000000000355, 0.000000000000000000, -60.80000000000000426 ) ) ;
#434 = DIRECTION ( 'NONE',  ( 1.000000000000000000, -0.000000000000000000, 0.000000000000000000 ) ) ;
#435 = ORIENTED_EDGE ( 'NONE', *, *, #514, .F. ) ;
#436 = LINE ( 'NONE', #897, #767 ) ;
#437 = DIRECTION ( 'NONE',  ( -0.000000000000000000, -1.000000000000000000, 0.000000000000000000 ) ) ;
#438 = CARTESIAN_POINT ( 'NONE',  ( 39.60000000000000142, 3.000000000000000000, -70.00000000000000000 ) ) ;
#439 = ORIENTED_EDGE ( 'NONE', *, *, #177, .T. ) ;
#440 = VECTOR ( 'NONE', #120, 1000.000000000000000 ) ;
#441 = EDGE_CURVE ( 'NONE', #72, #373, #365, .T. ) ;
#442 = CARTESIAN_POINT ( 'NONE',  ( 49.60000000000000142, -42.00000000000000000, -22.00000000000000355 ) ) ;
#443 = PLANE ( 'NONE',  #971 ) ;
#444 = CIRCLE ( 'NONE', #1115, 10.00000000000000000 ) ;
#445 = DIRECTION ( 'NONE',  ( 2.478176394252581634E-16, 0.000000000000000000, -1.000000000000000000 ) ) ;
#446 = LINE ( 'NONE', #1102, #108 ) ;
#447 = EDGE_LOOP ( 'NONE', ( #1021, #196, #1033, #260, #49 ) ) ;
#448 = VECTOR ( 'NONE', #2, 1000.000000000000000 ) ;
#449 = EDGE_CURVE ( 'NONE', #923, #457, #114, .T. ) ;
#450 = DIRECTION ( 'NONE',  ( 0.000000000000000000, 0.000000000000000000, 1.000000000000000000 ) ) ;
#451 = DIRECTION ( 'NONE',  ( 0.000000000000000000, 1.000000000000000000, 0.000000000000000000 ) ) ;
#452 = LINE ( 'NONE', #1097, #172 ) ;
#453 = VERTEX_POINT ( 'NONE', #477 ) ;
#454 = DIRECTION ( 'NONE',  ( 0.000000000000000000, 0.000000000000000000, 1.000000000000000000 ) ) ;
#455 = CARTESIAN_POINT ( 'NONE',  ( 10.00000000000000000, 3.000000000000000000, -10.00000000000000000 ) ) ;
#456 = DIRECTION ( 'NONE',  ( -1.000000000000000000, -0.000000000000000000, -0.000000000000000000 ) ) ;
#457 = VERTEX_POINT ( 'NONE', #293 ) ;
#458 = AXIS2_PLACEMENT_3D ( 'NONE', #489, #775, #682 ) ;
#459 = ORIENTED_EDGE ( 'NONE', *, *, #585, .T. ) ;
#460 = CARTESIAN_POINT ( 'NONE',  ( 49.60000000000001563, 0.000000000000000000, -57.80000000000000426 ) ) ;
#461 = CARTESIAN_POINT ( 'NONE',  ( 32.80000000000000426, 3.000000000000000000, -63.24999999999998579 ) ) ;
#462 = ADVANCED_FACE ( 'NONE', ( #638 ), #388, .F. ) ;
#463 = DIRECTION ( 'NONE',  ( 0.000000000000000000, -1.000000000000000000, 0.000000000000000000 ) ) ;
#464 = VECTOR ( 'NONE', #954, 1000.000000000000000 ) ;
#465 = ORIENTED_EDGE ( 'NONE', *, *, #773, .F. ) ;
#466 = EDGE_LOOP ( 'NONE', ( #1103, #565, #647, #494 ) ) ;
#467 = DIRECTION ( 'NONE',  ( 1.000000000000000000, 0.000000000000000000, 0.000000000000000000 ) ) ;
#468 = EDGE_CURVE ( 'NONE', #810, #304, #1011, .T. ) ;
#469 = DIRECTION ( 'NONE',  ( -0.000000000000000000, 1.000000000000000000, -0.000000000000000000 ) ) ;
#470 = VERTEX_POINT ( 'NONE', #1101 ) ;
#471 = ORIENTED_EDGE ( 'NONE', *, *, #755, .T. ) ;
#472 = CARTESIAN_POINT ( 'NONE',  ( 39.60000000000000142, 3.000000000000000000, -22.00000000000000355 ) ) ;
#473 = DIRECTION ( 'NONE',  ( 0.000000000000000000, 0.000000000000000000, 1.000000000000000000 ) ) ;
#474 = ORIENTED_EDGE ( 'NONE', *, *, #182, .T. ) ;
#475 = VECTOR ( 'NONE', #127, 1000.000000000000000 ) ;
#476 = ORIENTED_EDGE ( 'NONE', *, *, #324, .T. ) ;
#477 = CARTESIAN_POINT ( 'NONE',  ( 52.60000000000000142, 0.000000000000000000, -50.00000000000000000 ) ) ;
#478 = AXIS2_PLACEMENT_3D ( 'NONE', #516, #352, #548 ) ;
#479 = PLANE ( 'NONE',  #593 ) ;
#480 = ORIENTED_EDGE ( 'NONE', *, *, #387, .T. ) ;
#481 = VERTEX_POINT ( 'NONE', #824 ) ;
#482 = ADVANCED_FACE ( 'NONE', ( #913, #736, #726 ), #924, .T. ) ;
#483 = LINE ( 'NONE', #953, #1087 ) ;
#484 = PRODUCT_CONTEXT ( 'NONE', #901, 'mechanical' ) ;
#485 = AXIS2_PLACEMENT_3D ( 'NONE', #781, #140, #1036 ) ;
#486 = DIRECTION ( 'NONE',  ( 0.000000000000000000, 0.000000000000000000, -1.000000000000000000 ) ) ;
#487 = VERTEX_POINT ( 'NONE', #562 ) ;
#488 = VERTEX_POINT ( 'NONE', #811 ) ;
#489 = CARTESIAN_POINT ( 'NONE',  ( 6.800000000000002487, 0.000000000000000000, -65.00000000000000000 ) ) ;
#490 = EDGE_CURVE ( 'NONE', #513, #939, #663, .T. ) ;
#491 = LINE ( 'NONE', #592, #936 ) ;
#492 = EDGE_CURVE ( 'NONE', #89, #278, #104, .T. ) ;
#493 = LINE ( 'NONE', #1117, #611 ) ;
#494 = ORIENTED_EDGE ( 'NONE', *, *, #1083, .T. ) ;
#495 = ORIENTED_EDGE ( 'NONE', *, *, #879, .F. ) ;
#496 = CARTESIAN_POINT ( 'NONE',  ( 32.80000000000000426, 3.000000000000000000, -65.00000000000000000 ) ) ;
#497 = CIRCLE ( 'NONE', #58, 10.00000000000000000 ) ;
#498 = ADVANCED_FACE ( 'NONE', ( #284 ), #1002, .T. ) ;
#499 = UNCERTAINTY_MEASURE_WITH_UNIT (LENGTH_MEASURE( 1.000000000000000082E-05 ), #908, 'distance_accuracy_value', 'NONE');
#500 = LINE ( 'NONE', #771, #556 ) ;
#501 = ORIENTED_EDGE ( 'NONE', *, *, #572, .T. ) ;
#502 = ORIENTED_EDGE ( 'NONE', *, *, #566, .F. ) ;
#503 = ADVANCED_FACE ( 'NONE', ( #552 ), #198, .T. ) ;
#504 = LINE ( 'NONE', #677, #440 ) ;
#505 = CLOSED_SHELL ( 'NONE', ( #977, #532, #946, #482, #71, #285, #915, #550, #689, #144, #1167, #154, #227, #218, #672, #929, #1183, #340, #551, #462, #721, #984, #705, #121, #277, #1067, #812, #498, #1074, #503, #844, #123, #1077, #523, #987, #224 ) ) ;
#506 = CARTESIAN_POINT ( 'NONE',  ( 6.800000000000002487, 3.000000000000000000, -63.24999999999998579 ) ) ;
#507 = CARTESIAN_POINT ( 'NONE',  ( 29.60000000000000142, 3.000000000000000000, -10.00000000000000000 ) ) ;
#508 = EDGE_LOOP ( 'NONE', ( #471, #571, #1055, #845 ) ) ;
#509 = ORIENTED_EDGE ( 'NONE', *, *, #563, .T. ) ;
#510 = FACE_OUTER_BOUND ( 'NONE', #38, .T. ) ;
#511 = CARTESIAN_POINT ( 'NONE',  ( 39.60000000000000142, 3.000000000000000000, 0.000000000000000000 ) ) ;
#512 = DIRECTION ( 'NONE',  ( -1.000000000000000000, 0.000000000000000000, -0.000000000000000000 ) ) ;
#513 = VERTEX_POINT ( 'NONE', #568 ) ;
#514 = EDGE_CURVE ( 'NONE', #373, #780, #1022, .T. ) ;
#515 = ORIENTED_EDGE ( 'NONE', *, *, #625, .T. ) ;
#516 = CARTESIAN_POINT ( 'NONE',  ( 52.60000000000001563, 0.000000000000000000, -50.00000000000000000 ) ) ;
#517 = EDGE_CURVE ( 'NONE', #686, #45, #18, .T. ) ;
#518 = VECTOR ( 'NONE', #629, 1000.000000000000000 ) ;
#519 = CARTESIAN_POINT ( 'NONE',  ( 12.00000000000000000, -42.00000000000000000, -15.00000000000000000 ) ) ;
#520 = DIRECTION ( 'NONE',  ( 0.000000000000000000, 0.000000000000000000, -1.000000000000000000 ) ) ;
#521 = VECTOR ( 'NONE', #456, 1000.000000000000000 ) ;
#522 = ORIENTED_EDGE ( 'NONE', *, *, #658, .F. ) ;
#523 = ADVANCED_FACE ( 'NONE', ( #843 ), #605, .F. ) ;
#524 = CARTESIAN_POINT ( 'NONE',  ( 49.60000000000000853, -42.00000000000000000, -50.00000000000000000 ) ) ;
#525 = VECTOR ( 'NONE', #1064, 1000.000000000000000 ) ;
#526 = DIRECTION ( 'NONE',  ( -0.000000000000000000, -1.000000000000000000, -0.000000000000000000 ) ) ;
#527 = CARTESIAN_POINT ( 'NONE',  ( 0.000000000000000000, 3.000000000000000000, 0.000000000000000000 ) ) ;
#528 = ORIENTED_EDGE ( 'NONE', *, *, #750, .T. ) ;
#529 = PLANE ( 'NONE',  #213 ) ;
#530 = CARTESIAN_POINT ( 'NONE',  ( 3.429011037612589276E-15, 3.000000000000000000, -22.00000000000000711 ) ) ;
#531 = PLANE ( 'NONE',  #1056 ) ;
#532 = ADVANCED_FACE ( 'NONE', ( #945 ), #1148, .F. ) ;
#533 = EDGE_LOOP ( 'NONE', ( #222, #741, #580, #561 ) ) ;
#534 = CARTESIAN_POINT ( 'NONE',  ( -9.999999999999994671, -42.00000000000000000, -22.00000000000000711 ) ) ;
#535 = DIRECTION ( 'NONE',  ( 0.000000000000000000, -1.000000000000000000, 0.000000000000000000 ) ) ;
#536 = CARTESIAN_POINT ( 'NONE',  ( -13.00000000000000533, 0.000000000000000000, -57.80000000000000426 ) ) ;
#537 = EDGE_CURVE ( 'NONE', #957, #1119, #504, .T. ) ;
#538 = CIRCLE ( 'NONE', #226, 1.750000000000015543 ) ;
#539 = LINE ( 'NONE', #870, #691 ) ;
#540 = ORIENTED_EDGE ( 'NONE', *, *, #441, .T. ) ;
#541 = CIRCLE ( 'NONE', #419, 3.000000000000002665 ) ;
#542 = LINE ( 'NONE', #524, #674 ) ;
#543 = VECTOR ( 'NONE', #157, 1000.000000000000000 ) ;
#544 = LINE ( 'NONE', #898, #5 ) ;
#545 = ORIENTED_EDGE ( 'NONE', *, *, #1159, .T. ) ;
#546 =( NAMED_UNIT ( * ) SI_UNIT ( $, .STERADIAN. ) SOLID_ANGLE_UNIT ( ) );
#547 = CARTESIAN_POINT ( 'NONE',  ( 12.00000000000000000, 3.000000000000000000, 0.000000000000000000 ) ) ;
#548 = DIRECTION ( 'NONE',  ( 4.956352788505163268E-16, 0.000000000000000000, -1.000000000000000000 ) ) ;
#549 = ORIENTED_EDGE ( 'NONE', *, *, #313, .F. ) ;
#550 = ADVANCED_FACE ( 'NONE', ( #223 ), #958, .F. ) ;
#551 = ADVANCED_FACE ( 'NONE', ( #510 ), #853, .T. ) ;
#552 = FACE_OUTER_BOUND ( 'NONE', #905, .T. ) ;
#553 = DIRECTION ( 'NONE',  ( 0.000000000000000000, -0.000000000000000000, 1.000000000000000000 ) ) ;
#554 = CARTESIAN_POINT ( 'NONE',  ( 0.000000000000000000, 0.000000000000000000, 0.000000000000000000 ) ) ;
#555 = ORIENTED_EDGE ( 'NONE', *, *, #1053, .F. ) ;
#556 = VECTOR ( 'NONE', #1144, 1000.000000000000000 ) ;
#557 = EDGE_LOOP ( 'NONE', ( #379, #295, #197, #1048 ) ) ;
#558 = DIRECTION ( 'NONE',  ( 4.956352788505163268E-16, -0.000000000000000000, -1.000000000000000000 ) ) ;
#559 = CARTESIAN_POINT ( 'NONE',  ( 0.000000000000000000, 3.000000000000000000, -70.00000000000000000 ) ) ;
#560 = VERTEX_POINT ( 'NONE', #754 ) ;
#561 = ORIENTED_EDGE ( 'NONE', *, *, #585, .F. ) ;
#562 = CARTESIAN_POINT ( 'NONE',  ( 17.00000000000000000, 3.000000000000000000, -15.00000000000000000 ) ) ;
#563 = EDGE_CURVE ( 'NONE', #1100, #380, #814, .T. ) ;
#564 = LINE ( 'NONE', #116, #1157 ) ;
#565 = ORIENTED_EDGE ( 'NONE', *, *, #849, .T. ) ;
#566 = EDGE_CURVE ( 'NONE', #747, #221, #33, .T. ) ;
#567 = ORIENTED_EDGE ( 'NONE', *, *, #836, .T. ) ;
#568 = CARTESIAN_POINT ( 'NONE',  ( 22.60000000000000142, 3.000000000000000000, -15.00000000000000000 ) ) ;
#569 = SHAPE_DEFINITION_REPRESENTATION ( #854, #194 ) ;
#570 = LINE ( 'NONE', #942, #382 ) ;
#571 = ORIENTED_EDGE ( 'NONE', *, *, #776, .T. ) ;
#572 = EDGE_CURVE ( 'NONE', #453, #9, #963, .T. ) ;
#573 = VECTOR ( 'NONE', #303, 1000.000000000000000 ) ;
#574 = ORIENTED_EDGE ( 'NONE', *, *, #948, .T. ) ;
#575 = LINE ( 'NONE', #472, #1014 ) ;
#576 = VECTOR ( 'NONE', #15, 1000.000000000000000 ) ;
#577 = EDGE_LOOP ( 'NONE', ( #1151, #823 ) ) ;
#578 = AXIS2_PLACEMENT_3D ( 'NONE', #225, #606, #122 ) ;
#579 = AXIS2_PLACEMENT_3D ( 'NONE', #527, #434, #1169 ) ;
#580 = ORIENTED_EDGE ( 'NONE', *, *, #102, .F. ) ;
#581 = CARTESIAN_POINT ( 'NONE',  ( 32.80000000000000426, 3.000000000000000000, -65.00000000000000000 ) ) ;
#582 = DIRECTION ( 'NONE',  ( 0.000000000000000000, 0.000000000000000000, 1.000000000000000000 ) ) ;
#583 = ORIENTED_EDGE ( 'NONE', *, *, #492, .F. ) ;
#584 = EDGE_LOOP ( 'NONE', ( #1129, #906, #730, #402 ) ) ;
#585 = EDGE_CURVE ( 'NONE', #244, #143, #591, .T. ) ;
#586 = DIRECTION ( 'NONE',  ( 0.000000000000000000, 0.000000000000000000, -1.000000000000000000 ) ) ;
#587 = LINE ( 'NONE', #62, #234 ) ;
#588 = CARTESIAN_POINT ( 'NONE',  ( 6.800000000000002487, 0.000000000000000000, -66.75000000000001421 ) ) ;
#589 = ORIENTED_EDGE ( 'NONE', *, *, #147, .F. ) ;
#590 = VERTEX_POINT ( 'NONE', #860 ) ;
#591 = LINE ( 'NONE', #669, #627 ) ;
#592 = CARTESIAN_POINT ( 'NONE',  ( 39.60000000000000142, 3.000000000000000000, -70.00000000000000000 ) ) ;
#593 = AXIS2_PLACEMENT_3D ( 'NONE', #1121, #473, #100 ) ;
#594 = CARTESIAN_POINT ( 'NONE',  ( 49.60000000000001563, 0.000000000000000000, -57.80000000000000426 ) ) ;
#595 = CARTESIAN_POINT ( 'NONE',  ( 12.00000000000000000, 3.000000000000000000, -15.00000000000000000 ) ) ;
#596 = VERTEX_POINT ( 'NONE', #299 ) ;
#597 = DIRECTION ( 'NONE',  ( -0.000000000000000000, 1.000000000000000000, -0.000000000000000000 ) ) ;
#598 = VECTOR ( 'NONE', #445, 1000.000000000000000 ) ;
#599 = CARTESIAN_POINT ( 'NONE',  ( 6.800000000000002487, 3.000000000000000000, -65.00000000000000000 ) ) ;
#600 = EDGE_CURVE ( 'NONE', #590, #624, #46, .T. ) ;
#601 = CARTESIAN_POINT ( 'NONE',  ( 0.000000000000000000, 3.000000000000000000, -70.00000000000000000 ) ) ;
#602 = ORIENTED_EDGE ( 'NONE', *, *, #755, .F. ) ;
#603 = ORIENTED_EDGE ( 'NONE', *, *, #537, .T. ) ;
#604 = EDGE_CURVE ( 'NONE', #747, #957, #871, .T. ) ;
#605 = PLANE ( 'NONE',  #1165 ) ;
#606 = DIRECTION ( 'NONE',  ( -0.000000000000000000, 1.000000000000000000, -0.000000000000000000 ) ) ;
#607 = PLANE ( 'NONE',  #668 ) ;
#608 = DIRECTION ( 'NONE',  ( -0.000000000000000000, 0.000000000000000000, 1.000000000000000000 ) ) ;
#609 = VERTEX_POINT ( 'NONE', #396 ) ;
#610 = CARTESIAN_POINT ( 'NONE',  ( -13.00000000000000355, 3.000000000000000000, -50.00000000000000000 ) ) ;
#611 = VECTOR ( 'NONE', #840, 1000.000000000000000 ) ;
#612 = FACE_OUTER_BOUND ( 'NONE', #1124, .T. ) ;
#613 = DIRECTION ( 'NONE',  ( 1.000000000000000000, 0.000000000000000000, -0.000000000000000000 ) ) ;
#614 = ORIENTED_EDGE ( 'NONE', *, *, #335, .T. ) ;
#615 = EDGE_CURVE ( 'NONE', #641, #560, #1043, .T. ) ;
#616 = DIRECTION ( 'NONE',  ( 0.000000000000000000, -1.000000000000000000, 0.000000000000000000 ) ) ;
#617 = CARTESIAN_POINT ( 'NONE',  ( 32.80000000000000426, 3.000000000000000000, -66.75000000000001421 ) ) ;
#618 = CARTESIAN_POINT ( 'NONE',  ( 27.60000000000000142, 0.000000000000000000, -10.00000000000000000 ) ) ;
#619 = ORIENTED_EDGE ( 'NONE', *, *, #1187, .F. ) ;
#620 = PLANE ( 'NONE',  #711 ) ;
#621 = LINE ( 'NONE', #639, #1026 ) ;
#622 = FACE_OUTER_BOUND ( 'NONE', #673, .T. ) ;
#623 = DIRECTION ( 'NONE',  ( 0.000000000000000000, -1.000000000000000000, 0.000000000000000000 ) ) ;
#624 = VERTEX_POINT ( 'NONE', #695 ) ;
#625 = EDGE_CURVE ( 'NONE', #1163, #481, #315, .T. ) ;
#626 = DIRECTION ( 'NONE',  ( 0.000000000000000000, 1.000000000000000000, 0.000000000000000000 ) ) ;
#627 = VECTOR ( 'NONE', #52, 1000.000000000000000 ) ;
#628 = VECTOR ( 'NONE', #535, 1000.000000000000000 ) ;
#629 = DIRECTION ( 'NONE',  ( -1.000000000000000000, -0.000000000000000000, -0.000000000000000000 ) ) ;
#630 = ORIENTED_EDGE ( 'NONE', *, *, #129, .T. ) ;
#631 = CIRCLE ( 'NONE', #300, 1.750000000000015543 ) ;
#632 = CARTESIAN_POINT ( 'NONE',  ( 49.60000000000001563, 0.000000000000000000, -60.80000000000000426 ) ) ;
#633 = DIRECTION ( 'NONE',  ( -0.000000000000000000, 1.000000000000000000, -0.000000000000000000 ) ) ;
#634 = EDGE_CURVE ( 'NONE', #278, #45, #483, .T. ) ;
#635 = LINE ( 'NONE', #664, #576 ) ;
#636 = ORIENTED_EDGE ( 'NONE', *, *, #249, .F. ) ;
#637 = EDGE_CURVE ( 'NONE', #9, #841, #133, .T. ) ;
#638 = FACE_OUTER_BOUND ( 'NONE', #306, .T. ) ;
#639 = CARTESIAN_POINT ( 'NONE',  ( 27.60000000000000142, 0.000000000000000000, 0.000000000000000000 ) ) ;
#640 = DIRECTION ( 'NONE',  ( 1.000000000000000000, 0.000000000000000000, 0.000000000000000000 ) ) ;
#641 = VERTEX_POINT ( 'NONE', #212 ) ;
#642 = EDGE_CURVE ( 'NONE', #380, #1100, #874, .T. ) ;
#643 = ORIENTED_EDGE ( 'NONE', *, *, #147, .T. ) ;
#644 = CARTESIAN_POINT ( 'NONE',  ( 0.000000000000000000, 3.000000000000000000, 0.000000000000000000 ) ) ;
#645 = APPLICATION_PROTOCOL_DEFINITION ( 'draft international standard', 'automotive_design', 1998, #901 ) ;
#646 = CARTESIAN_POINT ( 'NONE',  ( 6.800000000000002487, 0.000000000000000000, -63.24999999999998579 ) ) ;
#647 = ORIENTED_EDGE ( 'NONE', *, *, #566, .T. ) ;
#648 = EDGE_LOOP ( 'NONE', ( #888, #292, #1010, #619, #748, #216 ) ) ;
#649 = EDGE_CURVE ( 'NONE', #863, #82, #170, .T. ) ;
#650 = CARTESIAN_POINT ( 'NONE',  ( 0.000000000000000000, 3.000000000000000000, 0.000000000000000000 ) ) ;
#651 = EDGE_CURVE ( 'NONE', #487, #238, #452, .T. ) ;
#652 = AXIS2_PLACEMENT_3D ( 'NONE', #64, #713, #613 ) ;
#653 = CARTESIAN_POINT ( 'NONE',  ( -12.99999999999999645, -42.00000000000000000, -22.00000000000000711 ) ) ;
#654 = ORIENTED_EDGE ( 'NONE', *, *, #283, .T. ) ;
#655 = ORIENTED_EDGE ( 'NONE', *, *, #1132, .T. ) ;
#656 = VECTOR ( 'NONE', #558, 1000.000000000000000 ) ;
#657 = DIRECTION ( 'NONE',  ( -1.000000000000000000, 0.000000000000000000, -1.239088197126291063E-16 ) ) ;
#658 = EDGE_CURVE ( 'NONE', #661, #704, #446, .T. ) ;
#659 = DIRECTION ( 'NONE',  ( 1.000000000000000000, 0.000000000000000000, 0.000000000000000000 ) ) ;
#660 = ORIENTED_EDGE ( 'NONE', *, *, #345, .T. ) ;
#661 = VERTEX_POINT ( 'NONE', #994 ) ;
#662 = DIRECTION ( 'NONE',  ( 0.000000000000000000, 0.000000000000000000, 1.000000000000000000 ) ) ;
#663 = CIRCLE ( 'NONE', #925, 4.999999999999999112 ) ;
#664 = CARTESIAN_POINT ( 'NONE',  ( -12.99999999999999645, -42.00000000000000000, -22.00000000000000711 ) ) ;
#665 = ORIENTED_EDGE ( 'NONE', *, *, #1147, .F. ) ;
#666 = VECTOR ( 'NONE', #1029, 1000.000000000000000 ) ;
#667 = ORIENTED_EDGE ( 'NONE', *, *, #756, .F. ) ;
#668 = AXIS2_PLACEMENT_3D ( 'NONE', #519, #875, #1172 ) ;
#669 = CARTESIAN_POINT ( 'NONE',  ( 12.00000000000000000, 3.000000000000002665, -9.999999999999998224 ) ) ;
#670 = DIRECTION ( 'NONE',  ( 1.000000000000000000, 0.000000000000000000, 0.000000000000000000 ) ) ;
#671 = CARTESIAN_POINT ( 'NONE',  ( 52.60000000000000142, -42.00000000000000000, -50.00000000000000000 ) ) ;
#672 = ADVANCED_FACE ( 'NONE', ( #424 ), #895, .T. ) ;
#673 = EDGE_LOOP ( 'NONE', ( #13, #614, #842, #509 ) ) ;
#674 = VECTOR ( 'NONE', #77, 1000.000000000000000 ) ;
#675 = EDGE_CURVE ( 'NONE', #82, #488, #1164, .T. ) ;
#676 = VERTEX_POINT ( 'NONE', #718 ) ;
#677 = CARTESIAN_POINT ( 'NONE',  ( 6.800000000000002487, 3.000000000000000000, -66.75000000000001421 ) ) ;
#678 = FACE_OUTER_BOUND ( 'NONE', #1154, .T. ) ;
#679 = CARTESIAN_POINT ( 'NONE',  ( 6.800000000000002487, 3.000000000000000000, -65.00000000000000000 ) ) ;
#680 = EDGE_LOOP ( 'NONE', ( #1092, #899, #522, #700 ) ) ;
#681 = ORIENTED_EDGE ( 'NONE', *, *, #1104, .F. ) ;
#682 = DIRECTION ( 'NONE',  ( 0.000000000000000000, 0.000000000000000000, -1.000000000000000000 ) ) ;
#683 = CARTESIAN_POINT ( 'NONE',  ( -12.99999999999999645, -42.00000000000000000, -50.00000000000000000 ) ) ;
#684 = PLANE ( 'NONE',  #78 ) ;
#685 = ORIENTED_EDGE ( 'NONE', *, *, #1138, .F. ) ;
#686 = VERTEX_POINT ( 'NONE', #821 ) ;
#687 = DIRECTION ( 'NONE',  ( 0.000000000000000000, 0.000000000000000000, -1.000000000000000000 ) ) ;
#688 = CIRCLE ( 'NONE', #1051, 10.00000000000000000 ) ;
#689 = ADVANCED_FACE ( 'NONE', ( #357 ), #1085, .F. ) ;
#690 = CARTESIAN_POINT ( 'NONE',  ( 22.60000000000000142, 0.000000000000000000, -10.00000000000000000 ) ) ;
#691 = VECTOR ( 'NONE', #81, 1000.000000000000000 ) ;
#692 = CARTESIAN_POINT ( 'NONE',  ( 27.60000000000000142, -1.387778780781445676E-14, -10.00000000000000000 ) ) ;
#693 = ORIENTED_EDGE ( 'NONE', *, *, #1044, .F. ) ;
#694 = ORIENTED_EDGE ( 'NONE', *, *, #634, .F. ) ;
#695 = CARTESIAN_POINT ( 'NONE',  ( 9.999999999999996447, 0.000000000000000000, 0.000000000000000000 ) ) ;
#696 = AXIS2_PLACEMENT_3D ( 'NONE', #337, #1161, #1072 ) ;
#697 =( LENGTH_UNIT ( ) NAMED_UNIT ( * ) SI_UNIT ( .MILLI., .METRE. ) );
#698 = FACE_OUTER_BOUND ( 'NONE', #1174, .T. ) ;
#699 = DIRECTION ( 'NONE',  ( 0.000000000000000000, -1.000000000000000000, 0.000000000000000000 ) ) ;
#700 = ORIENTED_EDGE ( 'NONE', *, *, #398, .T. ) ;
#701 = LINE ( 'NONE', #610, #309 ) ;
#702 = CARTESIAN_POINT ( 'NONE',  ( 32.80000000000000426, 3.000000000000000000, -63.24999999999998579 ) ) ;
#703 = DIRECTION ( 'NONE',  ( 0.000000000000000000, -1.000000000000000000, 0.000000000000000000 ) ) ;
#704 = VERTEX_POINT ( 'NONE', #805 ) ;
#705 = ADVANCED_FACE ( 'NONE', ( #714 ), #265, .F. ) ;
#706 = FACE_OUTER_BOUND ( 'NONE', #584, .T. ) ;
#707 = LINE ( 'NONE', #892, #628 ) ;
#708 = FACE_OUTER_BOUND ( 'NONE', #110, .T. ) ;
#709 = ORIENTED_EDGE ( 'NONE', *, *, #1180, .T. ) ;
#710 = LINE ( 'NONE', #794, #858 ) ;
#711 = AXIS2_PLACEMENT_3D ( 'NONE', #1082, #334, #983 ) ;
#712 = DIRECTION ( 'NONE',  ( -6.938893903907228378E-16, 0.000000000000000000, -1.000000000000000000 ) ) ;
#713 = DIRECTION ( 'NONE',  ( 0.000000000000000000, 0.000000000000000000, 1.000000000000000000 ) ) ;
#714 = FACE_OUTER_BOUND ( 'NONE', #1027, .T. ) ;
#715 = ORIENTED_EDGE ( 'NONE', *, *, #615, .F. ) ;
#716 = CARTESIAN_POINT ( 'NONE',  ( 29.60000000000000142, 0.000000000000000000, -10.00000000000000000 ) ) ;
#717 = DIRECTION ( 'NONE',  ( 0.000000000000000000, -1.000000000000000000, 0.000000000000000000 ) ) ;
#718 = CARTESIAN_POINT ( 'NONE',  ( 49.60000000000000853, 3.000000000000000000, -22.00000000000000355 ) ) ;
#719 = VERTEX_POINT ( 'NONE', #1080 ) ;
#720 = DIRECTION ( 'NONE',  ( -1.000000000000000000, 0.000000000000000000, 0.000000000000000000 ) ) ;
#721 = ADVANCED_FACE ( 'NONE', ( #276 ), #259, .T. ) ;
#722 = DIRECTION ( 'NONE',  ( 0.000000000000000000, -1.000000000000000000, 0.000000000000000000 ) ) ;
#723 = VECTOR ( 'NONE', #1137, 1000.000000000000000 ) ;
#724 = CARTESIAN_POINT ( 'NONE',  ( 22.60000000000000142, 3.000000000000002665, -15.00000000000000000 ) ) ;
#725 = ORIENTED_EDGE ( 'NONE', *, *, #199, .T. ) ;
#726 = FACE_BOUND ( 'NONE', #370, .T. ) ;
#727 = AXIS2_PLACEMENT_3D ( 'NONE', #251, #884, #73 ) ;
#728 = CARTESIAN_POINT ( 'NONE',  ( 6.800000000000002487, 3.000000000000000000, -66.75000000000001421 ) ) ;
#729 = DIRECTION ( 'NONE',  ( 0.000000000000000000, -0.000000000000000000, 1.000000000000000000 ) ) ;
#730 = ORIENTED_EDGE ( 'NONE', *, *, #177, .F. ) ;
#731 = EDGE_LOOP ( 'NONE', ( #798, #298 ) ) ;
#732 = CARTESIAN_POINT ( 'NONE',  ( -9.999999999999994671, -42.00000000000000000, -22.00000000000000711 ) ) ;
#733 = DIRECTION ( 'NONE',  ( -0.000000000000000000, -0.000000000000000000, 1.000000000000000000 ) ) ;
#734 = ORIENTED_EDGE ( 'NONE', *, *, #354, .F. ) ;
#735 = ORIENTED_EDGE ( 'NONE', *, *, #324, .F. ) ;
#736 = FACE_BOUND ( 'NONE', #731, .T. ) ;
#737 = DIRECTION ( 'NONE',  ( 0.000000000000000000, 0.000000000000000000, 1.000000000000000000 ) ) ;
#738 = FACE_OUTER_BOUND ( 'NONE', #32, .T. ) ;
#739 = ORIENTED_EDGE ( 'NONE', *, *, #249, .T. ) ;
#740 = VECTOR ( 'NONE', #998, 1000.000000000000000 ) ;
#741 = ORIENTED_EDGE ( 'NONE', *, *, #651, .F. ) ;
#742 = VECTOR ( 'NONE', #526, 1000.000000000000000 ) ;
#743 = EDGE_CURVE ( 'NONE', #596, #609, #1004, .T. ) ;
#744 = LINE ( 'NONE', #831, #656 ) ;
#745 = CIRCLE ( 'NONE', #1012, 3.000000000000002665 ) ;
#746 = PLANE ( 'NONE',  #111 ) ;
#747 = VERTEX_POINT ( 'NONE', #646 ) ;
#748 = ORIENTED_EDGE ( 'NONE', *, *, #795, .F. ) ;
#749 = DIRECTION ( 'NONE',  ( 0.000000000000000000, -1.000000000000000000, 0.000000000000000000 ) ) ;
#750 = EDGE_CURVE ( 'NONE', #877, #859, #372, .T. ) ;
#751 = CARTESIAN_POINT ( 'NONE',  ( 10.00000000000000000, 3.000000000000000000, -10.00000000000000000 ) ) ;
#752 = ORIENTED_EDGE ( 'NONE', *, *, #129, .F. ) ;
#753 = ORIENTED_EDGE ( 'NONE', *, *, #296, .F. ) ;
#754 = CARTESIAN_POINT ( 'NONE',  ( 39.60000000000000142, 0.000000000000000000, -12.00000000000000178 ) ) ;
#755 = EDGE_CURVE ( 'NONE', #238, #390, #544, .T. ) ;
#756 = EDGE_CURVE ( 'NONE', #686, #353, #539, .T. ) ;
#757 = DIRECTION ( 'NONE',  ( 1.000000000000000000, -0.000000000000000000, -0.000000000000000000 ) ) ;
#758 = VERTEX_POINT ( 'NONE', #60 ) ;
#759 = AXIS2_PLACEMENT_3D ( 'NONE', #433, #960, #512 ) ;
#760 = ORIENTED_EDGE ( 'NONE', *, *, #637, .T. ) ;
#761 = PRODUCT_DEFINITION_FORMATION_WITH_SPECIFIED_SOURCE ( 'ä»', '', #1040, .NOT_KNOWN. ) ;
#762 = DIRECTION ( 'NONE',  ( -0.000000000000000000, 1.000000000000000000, -0.000000000000000000 ) ) ;
#763 = DIRECTION ( 'NONE',  ( -0.000000000000000000, 1.000000000000000000, -0.000000000000000000 ) ) ;
#764 = LINE ( 'NONE', #1024, #970 ) ;
#765 = ORIENTED_EDGE ( 'NONE', *, *, #766, .F. ) ;
#766 = EDGE_CURVE ( 'NONE', #624, #768, #6, .T. ) ;
#767 = VECTOR ( 'NONE', #268, 1000.000000000000000 ) ;
#768 = VERTEX_POINT ( 'NONE', #84 ) ;
#769 = CARTESIAN_POINT ( 'NONE',  ( 0.000000000000000000, 3.000000000000000000, 0.000000000000000000 ) ) ;
#770 = CARTESIAN_POINT ( 'NONE',  ( 17.00000000000000000, 0.000000000000000000, -15.00000000000000000 ) ) ;
#771 = CARTESIAN_POINT ( 'NONE',  ( 39.60000000000000142, 0.000000000000000000, 0.000000000000000000 ) ) ;
#772 = ORIENTED_EDGE ( 'NONE', *, *, #795, .T. ) ;
#773 = EDGE_CURVE ( 'NONE', #90, #453, #185, .T. ) ;
#774 = ORIENTED_EDGE ( 'NONE', *, *, #409, .T. ) ;
#775 = DIRECTION ( 'NONE',  ( 0.000000000000000000, -1.000000000000000000, 0.000000000000000000 ) ) ;
#776 = EDGE_CURVE ( 'NONE', #390, #513, #362, .T. ) ;
#777 = CARTESIAN_POINT ( 'NONE',  ( 52.60000000000001563, 0.000000000000000000, -50.00000000000000000 ) ) ;
#778 = CYLINDRICAL_SURFACE ( 'NONE', #990, 1.750000000000015543 ) ;
#779 = ORIENTED_EDGE ( 'NONE', *, *, #1063, .F. ) ;
#780 = VERTEX_POINT ( 'NONE', #271 ) ;
#781 = CARTESIAN_POINT ( 'NONE',  ( -10.00000000000000000, 0.000000000000000000, -12.00000000000000533 ) ) ;
#782 = VECTOR ( 'NONE', #55, 1000.000000000000000 ) ;
#783 = CARTESIAN_POINT ( 'NONE',  ( -10.00000000000000000, 3.000000000000000000, -12.00000000000000533 ) ) ;
#784 = VECTOR ( 'NONE', #856, 1000.000000000000000 ) ;
#785 = CARTESIAN_POINT ( 'NONE',  ( 49.60000000000000142, -42.00000000000000000, -22.00000000000000355 ) ) ;
#786 = DIRECTION ( 'NONE',  ( 0.000000000000000000, 0.000000000000000000, -1.000000000000000000 ) ) ;
#787 = ORIENTED_EDGE ( 'NONE', *, *, #836, .F. ) ;
#788 = VECTOR ( 'NONE', #245, 1000.000000000000000 ) ;
#789 = DIRECTION ( 'NONE',  ( -0.000000000000000000, 1.000000000000000000, 0.000000000000000000 ) ) ;
#790 = DIRECTION ( 'NONE',  ( 0.000000000000000000, -1.000000000000000000, 0.000000000000000000 ) ) ;
#791 = DIRECTION ( 'NONE',  ( -0.000000000000000000, -1.000000000000000000, 0.000000000000000000 ) ) ;
#792 = CARTESIAN_POINT ( 'NONE',  ( 12.00000000000000000, 3.000000000000000000, -9.999999999999998224 ) ) ;
#793 = EDGE_LOOP ( 'NONE', ( #7, #333, #391, #176 ) ) ;
#794 = CARTESIAN_POINT ( 'NONE',  ( 12.00000000000000000, 3.000000000000000000, 0.000000000000000000 ) ) ;
#795 = EDGE_CURVE ( 'NONE', #859, #470, #635, .T. ) ;
#796 = FACE_OUTER_BOUND ( 'NONE', #822, .T. ) ;
#797 = CARTESIAN_POINT ( 'NONE',  ( 52.60000000000000142, -42.00000000000000000, -22.00000000000000355 ) ) ;
#798 = ORIENTED_EDGE ( 'NONE', *, *, #604, .F. ) ;
#799 = DIRECTION ( 'NONE',  ( 0.000000000000000000, -1.000000000000000000, 0.000000000000000000 ) ) ;
#800 = CARTESIAN_POINT ( 'NONE',  ( 49.60000000000000853, 0.000000000000000000, -12.00000000000000178 ) ) ;
#801 = CARTESIAN_POINT ( 'NONE',  ( 49.60000000000000142, 0.000000000000000000, -22.00000000000000355 ) ) ;
#802 = ORIENTED_EDGE ( 'NONE', *, *, #235, .F. ) ;
#803 = CARTESIAN_POINT ( 'NONE',  ( -10.00000000000000000, 0.000000000000000000, -12.00000000000000533 ) ) ;
#804 = DIRECTION ( 'NONE',  ( -1.000000000000000000, -0.000000000000000000, -0.000000000000000000 ) ) ;
#805 = CARTESIAN_POINT ( 'NONE',  ( 0.000000000000000000, 3.000000000000000000, -10.00000000000000000 ) ) ;
#806 = VERTEX_POINT ( 'NONE', #400 ) ;
#807 = CARTESIAN_POINT ( 'NONE',  ( -13.00000000000000355, 0.000000000000000000, -50.00000000000000000 ) ) ;
#808 = DIRECTION ( 'NONE',  ( 0.000000000000000000, 0.000000000000000000, 1.000000000000000000 ) ) ;
#809 = CARTESIAN_POINT ( 'NONE',  ( 39.60000000000000142, 0.000000000000000000, -50.00000000000000000 ) ) ;
#810 = VERTEX_POINT ( 'NONE', #215 ) ;
#811 = CARTESIAN_POINT ( 'NONE',  ( -10.00000000000000355, 3.000000000000000000, -60.80000000000000426 ) ) ;
#812 = ADVANCED_FACE ( 'NONE', ( #1128 ), #389, .T. ) ;
#813 = CARTESIAN_POINT ( 'NONE',  ( 0.000000000000000000, 3.000000000000000000, -70.00000000000000000 ) ) ;
#814 = CIRCLE ( 'NONE', #209, 1.750000000000015543 ) ;
#815 = DIRECTION ( 'NONE',  ( 0.000000000000000000, 0.000000000000000000, -1.000000000000000000 ) ) ;
#816 = ORIENTED_EDGE ( 'NONE', *, *, #1047, .F. ) ;
#817 = ORIENTED_EDGE ( 'NONE', *, *, #305, .T. ) ;
#818 = DIRECTION ( 'NONE',  ( 0.000000000000000000, 0.000000000000000000, -1.000000000000000000 ) ) ;
#819 = AXIS2_PLACEMENT_3D ( 'NONE', #1176, #616, #153 ) ;
#820 = LINE ( 'NONE', #617, #1153 ) ;
#821 = CARTESIAN_POINT ( 'NONE',  ( 0.000000000000000000, 0.000000000000000000, -12.00000000000000533 ) ) ;
#822 = EDGE_LOOP ( 'NONE', ( #288, #944, #282, #401 ) ) ;
#823 = ORIENTED_EDGE ( 'NONE', *, *, #264, .F. ) ;
#824 = CARTESIAN_POINT ( 'NONE',  ( 39.60000000000000142, 3.000000000000000000, -60.80000000000000426 ) ) ;
#825 =( NAMED_UNIT ( * ) PLANE_ANGLE_UNIT ( ) SI_UNIT ( $, .RADIAN. ) );
#826 = CYLINDRICAL_SURFACE ( 'NONE', #1152, 3.000000000000002665 ) ;
#827 = ORIENTED_EDGE ( 'NONE', *, *, #1099, .T. ) ;
#828 = EDGE_CURVE ( 'NONE', #373, #806, #564, .T. ) ;
#829 = ORIENTED_EDGE ( 'NONE', *, *, #649, .T. ) ;
#830 = AXIS2_PLACEMENT_3D ( 'NONE', #1017, #818, #289 ) ;
#831 = CARTESIAN_POINT ( 'NONE',  ( 52.60000000000001563, 3.000000000000000000, -50.00000000000000000 ) ) ;
#832 = VECTOR ( 'NONE', #791, 1000.000000000000000 ) ;
#833 = DIRECTION ( 'NONE',  ( 0.000000000000000000, 1.000000000000000000, 0.000000000000000000 ) ) ;
#834 = EDGE_LOOP ( 'NONE', ( #846, #1179 ) ) ;
#835 = VECTOR ( 'NONE', #451, 1000.000000000000000 ) ;
#836 = EDGE_CURVE ( 'NONE', #17, #719, #764, .T. ) ;
#837 = ORIENTED_EDGE ( 'NONE', *, *, #1089, .F. ) ;
#838 = DIRECTION ( 'NONE',  ( 0.000000000000000000, -1.000000000000000000, 0.000000000000000000 ) ) ;
#839 = AXIS2_PLACEMENT_3D ( 'NONE', #54, #763, #873 ) ;
#840 = DIRECTION ( 'NONE',  ( 0.000000000000000000, 0.000000000000000000, -1.000000000000000000 ) ) ;
#841 = VERTEX_POINT ( 'NONE', #311 ) ;
#842 = ORIENTED_EDGE ( 'NONE', *, *, #1037, .T. ) ;
#843 = FACE_OUTER_BOUND ( 'NONE', #27, .T. ) ;
#844 = ADVANCED_FACE ( 'NONE', ( #1018 ), #826, .T. ) ;
#845 = ORIENTED_EDGE ( 'NONE', *, *, #651, .T. ) ;
#846 = ORIENTED_EDGE ( 'NONE', *, *, #563, .F. ) ;
#847 = CARTESIAN_POINT ( 'NONE',  ( 6.800000000000002487, 3.000000000000000000, -63.24999999999998579 ) ) ;
#848 = DIRECTION ( 'NONE',  ( -0.000000000000000000, 1.000000000000000000, -0.000000000000000000 ) ) ;
#849 = EDGE_CURVE ( 'NONE', #957, #747, #631, .T. ) ;
#850 = DIRECTION ( 'NONE',  ( 1.000000000000000000, -0.000000000000000000, 0.000000000000000000 ) ) ;
#851 = ORIENTED_EDGE ( 'NONE', *, *, #468, .T. ) ;
#852 = ORIENTED_EDGE ( 'NONE', *, *, #316, .T. ) ;
#853 = PLANE ( 'NONE',  #894 ) ;
#854 = PRODUCT_DEFINITION_SHAPE ( 'NONE', 'NONE',  #1123 ) ;
#855 = LINE ( 'NONE', #683, #155 ) ;
#856 = DIRECTION ( 'NONE',  ( 0.000000000000000000, 0.000000000000000000, -1.000000000000000000 ) ) ;
#857 = LINE ( 'NONE', #44, #349 ) ;
#858 = VECTOR ( 'NONE', #160, 1000.000000000000000 ) ;
#859 = VERTEX_POINT ( 'NONE', #653 ) ;
#860 = CARTESIAN_POINT ( 'NONE',  ( 9.999999999999996447, 3.000000000000000000, 0.000000000000000000 ) ) ;
#861 = DIRECTION ( 'NONE',  ( 0.000000000000000000, 0.000000000000000000, -1.000000000000000000 ) ) ;
#862 = DIRECTION ( 'NONE',  ( 0.000000000000000000, 0.000000000000000000, -1.000000000000000000 ) ) ;
#863 = VERTEX_POINT ( 'NONE', #200 ) ;
#864 = EDGE_LOOP ( 'NONE', ( #709, #655, #868, #950 ) ) ;
#865 = CARTESIAN_POINT ( 'NONE',  ( 32.80000000000000426, 3.000000000000000000, -65.00000000000000000 ) ) ;
#866 = CYLINDRICAL_SURFACE ( 'NONE', #403, 5.000000000000000888 ) ;
#867 = DIRECTION ( 'NONE',  ( 0.000000000000000000, -1.000000000000000000, 0.000000000000000000 ) ) ;
#868 = ORIENTED_EDGE ( 'NONE', *, *, #642, .T. ) ;
#869 = VERTEX_POINT ( 'NONE', #189 ) ;
#870 = CARTESIAN_POINT ( 'NONE',  ( 0.000000000000000000, 0.000000000000000000, 0.000000000000000000 ) ) ;
#871 = CIRCLE ( 'NONE', #458, 1.750000000000015543 ) ;
#872 = VECTOR ( 'NONE', #626, 1000.000000000000000 ) ;
#873 = DIRECTION ( 'NONE',  ( 0.000000000000000000, 0.000000000000000000, 1.000000000000000000 ) ) ;
#874 = CIRCLE ( 'NONE', #422, 1.750000000000015543 ) ;
#875 = DIRECTION ( 'NONE',  ( 0.000000000000000000, 0.000000000000000000, -1.000000000000000000 ) ) ;
#876 = CARTESIAN_POINT ( 'NONE',  ( 49.60000000000000853, 3.000000000000000000, -12.00000000000000178 ) ) ;
#877 = VERTEX_POINT ( 'NONE', #938 ) ;
#878 = MECHANICAL_DESIGN_GEOMETRIC_PRESENTATION_REPRESENTATION (  '', ( #351 ), #115 ) ;
#879 = EDGE_CURVE ( 'NONE', #457, #488, #25, .T. ) ;
#880 = CARTESIAN_POINT ( 'NONE',  ( 0.000000000000000000, 0.000000000000000000, -10.00000000000000000 ) ) ;
#881 = DIRECTION ( 'NONE',  ( 0.000000000000000000, -1.000000000000000000, 0.000000000000000000 ) ) ;
#882 = LINE ( 'NONE', #1061, #428 ) ;
#883 = ORIENTED_EDGE ( 'NONE', *, *, #750, .F. ) ;
#884 = DIRECTION ( 'NONE',  ( -0.000000000000000000, 1.000000000000000000, -0.000000000000000000 ) ) ;
#885 = EDGE_CURVE ( 'NONE', #877, #45, #570, .T. ) ;
#886 = DIRECTION ( 'NONE',  ( -0.000000000000000000, 1.000000000000000000, -0.000000000000000000 ) ) ;
#887 = DIRECTION ( 'NONE',  ( -1.000000000000000000, 0.000000000000000000, -0.000000000000000000 ) ) ;
#888 = ORIENTED_EDGE ( 'NONE', *, *, #345, .F. ) ;
#889 = AXIS2_PLACEMENT_3D ( 'NONE', #460, #371, #662 ) ;
#890 = CARTESIAN_POINT ( 'NONE',  ( 27.59999999999999432, 3.000000000000000000, 0.000000000000000000 ) ) ;
#891 = AXIS2_PLACEMENT_3D ( 'NONE', #507, #881, #862 ) ;
#892 = CARTESIAN_POINT ( 'NONE',  ( 39.60000000000000142, 3.000000000000000000, -10.00000000000000000 ) ) ;
#893 = PLANE ( 'NONE',  #579 ) ;
#894 = AXIS2_PLACEMENT_3D ( 'NONE', #417, #1050, #40 ) ;
#895 = PLANE ( 'NONE',  #478 ) ;
#896 = ORIENTED_EDGE ( 'NONE', *, *, #649, .F. ) ;
#897 = CARTESIAN_POINT ( 'NONE',  ( 0.000000000000000000, 0.000000000000000000, 0.000000000000000000 ) ) ;
#898 = CARTESIAN_POINT ( 'NONE',  ( 0.000000000000000000, 0.000000000000000000, -15.00000000000000000 ) ) ;
#899 = ORIENTED_EDGE ( 'NONE', *, *, #920, .T. ) ;
#900 = EDGE_CURVE ( 'NONE', #320, #939, #493, .T. ) ;
#901 = APPLICATION_CONTEXT ( 'automotive_design' ) ;
#902 = LINE ( 'NONE', #347, #914 ) ;
#903 = DIRECTION ( 'NONE',  ( 0.000000000000000000, 1.000000000000000000, 0.000000000000000000 ) ) ;
#904 = CARTESIAN_POINT ( 'NONE',  ( 0.000000000000000000, -42.00000000000000000, 0.000000000000000000 ) ) ;
#905 = EDGE_LOOP ( 'NONE', ( #816, #314, #139, #132 ) ) ;
#906 = ORIENTED_EDGE ( 'NONE', *, *, #398, .F. ) ;
#907 = CARTESIAN_POINT ( 'NONE',  ( 49.60000000000001563, 0.000000000000000000, -60.80000000000000426 ) ) ;
#908 =( LENGTH_UNIT ( ) NAMED_UNIT ( * ) SI_UNIT ( .MILLI., .METRE. ) );
#909 = EDGE_CURVE ( 'NONE', #780, #327, #393, .T. ) ;
#910 = DIRECTION ( 'NONE',  ( 1.000000000000000000, 0.000000000000000000, 0.000000000000000000 ) ) ;
#911 = ORIENTED_EDGE ( 'NONE', *, *, #1156, .F. ) ;
#912 = ORIENTED_EDGE ( 'NONE', *, *, #766, .T. ) ;
#913 = FACE_OUTER_BOUND ( 'NONE', #31, .T. ) ;
#914 = VECTOR ( 'NONE', #978, 1000.000000000000000 ) ;
#915 = ADVANCED_FACE ( 'NONE', ( #195 ), #746, .F. ) ;
#916 = FACE_OUTER_BOUND ( 'NONE', #447, .T. ) ;
#917 = ORIENTED_EDGE ( 'NONE', *, *, #1116, .T. ) ;
#918 = ORIENTED_EDGE ( 'NONE', *, *, #360, .T. ) ;
#919 = LINE ( 'NONE', #650, #1182 ) ;
#920 = EDGE_CURVE ( 'NONE', #353, #704, #105, .T. ) ;
#921 = CARTESIAN_POINT ( 'NONE',  ( 0.000000000000000000, 3.000000000000000000, 0.000000000000000000 ) ) ;
#922 = VERTEX_POINT ( 'NONE', #928 ) ;
#923 = VERTEX_POINT ( 'NONE', #559 ) ;
#924 = PLANE ( 'NONE',  #999 ) ;
#925 = AXIS2_PLACEMENT_3D ( 'NONE', #1095, #749, #98 ) ;
#926 = DIRECTION ( 'NONE',  ( 1.000000000000000000, 0.000000000000000000, 0.000000000000000000 ) ) ;
#927 = VECTOR ( 'NONE', #1185, 1000.000000000000000 ) ;
#928 = CARTESIAN_POINT ( 'NONE',  ( 0.000000000000000000, 0.000000000000000000, -60.80000000000000426 ) ) ;
#929 = ADVANCED_FACE ( 'NONE', ( #916 ), #479, .T. ) ;
#930 = VERTEX_POINT ( 'NONE', #377 ) ;
#931 = CIRCLE ( 'NONE', #1130, 10.00000000000000000 ) ;
#932 = ORIENTED_EDGE ( 'NONE', *, *, #658, .T. ) ;
#933 = VECTOR ( 'NONE', #597, 1000.000000000000000 ) ;
#934 = DIRECTION ( 'NONE',  ( 2.478176394252581634E-16, 0.000000000000000000, -1.000000000000000000 ) ) ;
#935 = CIRCLE ( 'NONE', #330, 4.999999999999999112 ) ;
#936 = VECTOR ( 'NONE', #964, 1000.000000000000000 ) ;
#937 = CIRCLE ( 'NONE', #996, 5.000000000000000888 ) ;
#938 = CARTESIAN_POINT ( 'NONE',  ( -9.999999999999994671, -42.00000000000000000, -22.00000000000000711 ) ) ;
#939 = VERTEX_POINT ( 'NONE', #294 ) ;
#940 = ORIENTED_EDGE ( 'NONE', *, *, #1138, .T. ) ;
#941 = DIRECTION ( 'NONE',  ( 0.000000000000000000, 0.000000000000000000, 1.000000000000000000 ) ) ;
#942 = CARTESIAN_POINT ( 'NONE',  ( -9.999999999999994671, -42.00000000000000000, -22.00000000000000711 ) ) ;
#943 = ORIENTED_EDGE ( 'NONE', *, *, #514, .T. ) ;
#944 = ORIENTED_EDGE ( 'NONE', *, *, #969, .F. ) ;
#945 = FACE_OUTER_BOUND ( 'NONE', #864, .T. ) ;
#946 = ADVANCED_FACE ( 'NONE', ( #738 ), #1109, .F. ) ;
#947 = FILL_AREA_STYLE_COLOUR ( '', #1135 ) ;
#948 = EDGE_CURVE ( 'NONE', #1191, #103, #688, .T. ) ;
#949 = LINE ( 'NONE', #692, #832 ) ;
#950 = ORIENTED_EDGE ( 'NONE', *, *, #1037, .F. ) ;
#951 = AXIS2_PLACEMENT_3D ( 'NONE', #263, #553, #1071 ) ;
#952 = ORIENTED_EDGE ( 'NONE', *, *, #112, .T. ) ;
#953 = CARTESIAN_POINT ( 'NONE',  ( -9.999999999999994671, 0.000000000000000000, -22.00000000000000711 ) ) ;
#954 = DIRECTION ( 'NONE',  ( 0.000000000000000000, 0.000000000000000000, -1.000000000000000000 ) ) ;
#955 = DIRECTION ( 'NONE',  ( 0.000000000000000000, 0.000000000000000000, -1.000000000000000000 ) ) ;
#956 = DIRECTION ( 'NONE',  ( -1.000000000000000000, -0.000000000000000000, -0.000000000000000000 ) ) ;
#957 = VERTEX_POINT ( 'NONE', #588 ) ;
#958 = PLANE ( 'NONE',  #328 ) ;
#959 = DIRECTION ( 'NONE',  ( 0.000000000000000000, 0.000000000000000000, -1.000000000000000000 ) ) ;
#960 = DIRECTION ( 'NONE',  ( 0.000000000000000000, 0.000000000000000000, -1.000000000000000000 ) ) ;
#961 = ORIENTED_EDGE ( 'NONE', *, *, #416, .T. ) ;
#962 = ORIENTED_EDGE ( 'NONE', *, *, #1053, .T. ) ;
#963 = LINE ( 'NONE', #219, #475 ) ;
#964 = DIRECTION ( 'NONE',  ( -0.000000000000000000, -1.000000000000000000, -0.000000000000000000 ) ) ;
#965 = LINE ( 'NONE', #236, #1069 ) ;
#966 = LINE ( 'NONE', #801, #598 ) ;
#967 = EDGE_CURVE ( 'NONE', #768, #244, #1039, .T. ) ;
#968 = ORIENTED_EDGE ( 'NONE', *, *, #136, .T. ) ;
#969 = EDGE_CURVE ( 'NONE', #939, #95, #949, .T. ) ;
#970 = VECTOR ( 'NONE', #659, 1000.000000000000000 ) ;
#971 = AXIS2_PLACEMENT_3D ( 'NONE', #275, #722, #1003 ) ;
#972 = CARTESIAN_POINT ( 'NONE',  ( 52.60000000000000142, -42.00000000000000000, -50.00000000000000000 ) ) ;
#973 = DIRECTION ( 'NONE',  ( 0.000000000000000000, 0.000000000000000000, -1.000000000000000000 ) ) ;
#974 = LINE ( 'NONE', #1079, #135 ) ;
#975 = ORIENTED_EDGE ( 'NONE', *, *, #1147, .T. ) ;
#976 = VECTOR ( 'NONE', #178, 1000.000000000000000 ) ;
#977 = ADVANCED_FACE ( 'NONE', ( #1065 ), #778, .F. ) ;
#978 = DIRECTION ( 'NONE',  ( -0.000000000000000000, 1.000000000000000000, -0.000000000000000000 ) ) ;
#979 = VECTOR ( 'NONE', #91, 1000.000000000000000 ) ;
#980 = CARTESIAN_POINT ( 'NONE',  ( -12.99999999999999645, 0.000000000000000000, -22.00000000000000711 ) ) ;
#981 = LINE ( 'NONE', #162, #1094 ) ;
#982 = ORIENTED_EDGE ( 'NONE', *, *, #182, .F. ) ;
#983 = DIRECTION ( 'NONE',  ( 2.478176394252582127E-16, 0.000000000000000000, 1.000000000000000000 ) ) ;
#984 = ADVANCED_FACE ( 'NONE', ( #612 ), #684, .F. ) ;
#985 = LINE ( 'NONE', #367, #1175 ) ;
#986 = LINE ( 'NONE', #536, #543 ) ;
#987 = ADVANCED_FACE ( 'NONE', ( #796 ), #220, .F. ) ;
#988 = CARTESIAN_POINT ( 'NONE',  ( 39.60000000000000142, 3.000000000000000000, 0.000000000000000000 ) ) ;
#989 = ORIENTED_EDGE ( 'NONE', *, *, #920, .F. ) ;
#990 = AXIS2_PLACEMENT_3D ( 'NONE', #420, #246, #69 ) ;
#991 = CYLINDRICAL_SURFACE ( 'NONE', #65, 10.00000000000000000 ) ;
#992 = CARTESIAN_POINT ( 'NONE',  ( 29.59999999999999432, 3.000000000000000000, 0.000000000000000000 ) ) ;
#993 = VECTOR ( 'NONE', #687, 1000.000000000000000 ) ;
#994 = CARTESIAN_POINT ( 'NONE',  ( 0.000000000000000000, 3.000000000000000000, -12.00000000000000533 ) ) ;
#995 = ORIENTED_EDGE ( 'NONE', *, *, #1089, .T. ) ;
#996 = AXIS2_PLACEMENT_3D ( 'NONE', #75, #699, #786 ) ;
#997 = CARTESIAN_POINT ( 'NONE',  ( 0.000000000000000000, 3.000000000000000000, 0.000000000000000000 ) ) ;
#998 = DIRECTION ( 'NONE',  ( 1.000000000000000000, -0.000000000000000000, -0.000000000000000000 ) ) ;
#999 = AXIS2_PLACEMENT_3D ( 'NONE', #183, #838, #1008 ) ;
#1000 = CARTESIAN_POINT ( 'NONE',  ( -10.00000000000000355, 0.000000000000000000, -60.80000000000000426 ) ) ;
#1001 = EDGE_LOOP ( 'NONE', ( #772, #474, #817, #528 ) ) ;
#1002 = PLANE ( 'NONE',  #830 ) ;
#1003 = DIRECTION ( 'NONE',  ( 0.000000000000000000, -0.000000000000000000, -1.000000000000000000 ) ) ;
#1004 = LINE ( 'NONE', #281, #521 ) ;
#1005 = ORIENTED_EDGE ( 'NONE', *, *, #34, .F. ) ;
#1006 = APPLICATION_CONTEXT ( 'automotive_design' ) ;
#1007 = ORIENTED_EDGE ( 'NONE', *, *, #634, .T. ) ;
#1008 = DIRECTION ( 'NONE',  ( 0.000000000000000000, -0.000000000000000000, -1.000000000000000000 ) ) ;
#1009 = ORIENTED_EDGE ( 'NONE', *, *, #316, .F. ) ;
#1010 = ORIENTED_EDGE ( 'NONE', *, *, #296, .T. ) ;
#1011 = LINE ( 'NONE', #907, #979 ) ;
#1012 = AXIS2_PLACEMENT_3D ( 'NONE', #1178, #150, #520 ) ;
#1013 = DIRECTION ( 'NONE',  ( -0.000000000000000000, 1.000000000000000000, -0.000000000000000000 ) ) ;
#1014 = VECTOR ( 'NONE', #467, 1000.000000000000000 ) ;
#1015 = EDGE_LOOP ( 'NONE', ( #117, #952, #837, #681, #883 ) ) ;
#1016 = EDGE_LOOP ( 'NONE', ( #555, #851, #940, #515 ) ) ;
#1017 = CARTESIAN_POINT ( 'NONE',  ( 39.60000000000000142, 0.000000000000000000, -60.80000000000000426 ) ) ;
#1018 = FACE_OUTER_BOUND ( 'NONE', #1035, .T. ) ;
#1019 = EDGE_LOOP ( 'NONE', ( #501, #760, #23, #734, #589, #1081 ) ) ;
#1020 = EDGE_CURVE ( 'NONE', #923, #609, #228, .T. ) ;
#1021 = ORIENTED_EDGE ( 'NONE', *, *, #409, .F. ) ;
#1022 = LINE ( 'NONE', #203, #378 ) ;
#1023 = AXIS2_PLACEMENT_3D ( 'NONE', #168, #12, #729 ) ;
#1024 = CARTESIAN_POINT ( 'NONE',  ( 0.000000000000000000, 0.000000000000000000, 0.000000000000000000 ) ) ;
#1025 = ORIENTED_EDGE ( 'NONE', *, *, #828, .T. ) ;
#1026 = VECTOR ( 'NONE', #343, 1000.000000000000000 ) ;
#1027 = EDGE_LOOP ( 'NONE', ( #643, #540, #943, #287 ) ) ;
#1028 = VECTOR ( 'NONE', #757, 1000.000000000000000 ) ;
#1029 = DIRECTION ( 'NONE',  ( 0.000000000000000000, 1.000000000000000000, 0.000000000000000000 ) ) ;
#1030 =( NAMED_UNIT ( * ) PLANE_ANGLE_UNIT ( ) SI_UNIT ( $, .RADIAN. ) );
#1031 = AXIS2_PLACEMENT_3D ( 'NONE', #599, #342, #454 ) ;
#1032 = DIRECTION ( 'NONE',  ( 0.000000000000000000, 0.000000000000000000, -1.000000000000000000 ) ) ;
#1033 = ORIENTED_EDGE ( 'NONE', *, *, #828, .F. ) ;
#1034 = EDGE_CURVE ( 'NONE', #719, #1191, #1150, .T. ) ;
#1035 = EDGE_LOOP ( 'NONE', ( #896, #231, #693, #325 ) ) ;
#1036 = DIRECTION ( 'NONE',  ( -1.734723475976807094E-15, 0.000000000000000000, -1.000000000000000000 ) ) ;
#1037 = EDGE_CURVE ( 'NONE', #869, #1100, #48, .T. ) ;
#1038 = DIRECTION ( 'NONE',  ( 0.000000000000000000, 0.000000000000000000, -1.000000000000000000 ) ) ;
#1039 = LINE ( 'NONE', #336, #784 ) ;
#1040 = PRODUCT ( '\X2\96f78fbe7f69\X0\', '\X2\96f78fbe7f69\X0\', '', ( #484 ) ) ;
#1041 = CARTESIAN_POINT ( 'NONE',  ( 27.60000000000000142, -1.387778780781445676E-14, 0.000000000000000000 ) ) ;
#1042 = ORIENTED_EDGE ( 'NONE', *, *, #338, .T. ) ;
#1043 = LINE ( 'NONE', #1142, #993 ) ;
#1044 = EDGE_CURVE ( 'NONE', #488, #16, #541, .T. ) ;
#1045 = DIRECTION ( 'NONE',  ( 0.000000000000000000, 1.000000000000000000, 0.000000000000000000 ) ) ;
#1046 = CYLINDRICAL_SURFACE ( 'NONE', #891, 10.00000000000000000 ) ;
#1047 = EDGE_CURVE ( 'NONE', #304, #9, #22, .T. ) ;
#1048 = ORIENTED_EDGE ( 'NONE', *, *, #1020, .T. ) ;
#1049 = ORIENTED_EDGE ( 'NONE', *, *, #885, .F. ) ;
#1050 = DIRECTION ( 'NONE',  ( 0.000000000000000000, 0.000000000000000000, -1.000000000000000000 ) ) ;
#1051 = AXIS2_PLACEMENT_3D ( 'NONE', #63, #43, #955 ) ;
#1052 = DIRECTION ( 'NONE',  ( -1.000000000000000000, 0.000000000000000000, -0.000000000000000000 ) ) ;
#1053 = EDGE_CURVE ( 'NONE', #810, #481, #965, .T. ) ;
#1054 = DIRECTION ( 'NONE',  ( -1.000000000000000000, 0.000000000000000000, -0.000000000000000000 ) ) ;
#1055 = ORIENTED_EDGE ( 'NONE', *, *, #34, .T. ) ;
#1056 = AXIS2_PLACEMENT_3D ( 'NONE', #430, #887, #608 ) ;
#1057 = VERTEX_POINT ( 'NONE', #137 ) ;
#1058 = CARTESIAN_POINT ( 'NONE',  ( 27.60000000000000142, -42.00000000000000000, 0.000000000000000000 ) ) ;
#1059 = DIRECTION ( 'NONE',  ( 0.000000000000000000, 0.000000000000000000, -1.000000000000000000 ) ) ;
#1060 = DIRECTION ( 'NONE',  ( -0.000000000000000000, 1.000000000000000000, -0.000000000000000000 ) ) ;
#1061 = CARTESIAN_POINT ( 'NONE',  ( -10.00000000000000000, 0.000000000000000000, -22.00000000000000711 ) ) ;
#1062 = ORIENTED_EDGE ( 'NONE', *, *, #99, .T. ) ;
#1063 = EDGE_CURVE ( 'NONE', #1163, #596, #500, .T. ) ;
#1064 = DIRECTION ( 'NONE',  ( -0.000000000000000000, -0.000000000000000000, 1.000000000000000000 ) ) ;
#1065 = FACE_OUTER_BOUND ( 'NONE', #163, .T. ) ;
#1066 = PLANE ( 'NONE',  #652 ) ;
#1067 = ADVANCED_FACE ( 'NONE', ( #698 ), #1046, .T. ) ;
#1068 = ORIENTED_EDGE ( 'NONE', *, *, #1180, .F. ) ;
#1069 = VECTOR ( 'NONE', #156, 1000.000000000000000 ) ;
#1070 = CARTESIAN_POINT ( 'NONE',  ( 39.60000000000000142, 3.000000000000000000, 0.000000000000000000 ) ) ;
#1071 = DIRECTION ( 'NONE',  ( 1.000000000000000000, 0.000000000000000000, -0.000000000000000000 ) ) ;
#1072 = DIRECTION ( 'NONE',  ( 0.000000000000000000, 0.000000000000000000, 1.000000000000000000 ) ) ;
#1073 = EDGE_LOOP ( 'NONE', ( #802, #545, #374, #410 ) ) ;
#1074 = ADVANCED_FACE ( 'NONE', ( #413 ), #323, .T. ) ;
#1075 = VECTOR ( 'NONE', #24, 1000.000000000000000 ) ;
#1076 = DIRECTION ( 'NONE',  ( 2.478176394252582127E-16, 0.000000000000000000, 1.000000000000000000 ) ) ;
#1077 = ADVANCED_FACE ( 'NONE', ( #241 ), #607, .F. ) ;
#1078 = LINE ( 'NONE', #980, #36 ) ;
#1079 = CARTESIAN_POINT ( 'NONE',  ( 52.60000000000000142, -42.00000000000000000, -22.00000000000000355 ) ) ;
#1080 = CARTESIAN_POINT ( 'NONE',  ( 29.59999999999999432, 0.000000000000000000, 0.000000000000000000 ) ) ;
#1081 = ORIENTED_EDGE ( 'NONE', *, *, #211, .T. ) ;
#1082 = CARTESIAN_POINT ( 'NONE',  ( -13.00000000000000355, 0.000000000000000000, -50.00000000000000000 ) ) ;
#1083 = EDGE_CURVE ( 'NONE', #221, #1119, #538, .T. ) ;
#1084 = DIRECTION ( 'NONE',  ( 0.000000000000000000, 0.000000000000000000, -1.000000000000000000 ) ) ;
#1085 = PLANE ( 'NONE',  #364 ) ;
#1086 = ORIENTED_EDGE ( 'NONE', *, *, #909, .F. ) ;
#1087 = VECTOR ( 'NONE', #1133, 1000.000000000000000 ) ;
#1088 = LINE ( 'NONE', #534, #788 ) ;
#1089 = EDGE_CURVE ( 'NONE', #758, #291, #179, .T. ) ;
#1090 = VECTOR ( 'NONE', #1190, 1000.000000000000000 ) ;
#1091 = CARTESIAN_POINT ( 'NONE',  ( -10.00000000000000355, 0.000000000000000000, -57.80000000000000426 ) ) ;
#1092 = ORIENTED_EDGE ( 'NONE', *, *, #756, .T. ) ;
#1093 = VECTOR ( 'NONE', #1038, 1000.000000000000000 ) ;
#1094 = VECTOR ( 'NONE', #1173, 1000.000000000000000 ) ;
#1095 = CARTESIAN_POINT ( 'NONE',  ( 22.60000000000000142, 3.000000000000002665, -10.00000000000000000 ) ) ;
#1096 = CARTESIAN_POINT ( 'NONE',  ( 0.000000000000000000, 0.000000000000000000, -60.80000000000000426 ) ) ;
#1097 = CARTESIAN_POINT ( 'NONE',  ( 17.00000000000000000, -1.387778780781445676E-14, -15.00000000000000000 ) ) ;
#1098 = VERTEX_POINT ( 'NONE', #361 ) ;
#1099 = EDGE_CURVE ( 'NONE', #806, #560, #931, .T. ) ;
#1100 = VERTEX_POINT ( 'NONE', #461 ) ;
#1101 = CARTESIAN_POINT ( 'NONE',  ( -12.99999999999999645, -42.00000000000000000, -50.00000000000000000 ) ) ;
#1102 = CARTESIAN_POINT ( 'NONE',  ( 0.000000000000000000, 3.000000000000000000, 0.000000000000000000 ) ) ;
#1103 = ORIENTED_EDGE ( 'NONE', *, *, #537, .F. ) ;
#1104 = EDGE_CURVE ( 'NONE', #859, #758, #1078, .T. ) ;
#1105 = ORIENTED_EDGE ( 'NONE', *, *, #1113, .F. ) ;
#1106 = DIRECTION ( 'NONE',  ( -0.000000000000000000, 1.000000000000000000, -0.000000000000000000 ) ) ;
#1107 = APPLICATION_PROTOCOL_DEFINITION ( 'draft international standard', 'automotive_design', 1998, #1006 ) ;
#1108 = AXIS2_PLACEMENT_3D ( 'NONE', #1184, #717, #1084 ) ;
#1109 = PLANE ( 'NONE',  #366 ) ;
#1110 = ORIENTED_EDGE ( 'NONE', *, *, #1187, .T. ) ;
#1111 = VECTOR ( 'NONE', #640, 1000.000000000000000 ) ;
#1112 = ORIENTED_EDGE ( 'NONE', *, *, #305, .F. ) ;
#1113 = EDGE_CURVE ( 'NONE', #704, #590, #497, .T. ) ;
#1114 = CARTESIAN_POINT ( 'NONE',  ( -9.999999999999991118, -42.00000000000000000, -50.00000000000000000 ) ) ;
#1115 = AXIS2_PLACEMENT_3D ( 'NONE', #876, #703, #70 ) ;
#1116 = EDGE_CURVE ( 'NONE', #125, #923, #184, .T. ) ;
#1117 = CARTESIAN_POINT ( 'NONE',  ( 27.60000000000000142, 3.000000000000000000, 0.000000000000000000 ) ) ;
#1118 = ORIENTED_EDGE ( 'NONE', *, *, #1034, .T. ) ;
#1119 = VERTEX_POINT ( 'NONE', #728 ) ;
#1120 = CARTESIAN_POINT ( 'NONE',  ( 22.60000000000000142, 0.000000000000000000, -15.00000000000000000 ) ) ;
#1121 = CARTESIAN_POINT ( 'NONE',  ( 39.60000000000000142, 0.000000000000000000, -22.00000000000000355 ) ) ;
#1122 = VERTEX_POINT ( 'NONE', #547 ) ;
#1123 = PRODUCT_DEFINITION ( 'æœ', '', #761, #1136 ) ;
#1124 = EDGE_LOOP ( 'NONE', ( #630, #1170, #435, #1025 ) ) ;
#1125 = DIRECTION ( 'NONE',  ( 1.000000000000000000, 0.000000000000000000, 0.000000000000000000 ) ) ;
#1126 =( NAMED_UNIT ( * ) SI_UNIT ( $, .STERADIAN. ) SOLID_ANGLE_UNIT ( ) );
#1127 = VECTOR ( 'NONE', #392, 1000.000000000000000 ) ;
#1128 = FACE_OUTER_BOUND ( 'NONE', #386, .T. ) ;
#1129 = ORIENTED_EDGE ( 'NONE', *, *, #517, .F. ) ;
#1130 = AXIS2_PLACEMENT_3D ( 'NONE', #800, #633, #712 ) ;
#1131 = ORIENTED_EDGE ( 'NONE', *, *, #29, .T. ) ;
#1132 = EDGE_CURVE ( 'NONE', #1141, #380, #820, .T. ) ;
#1133 = DIRECTION ( 'NONE',  ( -1.239088197126291063E-16, -0.000000000000000000, 1.000000000000000000 ) ) ;
#1134 = LINE ( 'NONE', #412, #1093 ) ;
#1135 = COLOUR_RGB ( '',0.7921568627450980005, 0.8196078431372548767, 0.9333333333333333481 ) ;
#1136 = PRODUCT_DEFINITION_CONTEXT ( 'detailed design', #1006, 'design' ) ;
#1137 = DIRECTION ( 'NONE',  ( 0.000000000000000000, 1.000000000000000000, -0.000000000000000000 ) ) ;
#1138 = EDGE_CURVE ( 'NONE', #304, #1163, #87, .T. ) ;
#1139 = ORIENTED_EDGE ( 'NONE', *, *, #967, .F. ) ;
#1140 = EDGE_CURVE ( 'NONE', #922, #457, #257, .T. ) ;
#1141 = VERTEX_POINT ( 'NONE', #83 ) ;
#1142 = CARTESIAN_POINT ( 'NONE',  ( 39.60000000000000142, 0.000000000000000000, 0.000000000000000000 ) ) ;
#1143 = DIRECTION ( 'NONE',  ( 0.000000000000000000, 0.000000000000000000, -1.000000000000000000 ) ) ;
#1144 = DIRECTION ( 'NONE',  ( 0.000000000000000000, 0.000000000000000000, -1.000000000000000000 ) ) ;
#1145 = DIRECTION ( 'NONE',  ( -0.000000000000000000, 1.000000000000000000, -0.000000000000000000 ) ) ;
#1146 = ORIENTED_EDGE ( 'NONE', *, *, #625, .F. ) ;
#1147 = EDGE_CURVE ( 'NONE', #95, #17, #621, .T. ) ;
#1148 = CYLINDRICAL_SURFACE ( 'NONE', #53, 1.750000000000015543 ) ;
#1149 = LINE ( 'NONE', #777, #307 ) ;
#1150 = LINE ( 'NONE', #407, #782 ) ;
#1151 = ORIENTED_EDGE ( 'NONE', *, *, #1083, .F. ) ;
#1152 = AXIS2_PLACEMENT_3D ( 'NONE', #290, #833, #582 ) ;
#1153 = VECTOR ( 'NONE', #356, 1000.000000000000000 ) ;
#1154 = EDGE_LOOP ( 'NONE', ( #152, #256, #1086, #654 ) ) ;
#1155 = CARTESIAN_POINT ( 'NONE',  ( 10.00000000000000000, 3.000000000000000000, 0.000000000000000000 ) ) ;
#1156 = EDGE_CURVE ( 'NONE', #676, #806, #985, .T. ) ;
#1157 = VECTOR ( 'NONE', #469, 1000.000000000000000 ) ;
#1158 = SURFACE_STYLE_USAGE ( .BOTH. , #134 ) ;
#1159 = EDGE_CURVE ( 'NONE', #103, #641, #707, .T. ) ;
#1160 = CARTESIAN_POINT ( 'NONE',  ( -10.00000000000000355, 3.000000000000000000, -57.80000000000000426 ) ) ;
#1161 = DIRECTION ( 'NONE',  ( 0.000000000000000000, 1.000000000000000000, -0.000000000000000000 ) ) ;
#1162 = PRESENTATION_LAYER_ASSIGNMENT (  '', '', ( #351 ) ) ;
#1163 = VERTEX_POINT ( 'NONE', #93 ) ;
#1164 = LINE ( 'NONE', #1000, #927 ) ;
#1165 = AXIS2_PLACEMENT_3D ( 'NONE', #1058, #1125, #586 ) ;
#1166 = LINE ( 'NONE', #807, #525 ) ;
#1167 = ADVANCED_FACE ( 'NONE', ( #1177, #79, #1189 ), #443, .F. ) ;
#1168 = DIRECTION ( 'NONE',  ( 2.478176394252582127E-16, 0.000000000000000000, -1.000000000000000000 ) ) ;
#1169 = DIRECTION ( 'NONE',  ( 0.000000000000000000, 0.000000000000000000, -1.000000000000000000 ) ) ;
#1170 = ORIENTED_EDGE ( 'NONE', *, *, #283, .F. ) ;
#1171 = DIRECTION ( 'NONE',  ( 0.000000000000000000, 1.000000000000000000, 0.000000000000000000 ) ) ;
#1172 = DIRECTION ( 'NONE',  ( -1.000000000000000000, 0.000000000000000000, -0.000000000000000000 ) ) ;
#1173 = DIRECTION ( 'NONE',  ( 0.000000000000000000, 1.000000000000000000, -0.000000000000000000 ) ) ;
#1174 = EDGE_LOOP ( 'NONE', ( #51, #408, #735, #56 ) ) ;
#1175 = VECTOR ( 'NONE', #437, 1000.000000000000000 ) ;
#1176 = CARTESIAN_POINT ( 'NONE',  ( 32.80000000000000426, 0.000000000000000000, -65.00000000000000000 ) ) ;
#1177 = FACE_OUTER_BOUND ( 'NONE', #85, .T. ) ;
#1178 = CARTESIAN_POINT ( 'NONE',  ( 49.60000000000001563, 3.000000000000000000, -57.80000000000000426 ) ) ;
#1179 = ORIENTED_EDGE ( 'NONE', *, *, #642, .F. ) ;
#1180 = EDGE_CURVE ( 'NONE', #869, #1141, #151, .T. ) ;
#1181 = DIRECTION ( 'NONE',  ( 0.000000000000000000, 0.000000000000000000, 1.000000000000000000 ) ) ;
#1182 = VECTOR ( 'NONE', #375, 1000.000000000000000 ) ;
#1183 = ADVANCED_FACE ( 'NONE', ( #270 ), #173, .T. ) ;
#1184 = CARTESIAN_POINT ( 'NONE',  ( 32.80000000000000426, 0.000000000000000000, -65.00000000000000000 ) ) ;
#1185 = DIRECTION ( 'NONE',  ( 0.000000000000000000, 1.000000000000000000, 0.000000000000000000 ) ) ;
#1186 = ORIENTED_EDGE ( 'NONE', *, *, #102, .T. ) ;
#1187 = EDGE_CURVE ( 'NONE', #470, #1098, #253, .T. ) ;
#1188 = LINE ( 'NONE', #997, #976 ) ;
#1189 = FACE_BOUND ( 'NONE', #834, .T. ) ;
#1190 = DIRECTION ( 'NONE',  ( 1.000000000000000000, 0.000000000000000000, 0.000000000000000000 ) ) ;
#1191 = VERTEX_POINT ( 'NONE', #992 ) ;
ENDSEC;
END-ISO-10303-21;
